<?xml version="1.0" encoding="utf-8"?>
<!-- Generator: Adobe Illustrator 28.0.0, SVG Export Plug-In . SVG Version: 6.00 Build 0)  -->
<svg version="1.1" id="Layer_2" xmlns="http://www.w3.org/2000/svg" xmlns:xlink="http://www.w3.org/1999/xlink" x="0px" y="0px"
	 viewBox="0 0 273.2 348.3" style="enable-background:new 0 0 273.2 348.3;" xml:space="preserve">
<style type="text/css">
	.st0{fill:#802521;}
	.st1{fill:#F8DFB6;}
	.st2{fill:#F8DFB7;}
	.st3{fill:#525252;}
	.st4{fill:#B7AD90;}
	.st5{fill:#C7C3B9;}
	.st6{fill:#F7D699;}
	.st7{fill:#2A1C17;}
	.st8{fill:#E79161;}
	.st9{fill:#351714;}
	.st10{stroke:#686767;stroke-width:2;stroke-miterlimit:10;}
	.st11{fill:#C0704D;}
	.st12{fill:#D79F87;}
	.st13{fill:#D8AB98;}
	.st14{fill:#6F6F6F;stroke:#686767;stroke-width:2;stroke-miterlimit:10;}
	.st15{fill:#40353F;}
	.st16{fill:#CC7B52;}
	.st17{fill:#351715;}
	.st18{fill:#411B19;}
	.st19{fill:#291313;}
	.st20{fill:#4C2422;}
	.st21{fill:#A88669;}
	.st22{fill:#BD7351;}
	.st23{fill:none;stroke:#686767;stroke-width:2;stroke-miterlimit:10;}
	.st24{fill:#351714;stroke:#58595B;stroke-miterlimit:10;}
	.st25{fill:#B57863;}
	.st26{fill:#6F6F6F;}
	.st27{fill:#A22F2B;}
	.st28{fill:#932B28;}
	.st29{enable-background:new    ;}
	.st30{fill:#EAE9EF;}
	.st31{clip-path:url(#SVGID_00000062172999920472425620000008816036970280081031_);fill:#802521;}
</style>
<g id="Layer_6">
	<path class="st0" d="M273.3,148.6c0,0-0.2-53.5-0.5-55.8c-0.8-8.2-2.7-18.2-5.5-23.3c-5.4-9.5-23.3-7.4-23.3-7.4s0.4-1.5-2.3-2.6
		c-2.7-1.1-7.2-2.4-7.9-4c-0.7-1.6-2.6-2.9-2.6-2.9l-2.1-3.9l-3.9-1.1c0,0,1.4-1.2,3.4-1.7c2-0.5,1.8-2.6,2.5-7.7s-2-6.1-0.9-7.2
		c1.1-1.1,2-7.2-2.3-13.2c-4.3-5.9-8.6-5.9-16.3-8.7c-7.7-2.7-17.7,5.2-21.7,8.4c-3.9,3.2-1.8,11.7-1.8,11.7s-0.4,1.3-1.5,4.8
		c-1.2,3.5,3.5,4,2.6,6.1c-0.9,2.1,0.9,8.4,0.9,8.4c-2.1,0.9-3.7,3.4-3,7.5c0.1,0.6,1.9-2,1.8-1.6c-0.2,0.8-1,2-0.9,3
		c0.1,0.2,1.4-0.3,1.5,0.1c0.2,0.6,0.4,0.2,0.4,0.2c-5.1,6.9,0,6.7,0,6.7s-1.2,2.3-3.2,4.2c-0.8-0.9-2.5-3.9-3.5-4.6
		c-10.4-6.4-24.2-5-23.1-6.1c1.1-1.1-3.4-4.5-2.3-5.5c1.1-0.9-0.4-3.8-0.1-5.1c0.3-1.2-0.7-2-0.1-4.1c0.6-2.1-1.3-3.2-0.4-4.5
		c0.9-1.3,0-4.4,0-4.4s-1.6-5.3-5.9-10.8c-4.3-5.5,0,0-6.6-7.7c-6.6-7.7-14.1-5-14.1-5s-4.1-3.1-18.1,6.3S99.3,38.8,98.4,42
		c-0.9,3.2,3.6,3.1,4.2,5.5c0.7,2.5,4.4,3.5,6.9,5.3c2.5,1.8,4.5,1.1,4.5,1.1l-0.9,3.4c0,0-5-0.2-5.9,0c-2.9,0.8-4.4,5.7-4.4,5.7
		s-15,5.3-21.8,6.5c-1.4,0.2-2.4,1.1-3.2,2.3l-8.3-2.5L69,66.8c0,0,0.5-0.7,1.8-1.4c1.3-0.6,2.9-5.3,4.7-9.1s0-11,1-11.8
		c1-0.8,0.7-4.5,0.7-4.5l1.6-2.3L77.9,36c1.4-2.7,0.8-6.5,0.8-6.5l1.3-1.8C71.6,4.9,52.9,15.3,52.9,15.3c-5.5-0.9-11.6,6.3-11.6,6.3
		s-1.2,4.4-1.1,7.6c0.1,3.2,1.1,5.6,1.1,5.6c-1.4-0.7-2.3-0.6-2.3-0.6c-1.3,0.5-0.9,2-0.5,4.6c0.4,2.8,1.1,5.6,1.7,6.4
		c0.6,0.8,4.8,4.4,4.8,4.4l-1.9,4.9c-2.2,0.6-5.1,0.2-7.6,0.6c-0.7,0.1-1.4,2.1-2.1,2.2c-6.5,0.9-13.6,2.1-20.3,6C-0.1,71,0,90,0,90
		l0.4,53.4l68.1,0.5l82.6-1.4l51.4,0.8L273.3,148.6z"/>
	<path class="st1" d="M215.4,52.1c-1.7-5.2-7-5.2-7-5.2l-5.6,0.4l-0.1,0l0.4,0.8c0,0,8.9-2.7,10.5,2.5c1.7,5.2-2.6-0.9-2.6-0.9
		s2.6,5.3,1.2,4.9c-1.4-0.4-2.7-1.9-2.7-1.9s0.9,3.2-0.8,2.6c-1.6-0.5-2.7-1.4-2.7-1.4s0.9,1.9-0.7,1.4c-1.6-0.4-3.3,0.1-3.3,0.1
		s0,1.7-1.3,1.3c-1.3-0.5-2.2-0.9-2.2-0.9s-0.4,2.1-1.7,1.2c0.2,0.6,0.4,1.1,0.7,1.3c1.5,1.4,2-1,2-1s0.8,0.4,2.2,0.9
		c1.3,0.5,1.3-1.3,1.3-1.3s1.7-0.5,3.3-0.1c1.6,0.4,0.7-1.4,0.7-1.4s1.1,0.9,2.7,1.4c1.6,0.5,0.8-2.6,0.8-2.6s1.4,1.5,2.7,1.9
		c1.4,0.4-1.3-4.8-1.3-4.8S217.1,57.3,215.4,52.1z"/>
	<g>
		<path class="st1" d="M156.5,52.7c-1.4-4.1-4.9-5.8-6.2-6.1c-1.3-0.3-1.7-0.1-1.7-0.1s3.8-0.1,6.3,4.5c2.6,4.8-1.5,1.1-1.5,1.1
			s0.4,1.9-0.9,1.4c-1.3-0.6-2-0.9-2-0.9s0.4,3.3-1.1,2.5c-1.5-0.7-2.5-1.7-2.5-1.7s0.8,2.9-0.7,2.3c-1.5-0.7-2.1-0.8-2.1-0.8
			s-1.2,2-2.4,1.3c-1.2-0.7-2.2-1.2-2.2-1.2s-0.9,1.3-2.1,0.2c0.1,0.6,0.1,1.2,0.5,1.4c1.2,0.6,2.1-0.7,2.1-0.7s0.8,0.5,2,1.2
			c1.2,0.7,1.5-1.1,1.5-1.1s1.8-0.2,3.3,0.4c1.5,0.7,0.8-1.3,0.8-1.3s1,1,2.5,1.7c1.5,0.7,1.1-2.5,1.1-2.5s0.7,0.4,2,0.9
			c1.3,0.6,0.8-1.6,0.8-1.6S159,60.1,156.5,52.7z"/>
		<path class="st1" d="M159.6,64.3c1.3-1.1,1.8-2.8,1-4c-0.2-0.3-0.4-0.5-0.7-0.7c0.1,1-0.4,2.1-1.3,2.8c0.1,0.1,0.2,0.2,0.2,0.3
			c0.8,1.3,0.2,3.2-1.3,4.3c-0.8,0.6-1.8,0.8-2.6,0.6c-0.3,1.4-1.3,2.5-2.5,2.5c-0.7,0-1.3-0.3-1.7-0.9c-0.1,1.9,1.7,6.1-2.6,3.4
			c-0.5-0.3-1-0.2-1.5-0.6c-0.4,1.3-1.3,2.3-2.4,2.3c-1,0-1.8-0.7-2.2-1.7c-0.2,0.1-0.4,0.1-0.6,0.1c-1,0-1.8-0.5-2.4-1.2
			c-0.5,1.1-1.6,1.9-2.9,1.9c-1.4,0-2.5-0.9-3-2.2c-0.6,0.6-1.3,0.9-2.2,0.9c-1.7,0-3.1-1.5-3.2-3.3c-1.1,0.5-2.6,2.7-3.9,1.9
			c-1.4-0.8-0.1-1.5-5.4-9.4c-0.2-0.3-2.4-2.4-2.4-3.8c0-0.7,0.3-1.4,0.7-1.9c-0.5-0.5-0.7-1.1-0.7-1.9c0-0.1,0-0.1,0-0.2
			c-0.7,0.5-1.1,1.2-1.1,2.1c0,0.7,0.3,1.4,0.8,1.8c-0.5,0.5-0.8,1.1-0.8,1.8c0,1.4,0.4,2.2,1.8,2.2c0.1,0,0.8,0.4,0.9,0.4
			c-0.1,0.3,0.4,3.6,1,5.7c0.1,0.4,0.6,0.7,0.9,0.4c0.3-0.2,0.7,0.1,1.2-1.5c0-0.1-0.8,1.7,2.6,6.1c0.9,1.2,4.3-1.1,3.8-2.1
			c0.1,1.8,1.5,3.3,3.3,3.3c0.9,0,1.7-0.3,2.2-0.9c0.5,1.3,1.7,2.2,3.1,2.2c1.3,0,2.4-0.8,3-1.9c0.6,0.7,1.5,1.2,2.5,1.2
			c0.2,0,0.4,0,0.6-0.1c0.5,1,1.3,1.7,2.3,1.7c1.2,0,2.2-0.9,2.5-2.3c0.4,0.4,1,0.6,1.5,0.6c1.5,0,5.6,1.7,2.7-3.3
			c0.5,0.5,1.1,0.8,1.8,0.8c1.2,0,2.2-1,2.6-2.5c0.8,0.2,1.8-0.1,2.7-0.6c1.5-1,2.1-2.9,1.3-4.2C159.8,64.5,159.7,64.4,159.6,64.3z"
			/>
	</g>
	<path class="st1" d="M42.6,25.1c-0.1,0.5-0.4,1.4,1,2.7c0.5,0.4,1.3,0.5,1.3,0.5s-0.3,1.2,0.5,2.1c0.8,0.8,2.6-1.1,2.8-0.4
		c0.2,0.7,0,1.4,0,1.4s0.2,1.8,1.8,2.2c1.6,0.3,2.9-6.5,2.4-3.7c-0.5,2.8,1,4.2,1,4.2s-1.4-8.7,5-9.7c6.3-1-6.1-2.1-6.8,5.7
		c-0.8,7.8-3.2-2.7-3.2-2.7s-4.6,1.5-5-2.6C43,23.3,42.7,24.3,42.6,25.1z"/>
</g>
<g id="Layer_1_00000023262506149448593530000003297572640908992394_">
	<g>
		<g>
			<path class="st2" d="M15.2,137.4h0.2c0.3-0.9,0.5-1.9,0.5-2.9c0-1.2-0.2-2.4-0.7-3.4V137.4z"/>
			<path class="st2" d="M55.9,97.6c-1.3-1.7-4.1-1.9-6.1-1.7c0.7-0.7,1.1-1.6,1.1-1.9c0-1.6-1.1-2.8-2.4-2.8c-0.2,0-0.4,0-0.6,0.1
				c-0.3-3.6-1.7-6.4-3.4-6.4c-0.6,0-1.2,0.4-1.7,1.1c-0.6-1.5-1.5-2.4-2.5-2.4c-0.1,0-0.2,0-0.3,0c-0.6-1.6-1.5-2.6-2.6-2.6
				c-1.1,0-2.1,1.2-2.7,3.1c-0.5-0.4-1.1-0.6-1.6-0.6c-2,0-3.8,2.5-4.2,5.8c-0.4-0.4-0.9-0.7-1.4-0.7c-0.9,0-1.6,0.6-2.2,1.7
				c-0.2-0.1-0.5-0.2-0.8-0.2c-1.2,0-2.2,1.5-2.3,3.5c-0.7-0.1-1.3-0.2-2.1-0.2c-1.8,0-2.9,2.6-4.2,7.7l-0.7,1.3h18.7
				c-0.5,1.4-0.8,3-1,4.9c-0.4-0.6-0.9-1-1.4-1c-0.9,0-1.6,1-2.2,2.5c-0.2-0.2-0.5-0.3-0.8-0.3c-1.2,0-2.2,2.3-2.3,5.2
				c-0.7-0.2-1.3-0.3-2.1-0.3c-3.5,0-6.5,2.9-7.3,6.8c-0.5-0.4-1.1-0.6-1.7-0.7v7.4h39.4c0.2-0.4,0.3-0.8,0.3-1.2
				c0.1-1.9-1.8-3.3-4.1-3.3c-0.4,0-0.7,0-1,0.1c-0.3-2.9-1.5-5.3-3.2-6.6h8.3c0.1-0.5,0.2-1,0.2-1.6c0-2.3-1.1-4.2-2.4-4.2
				c-0.2,0-0.4,0.1-0.6,0.1c-0.2-3.3-0.7-6.1-1.5-7.8h0.1c0.2-0.3,0.3-0.5,0.3-0.8c0-1.2-1.9-2.2-4.2-2.2c-0.3,0-0.6,0-0.9,0.1
				c-0.1-0.1-0.2-0.2-0.1-0.2c3.5-1.8,7.8,1.1,8.3,1.7C54.8,100.8,57.8,100.2,55.9,97.6z M36.9,95.2c-0.1-0.1-0.1-0.1-0.2-0.2h0.6
				C37.2,95,37,95.1,36.9,95.2z M41,116.1c-0.1-0.1-0.1-0.2-0.2-0.3h0.6C41.3,115.8,41.2,116,41,116.1z"/>
			<path class="st2" d="M53.9,100.9c-0.1,0-0.2,0-0.2,0C54,101.1,54,101,53.9,100.9z"/>
		</g>
		<g>
			<path class="st2" d="M221.3,150.7h0.2c0.3-0.9,0.5-1.9,0.5-2.9c0-1.2-0.2-2.4-0.7-3.4V150.7z"/>
			<path class="st2" d="M262,110.9c-1.3-1.7-4.1-1.9-6.1-1.7c0.7-0.7,1.1-1.6,1.1-1.9c0-1.6-1.1-2.8-2.4-2.8c-0.2,0-0.4,0-0.6,0.1
				c-0.3-3.6-1.7-6.4-3.4-6.4c-0.6,0-1.2,0.4-1.7,1.1c-0.6-1.5-1.5-2.4-2.5-2.4c-0.1,0-0.2,0-0.3,0c-0.6-1.6-1.5-2.6-2.6-2.6
				c-1.1,0-2.1,1.2-2.7,3.1c-0.5-0.4-1.1-0.6-1.6-0.6c-2,0-3.8,2.5-4.2,5.8c-0.4-0.4-0.9-0.7-1.4-0.7c-0.9,0-1.6,0.6-2.2,1.7
				c-0.2-0.1-0.5-0.2-0.8-0.2c-1.2,0-2.2,1.5-2.3,3.5c-0.7-0.1-1.3-0.2-2.1-0.2c-1.8,0-2.9,2.6-4.2,7.7l-0.7,1.3H240
				c-0.5,1.4-0.8,3-1,4.9c-0.4-0.6-0.9-1-1.4-1c-0.9,0-1.6,1-2.2,2.5c-0.2-0.2-0.5-0.3-0.8-0.3c-1.2,0-2.2,2.3-2.3,5.2
				c-0.7-0.2-1.3-0.3-2.1-0.3c-3.5,0-6.5,2.9-7.3,6.8c-0.5-0.4-1.1-0.6-1.7-0.7v7.4h39.4c0.2-0.4,0.3-0.8,0.3-1.2
				c0.1-1.9-1.8-3.3-4.1-3.3c-0.4,0-0.7,0-1,0.1c-0.3-2.9-1.5-5.3-3.2-6.6h8.3c0.1-0.5,0.2-1,0.2-1.6c0-2.3-1.1-4.2-2.4-4.2
				c-0.2,0-0.4,0.1-0.6,0.1c-0.2-3.3-0.7-6.1-1.5-7.8h0.1c0.2-0.3,0.3-0.5,0.3-0.8c0-1.2-1.9-2.2-4.2-2.2c-0.3,0-0.6,0-0.9,0.1
				c-0.1-0.1-0.2-0.2-0.1-0.2c3.5-1.8,7.8,1.1,8.3,1.7C260.8,114.1,263.9,113.5,262,110.9z M243,108.5c-0.1-0.1-0.1-0.1-0.2-0.2h0.6
				C243.2,108.3,243.1,108.4,243,108.5z M247.1,129.4c-0.1-0.1-0.1-0.2-0.2-0.3h0.6C247.4,129.1,247.2,129.3,247.1,129.4z"/>
			<path class="st2" d="M260,114.2c-0.1,0-0.2,0-0.2,0C260,114.4,260.1,114.3,260,114.2z"/>
		</g>
		<g>
			<g>
				<polygon points="200.8,126.4 198.7,126.4 198.7,99.2 200.2,99.2 				"/>
				<rect x="197.3" y="99.2" class="st3" width="1.5" height="27.2"/>
				<polygon class="st4" points="197.4,126.4 196.1,126.4 196.9,99.2 197.4,99.2 				"/>
				<rect x="197.4" y="99.2" class="st5" width="0.5" height="27.2"/>
				<rect x="196.4" y="98.7" width="4" height="0.5"/>
				<rect x="196.4" y="97.8" class="st5" width="4" height="0.9"/>
			</g>
			<rect x="196.8" y="103.6" class="st5" width="3.5" height="0.2"/>
			<rect x="196.8" y="107.6" class="st5" width="3.5" height="0.2"/>
			<rect x="196.8" y="111.6" class="st5" width="3.5" height="0.2"/>
			<rect x="196.8" y="115.7" class="st5" width="3.5" height="0.2"/>
		</g>
		<g>
			<g>
				<polygon points="192.5,125.2 190.5,125.2 190.5,78.6 191.9,78.6 				"/>
				<rect x="189" y="78.6" class="st3" width="1.5" height="46.6"/>
				<polygon class="st4" points="189.1,125.2 187.9,125.2 188.7,78.6 189.1,78.6 				"/>
				<rect x="189.1" y="78.6" class="st5" width="0.5" height="46.6"/>
				<rect x="188.2" y="78.1" width="4" height="0.5"/>
				<rect x="188.2" y="77.2" class="st5" width="4" height="0.9"/>
			</g>
			<rect x="188.6" y="83" class="st5" width="3.5" height="0.2"/>
			<rect x="188.6" y="87" class="st5" width="3.5" height="0.2"/>
			<rect x="188.6" y="91" class="st5" width="3.5" height="0.2"/>
			<rect x="188.6" y="95" class="st5" width="3.5" height="0.2"/>
		</g>
		<polygon class="st6" points="0.4,143.5 273.3,139.8 273.3,176.8 0.3,177.5 		"/>
		<polygon class="st7" points="166.3,129.9 184.4,120.9 213.7,132.6 212.5,148.8 166.3,148.2 		"/>
		<polygon class="st7" points="59.7,120.8 80.1,109.1 113.2,124.3 111.8,143.4 59.7,142.7 		"/>
		<polygon class="st8" points="20.7,154.8 48.8,153.1 40.2,155.9 85.6,156.5 184,162.2 238.7,165.3 256.2,155.4 262,155 
			273.3,168.3 273.3,190.5 145.9,177.4 83.7,168.7 99.1,164 50.2,159 		"/>
		<polygon class="st9" points="108,119 114.8,114.4 114.8,119 123.2,115.1 123.2,119.3 129.9,115.2 129.9,119 135.4,115.2 
			135.4,119.3 142.1,119.3 142.1,143.6 108,143.6 		"/>
		<polygon class="st10" points="79.1,101.2 85.1,96 85.1,101.2 92.4,96.8 92.4,101.5 98.3,96.9 98.3,101.2 103.1,96.9 103.1,101.5 
			109,101.5 109,129 79.1,129 		"/>
		<g>
			<polygon class="st11" points="10.2,102.6 38.3,90.8 70.6,96.3 70.6,128.1 39.4,128.1 10.5,124.7 			"/>
			<polygon class="st9" points="38.3,90.7 38.3,128.1 70.6,128.1 70.6,96.3 			"/>
		</g>
		<g>
			<polygon class="st11" points="4.8,116.5 16.8,112.6 26.7,115.1 26.7,151.3 15.4,151.3 4.9,147.6 			"/>
			<polygon class="st9" points="16.8,112.6 17.3,150.6 26.7,151.3 26.7,114.8 			"/>
		</g>
		<g>
			<polygon class="st12" points="13.8,107.6 26.1,103.1 40.2,105.7 40.2,152.5 26.6,152.5 14,148.5 			"/>
			<polygon class="st9" points="26.1,102.9 26.1,152.2 40.2,152.5 40.2,105.4 			"/>
		</g>
		<g>
			<polygon class="st11" points="0.3,127.9 35.7,119.8 76.5,124.7 76.5,153.1 35.6,153.1 0.3,148.6 			"/>
			<polygon class="st9" points="36.4,119.7 36.4,153.1 76.5,153.1 76.5,124.7 			"/>
		</g>
		<polygon class="st9" points="0.3,128.7 35.9,120.7 35.8,121.6 0.3,129.6 		"/>
		<polygon class="st13" points="3.5,131.7 28.7,125.9 28.7,126.9 3.5,132.6 		"/>
		<polygon class="st7" points="89.5,116.7 111.6,104 108.3,104 86.7,116.1 		"/>
		<rect x="90.6" y="120.4" class="st7" width="26.3" height="32.7"/>
		<polygon class="st9" points="3.5,132.6 28.7,126.9 28.7,130.5 3.4,134.5 		"/>
		<polygon class="st9" points="14.7,151.2 14.7,139.2 25.8,138.1 25.8,151.8 		"/>
		<polygon class="st14" points="16.3,150.2 16.3,141.8 23.3,140.8 23.3,150.7 		"/>
		<g>
			<g>
				<polygon points="80,110.6 78,110.6 78,77.9 79.4,77.9 				"/>
				<rect x="76.5" y="77.9" class="st3" width="1.5" height="32.7"/>
				<polygon class="st4" points="76.6,110.6 75.4,110.6 76.2,77.9 76.6,77.9 				"/>
				<rect x="76.6" y="77.9" class="st5" width="0.5" height="32.7"/>
				<rect x="75.7" y="77.4" width="4" height="0.5"/>
				<rect x="75.7" y="76.5" class="st5" width="4" height="0.9"/>
			</g>
			<rect x="76.1" y="82.3" class="st5" width="3.5" height="0.2"/>
			<rect x="76.1" y="86.3" class="st5" width="3.5" height="0.2"/>
			<rect x="76.1" y="90.3" class="st5" width="3.5" height="0.2"/>
			<rect x="76.1" y="94.4" class="st5" width="3.5" height="0.2"/>
		</g>
		<polygon class="st10" points="56.6,96.6 56.6,104.3 59,104.5 59,97 		"/>
		<polygon class="st10" points="61.5,97.3 61.5,104.9 63.9,105 63.9,97.6 		"/>
		<polygon class="st10" points="66.2,98 66.2,105.5 68.5,105.6 68.5,98.3 		"/>
		<polygon class="st7" points="106.7,100.3 104.6,106.5 107.7,104.2 110.1,103.7 111.9,104.2 111.9,100.7 		"/>
		<g>
			<polygon class="st7" points="106.7,92.2 112.3,93.8 112.3,100.7 106.7,100.3 			"/>
			<polygon class="st15" points="106.7,92.2 104.3,92.7 104.3,100.4 106.7,100.3 			"/>
			<polygon class="st4" points="105.3,92.8 104.6,92.9 104.6,100.1 105.3,100 			"/>
			<polygon class="st4" points="106.5,92.6 105.7,92.7 105.7,100 106.5,100 			"/>
		</g>
		<g>
			<polygon class="st7" points="106.3,112.1 115.6,112.1 115.6,120.3 106.3,120.4 			"/>
			<polygon class="st15" points="106.3,112 102.3,112.1 102.3,120.5 106.3,120.4 			"/>
		</g>
		<polygon class="st4" points="112.8,100.7 103.8,100.7 103.8,100.3 107.3,100.2 112.8,100.3 		"/>
		<polygon class="st4" points="105.3,100.7 103.4,106.5 104.9,105.6 106.7,100.3 		"/>
		<rect x="114.1" y="104" class="st7" width="0.8" height="8"/>
		<rect x="114.1" y="111.8" class="st7" width="0.8" height="8"/>
		<rect x="107.5" y="111.8" class="st7" width="0.8" height="8"/>
		<rect x="103.5" y="111.8" class="st7" width="0.8" height="8"/>
		<rect x="101.8" y="111.4" class="st7" width="14.4" height="0.8"/>
		<rect x="111.6" y="104" class="st7" width="0.8" height="8"/>
		<path class="st4" d="M116.2,103.7h-6.1c0,0-1.6-0.1-3.8,1.2s-20.7,11.9-20.7,11.9l0.4,0.4l20.7-11.7c0,0,1.7-1.1,3.4-1.2l6,0.1
			L116.2,103.7z"/>
		<polygon class="st16" points="67.1,130.9 67.1,109.7 76.5,105.4 76.5,131.5 		"/>
		<polygon class="st17" points="76.5,130.2 76.5,105.3 82.3,102 90.1,104.7 90.9,129.3 		"/>
		<polygon class="st16" points="64.5,110 69.6,106.5 82.4,101.3 91.2,104.4 91.2,105.1 82.4,102.2 76.5,106.2 67.1,109.7 		"/>
		<polygon class="st18" points="90.1,104.7 82.4,102.2 76.5,106.2 67.1,109.7 67.1,110.6 76.6,107.4 82.4,103.5 90.1,105.9 		"/>
		<polyline class="st17" points="67.1,115.8 76.5,113.4 76.5,114.3 67.1,116.7 67.1,115.8 		"/>
		<polyline class="st17" points="67.1,123 76.5,121.5 76.5,122.3 67.1,123.9 67.1,123 		"/>
		<polygon class="st19" points="116.9,136.4 92.1,129 75.4,138.7 75.4,154.8 105.9,154.8 105.9,141.9 		"/>
		<polygon class="st11" points="45.5,153.1 45.5,142 60.5,141.7 60.5,131.4 92.1,129 91.2,130.1 73.8,135.6 72.2,152.9 		"/>
		<g>
			<polygon class="st11" points="54.1,122.3 48.4,121.7 49.3,66.8 51.4,65.1 52.9,66.6 			"/>
			<polygon class="st18" points="54.1,122.3 51.4,122 51.4,65.1 52.9,66.3 			"/>
		</g>
		<polygon class="st20" points="13.8,114.7 14.7,115.3 14.9,115.7 15.7,115.9 16.6,116.5 16.8,117 17.9,117.3 18.7,117.8 
			18.9,118.3 20,118.7 20.7,119.1 20.9,119.6 21.9,119.8 22.4,120.2 22.7,120.8 24,121.2 13.8,123.1 		"/>
		<polygon class="st21" points="61.5,133 70.6,140.8 77.4,140.8 92.1,129.9 116.9,136.4 116.5,135.4 92.1,129 89.7,130.2 		"/>
		<rect x="70.2" y="140.8" class="st22" width="7.2" height="14"/>
		<polygon class="st19" points="70.6,154.8 70.6,140.8 61.5,133 61.5,154.3 		"/>
		<polygon class="st18" points="54.1,123.6 47.1,123.6 48.1,65.1 52.9,65.1 		"/>
		<polygon class="st18" points="54.1,130.6 47.1,130.6 48.2,64.3 52.9,64.3 		"/>
		<polygon class="st11" points="50.6,123.6 47.1,123.6 48.1,65.1 50.6,65.1 		"/>
		<g>
			<polygon class="st10" points="151.7,106.7 151.7,143.8 138.8,143.8 138.8,106.9 144.7,104.9 			"/>
			<path class="st11" d="M138.8,106l5-1.4l0.8,0l6.3,1.4l0.8,0.2v37.5h-0.8v1l-6.3-0.2v-0.2h-0.8v0.2l-5,0.2v-1h-0.7v-37.5
				L138.8,106z M150.9,112.6l-6.3-1.3v5l6.3,1.2V112.6z M150.9,118.3l-6.3-1.2v5.1l6.3,1V118.3z M150.9,124.1l-6.3-1v5.1l6.3,0.8
				V124.1z M150.9,129.8l-6.3-0.8v5.2l6.3,0.6V129.8z M150.9,135.5l-6.3-0.6v5.3l6.3,0.2V135.5z M143.9,135l-5,0.6v5l5-0.2V135z
				 M143.9,134.2V129l-5,0.8v5L143.9,134.2z M143.9,128.2v-5.1l-5,1v4.9L143.9,128.2z M143.9,122.3v-5.1l-5,1.2v4.9L143.9,122.3z
				 M143.9,116.3v-5l-5,1.3v4.9L143.9,116.3z M138.8,106.9v4.9l5-1.3v-5L138.8,106.9z M144.7,105.5v5l6.3,1.3v-4.9L144.7,105.5z
				 M150.9,144v-2.7l-6.3-0.2v2.7L150.9,144z M143.9,143.7v-2.7l-5,0.2v2.7L143.9,143.7z"/>
			<line class="st23" x1="150.9" y1="111.8" x2="144.7" y2="105.5"/>
			<line class="st23" x1="144.7" y1="110.5" x2="150.9" y2="106.9"/>
			<line class="st23" x1="144.7" y1="116.2" x2="150.9" y2="112.6"/>
			<line class="st23" x1="144.7" y1="122" x2="150.9" y2="118.4"/>
			<line class="st23" x1="144.7" y1="128.1" x2="150.9" y2="124.2"/>
			<line class="st23" x1="144.7" y1="134.1" x2="150.9" y2="129.9"/>
			<line class="st23" x1="144.7" y1="140.2" x2="150.9" y2="135.6"/>
			<line class="st23" x1="150.9" y1="117.5" x2="144.7" y2="111.2"/>
			<line class="st23" x1="150.9" y1="123.3" x2="144.7" y2="117"/>
			<line class="st23" x1="150.9" y1="129.1" x2="144.7" y2="122.8"/>
			<line class="st23" x1="150.9" y1="134.9" x2="144.7" y2="128.8"/>
			<line class="st23" x1="150.9" y1="140.7" x2="144.7" y2="134.8"/>
			<line class="st23" x1="150.9" y1="144.2" x2="144.7" y2="140.8"/>
			<polygon class="st13" points="144.4,104.7 144.3,143.6 143.9,143.6 143.9,104.7 			"/>
		</g>
		<g>
			<polygon class="st11" points="265.5,115.1 239.8,105.4 207.8,109.9 207.8,136.2 238.7,136.2 265.3,133.3 			"/>
			<polygon class="st9" points="239.8,105.3 239.8,136.2 207.8,136.2 207.8,109.9 			"/>
		</g>
		<g>
			<polygon class="st11" points="271,126.6 261.1,123.4 251.3,125.4 251.3,155.2 262.5,155.2 270.8,152.1 			"/>
			<polygon class="st9" points="261.1,123.4 260.6,154.7 251.3,155.2 251.3,125.2 			"/>
		</g>
		<g>
			<polygon class="st12" points="226.3,96.3 216.3,92.5 204.7,94.7 204.7,127.7 215.9,127.7 226.2,124.4 			"/>
			<polygon class="st9" points="216.3,92.4 216.3,132 204.7,134.8 204.7,94.5 			"/>
		</g>
		<g>
			<polygon class="st11" points="272,135.9 241.1,129.3 203,133.3 203,156.7 241.1,156.7 271.7,154.2 			"/>
			<polygon class="st9" points="241.1,129.2 241.1,156.7 203,156.7 203,133.3 			"/>
		</g>
		<polygon class="st9" points="271.8,136.5 240.6,130 240.8,130.7 271.8,137.2 		"/>
		<polygon class="st13" points="271.2,139.1 241.9,134.2 242.1,134.9 271.2,139.8 		"/>
		<polygon class="st14" points="270.4,140.8 270.4,140 266.1,139.4 266.1,140.4 		"/>
		<polygon class="st9" points="270.4,140.8 270.4,140 266.1,139.4 266.1,140.4 		"/>
		<polygon class="st14" points="258,139.4 258,138.1 252.5,137.4 252.5,138.9 		"/>
		<polygon class="st9" points="258,139.4 258,138.1 252.5,137.4 252.5,138.9 		"/>
		<polygon class="st14" points="265.4,140.1 265.4,139 261.1,138.4 261.1,139.7 		"/>
		<polygon class="st9" points="265.4,140.1 265.4,139 261.1,138.4 261.1,139.7 		"/>
		<polygon class="st24" points="250,138.8 250,137 244,136.2 244,138.2 		"/>
		<polygon class="st9" points="262.5,155.2 262.5,147.5 255.8,146.8 255.8,155.5 		"/>
		<polygon class="st14" points="262,155 262,148.1 256.2,147.3 256.2,155.4 		"/>
		<polygon class="st11" points="228.5,156.7 228.5,147.5 216.1,147.3 216.1,138.8 190.2,136.8 191,137.7 205.2,142.2 206.6,156.5 		
			"/>
		<g>
			<polygon class="st11" points="221.5,131.3 226.2,130.8 225.3,85.6 223.6,84.2 222.4,85.3 			"/>
			<polygon class="st18" points="221.5,131.3 223.6,131.1 223.6,84.2 222.4,85.1 			"/>
		</g>
		<polygon class="st20" points="254.5,125.1 253.8,125.5 253.7,125.9 253,126.1 252.3,126.5 252.1,127 251.2,127.2 250.5,127.6 
			250.4,128.1 249.4,128.3 248.9,128.7 248.7,129.1 247.9,129.3 247.5,129.6 247.3,130.1 246.2,130.4 254.5,132 		"/>
		<polygon class="st18" points="221.5,132.4 227.2,132.4 226.4,84.2 222.4,84.2 		"/>
		<polygon class="st18" points="221.5,138.2 227.2,138.2 226.5,93 222.4,93 		"/>
		<polygon class="st11" points="224.3,132.4 227.2,132.4 226.4,84.2 224.3,84.2 		"/>
		<rect x="47.1" y="64" class="st18" width="7" height="1.1"/>
		<rect x="220.7" y="83.6" class="st18" width="7" height="1.1"/>
		<polygon class="st25" points="101.3,159.8 114.6,153.1 121.9,157.5 126.1,159.2 127.7,162.5 111.8,163.4 		"/>
		<polygon class="st25" points="116.6,143.4 134.2,136.5 144.9,140.7 151.1,142.4 153.4,145.5 126.2,145.5 116.6,146.9 		"/>
		<polygon class="st25" points="78.1,156.6 89.3,152.7 95.4,155.3 99,156.3 100.3,158.2 86.9,158.7 		"/>
		<polygon class="st26" points="184.4,120.9 204.7,120.9 204.7,128.5 		"/>
		<polygon class="st12" points="184.4,120.9 185.5,120.8 204.7,128 204.7,129 		"/>
		<polyline class="st8" points="143.6,145.5 158.7,147.7 154.6,148.8 183.8,150.5 200.8,153.1 198.7,155.7 200.8,157.8 251.4,158.1 
			257.2,155.5 203,156.7 203,148.8 166.3,148.2 166.3,146.1 153.4,145.5 		"/>
	</g>
	<g>
		<g>
			<g>
				<path class="st27" d="M19,158.2c0,0,0.1-2.2-1.4-3.3c-0.7-0.5-2.4-0.8-2.4-0.8s-0.1-0.6-0.2-0.9c-0.1-0.2-1.7-0.8-1.7-0.9
					c0,0,1.3-1.1,1.1-2.2c0,0,0.3-0.9,0.1-1.4c-0.1-0.4,0.5-0.8,0.5-1.2c-0.2-0.7-0.3-1-0.3-1s0.4-1.7-0.3-2.4
					c-0.7-0.6-2.4-2.2-3.8-1.7c-1.4,0.6-2.1,0.6-2.8,1.8c-0.7,1.2-0.6,2.4-0.4,2.6c0.2,0.2-0.1,0.4,0.1,1.4c0.1,1,0.7,1.7,0.7,2.1
					c0.1,0.5,0.4,1.2,0.4,1.2s-1.6,0-1.8,0.3c-0.1,0.3-0.9,0.6-1.4,0.8c-0.5,0.2-0.4,0.5-0.4,0.5s-2.4-0.4-3.4,1.6
					C0.6,156.6,0,193,0,193l19.2-5.1L19,158.2z"/>
			</g>
		</g>
		<g>
			<g>
				<path class="st0" d="M69.9,177.5c0,0-0.2-3.8,2.2-5.6c1.2-0.9,3.8-1.4,3.8-1.4s0.1-0.9,0.2-1.4c0.1-0.3,2.7-1.3,2.8-1.5
					c0,0-2-1.9-1.7-3.7c0,0-0.5-1.6-0.2-2.3c0.2-0.7-0.9-1.4-0.7-2.1c0.3-1.2,0.4-1.6,0.4-1.6s-0.6-2.9,0.5-4s3.9-3.8,6-2.8
					c2.1,0.9,3.3,0.9,4.5,2.9c1.2,2,1,4.1,0.7,4.5c-0.3,0.4,0.1,0.6-0.1,2.3c-0.2,1.8-1,2.9-1.1,3.5c-0.2,0.8-0.6,2-0.6,2
					s2.6,0,2.8,0.5c0.2,0.6,1.4,1,2.2,1.4c0.8,0.4,0.7,0.9,0.7,0.9s3.9-0.6,5.4,2.6c1.5,3.2,1.3,13.2,1.3,13.2H69.1L69.9,177.5z"/>
			</g>
			<g>
				<path class="st27" d="M47.1,171.5c0,0-0.2-3.8,2.2-5.6c1.2-0.9,3.8-1.4,3.8-1.4s0.1-0.9,0.2-1.4c0.1-0.3,2.7-1.3,2.8-1.5
					c0,0-2-1.9-1.7-3.7c0,0-0.5-1.6-0.2-2.3c0.2-0.7-0.9-1.4-0.7-2.1c0.3-1.2,0.4-1.6,0.4-1.6s-0.6-2.9,0.5-4s3.9-3.8,6-2.8
					c2.1,0.9,3.3,0.9,4.5,2.9c1.2,2,1,4.1,0.7,4.5s0.1,0.6-0.1,2.3s-1,2.9-1.1,3.5c-0.2,0.8-0.6,2-0.6,2s2.6,0,2.8,0.5
					c0.2,0.6,1.4,1,2.2,1.4c0.8,0.4,0.7,0.9,0.7,0.9s3.9-0.6,5.4,2.6c1.5,3.2,1.3,13.2,1.3,13.2H46.3L47.1,171.5z"/>
			</g>
			<g>
				<path class="st28" d="M28.2,170.4c0,0-0.1-3.3,1.9-4.8c1-0.8,3.3-1.2,3.3-1.2s0.1-0.8,0.2-1.3c0.1-0.3,2.4-1.1,2.4-1.3
					c0,0-1.7-1.6-1.5-3.2c0,0-0.4-1.4-0.2-2c0.2-0.6-0.8-1.3-0.6-1.8c0.2-1.1,0.4-1.4,0.4-1.4s-0.5-2.5,0.4-3.5s3.4-3.3,5.2-2.4
					c1.8,0.8,2.9,0.8,3.9,2.5c1,1.8,0.8,3.5,0.6,3.9c-0.3,0.3,0.1,0.5-0.1,2c-0.2,1.5-0.9,2.5-1,3c-0.1,0.7-0.5,1.7-0.5,1.7
					s2.3,0,2.4,0.4c0.2,0.5,1.3,0.8,1.9,1.2c0.7,0.3,0.6,0.8,0.6,0.8s3.4-0.5,4.7,2.3c1.3,2.8,1.2,22.9,1.2,22.9l-25.9-0.4
					L28.2,170.4z"/>
			</g>
			<g>
				<path class="st0" d="M43,192.6c0,0-1.4-6.2-4.8-8.8c-1.7-1.3-5.5-2-5.5-2s-0.2-1.3-0.4-2.1c-0.1-0.4-4-1.8-4-2.2
					c0,0,2.9-2.7,2.4-5.3c0,0,0.7-2.3,0.4-3.3c-0.3-1,1.3-2.1,1.1-3c-0.4-1.7-0.6-2.3-0.6-2.3s0.9-4.1-0.7-5.7
					c-1.6-1.5-5.6-5.4-8.8-4.1s-4.9,1.3-6.6,4.2s-1.4,5.8-1,6.4c0.4,0.6-0.1,0.9,0.1,3.3s1.5,4.1,1.7,5c0.2,1.2,0.8,2.9,0.8,2.9
					s-3.8,0-4.1,0.8c-0.3,0.8-2.1,1.4-3.2,2c-1.1,0.6-1,1.2-1,1.2s-5.6-0.9-7.8,3.7s-1,67.9-1,67.9l46.2,1.1L43,192.6z"/>
			</g>
			<g>
				<path class="st0" d="M41.5,189.9c0,0-0.2-5.6,3.3-8.4c1.7-1.3,5.8-2.1,5.8-2.1s0.2-1.4,0.4-2.2c0.1-0.5,4.2-1.9,4.2-2.3
					c0,0-3-2.8-2.5-5.5c0,0-0.8-2.4-0.4-3.5c0.4-1.1-1.3-2.1-1.1-3.1c0.4-1.8,0.7-2.4,0.7-2.4s-0.9-4.3,0.8-6
					c1.7-1.6,5.9-5.6,9.1-4.3c3.2,1.4,5,1.4,6.8,4.4c1.8,3,1.4,6.1,1,6.7c-0.5,0.6,0.2,0.9-0.1,3.5c-0.3,2.6-1.6,4.3-1.7,5.2
					c-0.2,1.3-0.9,3-0.9,3s4,0,4.3,0.8c0.3,0.8,2.2,1.5,3.3,2.1c1.1,0.6,1,1.3,1,1.3s9.2,2.4,11.5,7.2c2.3,4.8,2.2,47.5,2.2,47.5
					H40.3L41.5,189.9z"/>
			</g>
			<g>
				<path class="st0" d="M86.8,184.3c0,0-0.2-4.1,2.2-6c1.2-0.9,3.8-1.5,3.8-1.5s0.1-1,0.2-1.6c0.1-0.3,2.7-1.4,2.8-1.6
					c0,0-2-2-1.7-4c0,0-0.5-1.7-0.2-2.5c0.2-0.8-0.9-1.5-0.7-2.2c0.3-1.3,0.4-1.8,0.4-1.8s-0.6-3.1,0.5-4.3s3.9-4,6-3.1
					c2.1,1,3.3,1,4.5,3.2c1.2,2.2,1,4.4,0.7,4.8c-0.3,0.4,0.1,0.6-0.1,2.5s-1,3.1-1.1,3.8c-0.2,0.9-0.6,2.1-0.6,2.1s2.6,0,2.8,0.6
					c0.2,0.6,1.4,1.1,2.2,1.5c0.8,0.4,0.7,0.9,0.7,0.9s3.9-0.6,5.4,2.8c1.5,3.5,1.7,53.8,1.7,53.8H86.3L86.8,184.3z"/>
			</g>
		</g>
		<path class="st27" d="M40.4,145.5c-3.4-0.9-6.5,0.2-6.9,2.5c-0.1,0.2-0.1,0.5-0.1,0.7l-2.4,1.8c-0.6,0.4-0.4,1.5,0.3,1.6l2.7,0.5
			c0.4,0.1,0.8-0.3,0.8-0.9v-0.1c1,0.9,2.3,1.8,3.8,2.2c3.4,0.9,6.5-0.2,6.9-2.5C46.2,149.1,43.8,146.5,40.4,145.5z"/>
		<path class="st27" d="M9.7,142.1c2.3-0.6,4.4,0.1,4.7,1.7c0,0.2,0,0.3,0,0.5l1.6,1.3c0.4,0.3,0.3,1.1-0.2,1.1L14,147
			c-0.3,0.1-0.6-0.2-0.6-0.6v0c-0.7,0.6-1.6,1.2-2.6,1.5c-2.3,0.6-4.4-0.1-4.7-1.7C5.8,144.6,7.4,142.7,9.7,142.1z"/>
	</g>
	<g>
		<g>
			<g>
				<path class="st28" d="M175.8,169.9c0,0-0.1-2.9,1.9-4.3c1-0.7,3.3-1.1,3.3-1.1s0.1-0.7,0.2-1.1c0.1-0.3,2.4-1,2.4-1.2
					c0,0-1.7-1.4-1.4-2.8c0,0-0.4-1.2-0.2-1.8c0.2-0.6-0.7-1.1-0.6-1.6c0.2-0.9,0.4-1.3,0.4-1.3s-0.5-2.2,0.4-3s3.3-2.9,5.2-2.2
					c1.8,0.7,2.9,0.7,3.9,2.3c1,1.5,0.8,3.1,0.6,3.4c-0.2,0.3,0.1,0.4-0.1,1.8c-0.2,1.3-0.9,2.2-1,2.7c-0.1,0.6-0.5,1.5-0.5,1.5
					s2.3,0,2.4,0.4c0.2,0.4,1.3,0.8,1.9,1c0.7,0.3,0.6,0.7,0.6,0.7s3.3-0.4,4.6,2c1.3,2.4,1.5,26,1.5,26h-25.7L175.8,169.9z"/>
			</g>
			<g>
				<path class="st27" d="M141.8,170.2c0,0-0.1-2.9,1.9-4.3c1-0.7,3.3-1.1,3.3-1.1s0.1-0.7,0.2-1.1c0.1-0.3,2.4-1,2.4-1.2
					c0,0-1.7-1.4-1.4-2.8c0,0-0.4-1.2-0.2-1.8c0.2-0.5-0.7-1.1-0.6-1.6c0.2-0.9,0.4-1.3,0.4-1.3s-0.5-2.2,0.4-3s3.3-2.9,5.2-2.2
					c1.8,0.7,2.9,0.7,3.9,2.3c1,1.5,0.8,3.1,0.6,3.4c-0.2,0.3,0.1,0.4-0.1,1.8c-0.2,1.3-0.9,2.2-1,2.7c-0.1,0.6-0.5,1.5-0.5,1.5
					s2.3,0,2.4,0.4c0.2,0.4,1.3,0.8,1.9,1s0.6,0.7,0.6,0.7s3.3-0.4,4.6,2c1.3,2.4,0.6,38.1,0.6,38.1h-25.7L141.8,170.2z"/>
			</g>
			<g>
				<path class="st28" d="M115.9,171.1c0,0-0.2-3.3,2.2-5c1.2-0.8,3.8-1.2,3.8-1.2s0.1-0.8,0.2-1.3c0.1-0.3,2.7-1.1,2.8-1.4
					c0,0-2-1.7-1.7-3.3c0,0-0.5-1.4-0.2-2.1c0.2-0.6-0.9-1.3-0.7-1.8c0.3-1.1,0.4-1.4,0.4-1.4s-0.6-2.6,0.5-3.5c1.1-1,3.9-3.3,6-2.5
					c2.1,0.8,3.3,0.8,4.5,2.6c1.2,1.8,1,3.6,0.7,4c-0.3,0.3,0.1,0.5-0.1,2.1c-0.2,1.6-1,2.6-1.1,3.1c-0.2,0.7-0.6,1.8-0.6,1.8
					s2.6,0,2.8,0.5c0.2,0.5,1.4,0.9,2.2,1.2c0.8,0.3,0.7,0.8,0.7,0.8s3.9-0.5,5.4,2.3c1.5,2.8,4,39,4,39l-34.9,3.6L115.9,171.1z"/>
			</g>
			<g>
				<path class="st0" d="M154.2,171.1c0,0-0.2-3.3,2.2-5c1.2-0.8,3.8-1.2,3.8-1.2s0.1-0.8,0.2-1.3c0.1-0.3,2.7-1.1,2.8-1.4
					c0,0-2-1.7-1.7-3.3c0,0-0.5-1.4-0.2-2.1c0.2-0.6-0.9-1.3-0.7-1.8c0.3-1.1,0.4-1.4,0.4-1.4s-0.6-2.6,0.5-3.5c1.1-1,3.9-3.3,6-2.5
					c2.1,0.8,3.3,0.8,4.5,2.6c1.2,1.8,1,3.6,0.7,4c-0.3,0.3,0.1,0.5-0.1,2.1c-0.2,1.6-1,2.6-1.1,3.1c-0.2,0.7-0.6,1.8-0.6,1.8
					s2.6,0,2.8,0.5c0.2,0.5,1.4,0.9,2.2,1.2c0.8,0.3,0.7,0.8,0.7,0.8s3.9-0.5,5.4,2.3c1.5,2.8,1.3,27.9,1.3,27.9l-29.1,16.1
					L154.2,171.1z"/>
			</g>
		</g>
		<g>
			<g>
				<path class="st0" d="M243.2,173.6c0,0-0.2-3.8,2.5-5.6c1.3-0.9,4.3-1.4,4.3-1.4s0.2-0.9,0.3-1.4c0.1-0.3,3.1-1.3,3.1-1.5
					c0,0-2.3-1.9-1.9-3.7c0,0-0.6-1.6-0.3-2.3c0.3-0.7-1-1.4-0.8-2.1c0.3-1.2,0.5-1.6,0.5-1.6s-0.7-2.9,0.6-4
					c1.2-1.1,4.4-3.8,6.8-2.8c2.4,0.9,3.8,0.9,5.1,2.9c1.4,2,1.1,4.1,0.7,4.5c-0.3,0.4,0.1,0.6-0.1,2.3c-0.2,1.8-1.2,2.9-1.3,3.5
					c-0.2,0.8-0.7,2-0.7,2s3,0,3.2,0.5c0.2,0.6-0.4,1,0.5,1.4c0.8,0.4,0.7,0.9,0.7,0.9s4.4-0.6,6.1,2.6c1.7,3.2,0.1,59.6,0.1,59.6
					h-31.5L243.2,173.6z"/>
			</g>
			<g>
				<path class="st27" d="M221.4,177.1c0,0-0.2-3.8,2.5-5.6c1.3-0.9,4.3-1.4,4.3-1.4s0.2-0.9,0.3-1.4c0.1-0.3,3.1-1.3,3.1-1.5
					c0,0-2.3-1.9-1.9-3.7c0,0-0.6-1.6-0.3-2.3c0.3-0.7-1-1.4-0.8-2.1c0.3-1.2,0.5-1.6,0.5-1.6s-0.7-2.9,0.6-4
					c1.2-1.1,4.4-3.8,6.8-2.8c2.4,0.9,3.8,0.9,5.1,2.9c1.4,2,1.1,4.1,0.7,4.5c-0.3,0.4,0.1,0.6-0.1,2.3c-0.2,1.8-1.2,2.9-1.3,3.5
					c-0.2,0.8-0.7,2-0.7,2s3,0,3.2,0.5c0.2,0.6,1.6,1,2.5,1.4c0.8,0.4,0.7,0.9,0.7,0.9s4.4-0.6,6.1,2.6c1.7,3.2,2.5,20.2,2.5,20.2
					l-34.1-2.1L221.4,177.1z"/>
			</g>
			<g>
				<path class="st28" d="M206.8,179.5c0,0-0.2-3.3,2.1-4.8c1.1-0.8,3.7-1.2,3.7-1.2s0.1-0.8,0.2-1.3c0.1-0.3,2.7-1.1,2.7-1.3
					c0,0-2-1.6-1.6-3.2c0,0-0.5-1.4-0.2-2s-0.8-1.3-0.7-1.8c0.3-1.1,0.4-1.4,0.4-1.4s-0.6-2.5,0.5-3.5s3.8-3.3,5.9-2.4
					c2.1,0.8,3.3,0.8,4.4,2.5c1.2,1.8,0.9,3.5,0.6,3.9c-0.3,0.3,0.1,0.5-0.1,2c-0.2,1.5-1,2.5-1.1,3c-0.1,0.7-0.6,1.7-0.6,1.7
					s2.6,0,2.7,0.4c0.2,0.5,1.4,0.8,2.1,1.2c0.7,0.3,0.6,0.8,0.6,0.8s3.8-0.5,5.2,2.3c1.5,2.8,0.4,32.3,0.4,32.3H206L206.8,179.5z"
					/>
			</g>
			<g>
				<path class="st0" d="M185.1,188c0,0-0.2-4.3,2.9-6.5c1.5-1,5-1.6,5-1.6s0.2-1.1,0.3-1.7c0.1-0.4,3.6-1.5,3.6-1.8
					c0,0-2.6-2.2-2.2-4.3c0,0-0.7-1.9-0.3-2.7c0.3-0.8-1.1-1.7-1-2.4c0.4-1.4,0.5-1.9,0.5-1.9s-0.8-3.3,0.7-4.6
					c1.4-1.3,5.1-4.3,7.9-3.3c2.8,1.1,4.3,1.1,5.9,3.4c1.5,2.3,1.2,4.7,0.8,5.2c-0.4,0.4,0.1,0.7-0.1,2.7c-0.2,2-1.4,3.3-1.5,4
					c-0.2,0.9-0.8,2.3-0.8,2.3s3.4,0,3.7,0.6s1.9,1.1,2.9,1.6c1,0.4,0.8,1,0.8,1s5.1-0.7,7,3c2,3.7,1.1,51.4,1.1,51.4l-38.9-0.4
					L185.1,188z"/>
			</g>
			<g>
				<path class="st0" d="M160.2,187.8c0,0,1.3-5,4.3-7.1c1.5-1,5-1.6,5-1.6s0.2-1.1,0.3-1.7c0.1-0.4,3.6-1.5,3.6-1.8
					c0,0-2.6-2.2-2.2-4.3c0,0-0.7-1.9-0.3-2.7c0.3-0.8-1.1-1.7-1-2.4c0.4-1.4,0.5-1.9,0.5-1.9s-0.8-3.3,0.7-4.6
					c1.4-1.3,5.1-4.3,7.9-3.3c2.8,1.1,4.3,1.1,5.9,3.4c1.6,2.3,1.2,4.7,0.8,5.2c-0.4,0.4,0.1,0.7-0.1,2.7c-0.2,2-1.4,3.3-1.5,4
					c-0.2,0.9-0.8,2.3-0.8,2.3s3.4,0,3.7,0.6c0.3,0.6,1.9,1.1,2.9,1.6c1,0.4,0.8,1,0.8,1s5.1-0.7,7,3c2,3.7,1.7,48.7,1.7,48.7
					l-45.5,3.2L160.2,187.8z"/>
			</g>
			<g>
				<path class="st0" d="M104,204.2c0,0,1.8-7.1,6.2-10.1c2.2-1.5,7.1-2.3,7.1-2.3s0.2-1.5,0.5-2.4c0.2-0.5,5.1-2.1,5.1-2.5
					c0,0-3.7-3.1-3.1-6c0,0-0.9-2.6-0.5-3.8c0.5-1.1-1.6-2.4-1.4-3.4c0.5-2,0.8-2.7,0.8-2.7s-1.1-4.7,0.9-6.5
					c2-1.8,7.2-6.2,11.2-4.7s6.2,1.5,8.4,4.8c2.2,3.3,1.7,6.7,1.2,7.3c-0.5,0.6,0.2,1-0.2,3.8c-0.4,2.8-1.9,4.7-2.1,5.7
					c-0.3,1.3-1.1,3.3-1.1,3.3s4.9,0,5.2,0.9c0.4,0.9,2.7,1.6,4,2.3c1.4,0.6,1.2,1.4,1.2,1.4s7.2-1,10,4.3
					c2.8,5.3,2.4,49.9,2.4,49.9l-64.6,4.5L104,204.2z"/>
			</g>
			<g>
				<path class="st0" d="M221.8,198.9c0,0-0.3-5.6,3.7-8.4c2-1.3,6.5-2.1,6.5-2.1s0.2-1.4,0.4-2.2c0.1-0.5,4.7-1.9,4.7-2.3
					c0,0-3.4-2.8-2.9-5.5c0,0-0.8-2.4-0.4-3.5c0.4-1.1-1.5-2.1-1.2-3.1c0.5-1.8,0.7-2.4,0.7-2.4s-1-4.3,0.8-6
					c1.9-1.6,6.6-5.6,10.2-4.3c3.6,1.4,5.7,1.4,7.7,4.4c2,3,1.6,6.1,1.1,6.7c-0.5,0.6,0.2,0.9-0.2,3.5c-0.3,2.6-1.8,4.3-2,5.2
					c-0.3,1.3-1,3-1,3s4.5,0,4.8,0.8c0.3,0.8,2.4,1.5,3.7,2.1c1.3,0.6,1.1,1.3,1.1,1.3s8.4,2.4,10.9,7.2c2.5,4.8,2.4,38.8,2.4,38.8
					h-52.6L221.8,198.9z"/>
			</g>
		</g>
		<path class="st27" d="M237.7,150c-3.8-0.9-7.3,0.2-7.7,2.5c-0.1,0.2-0.1,0.5-0.1,0.7l-2.6,1.8c-0.7,0.4-0.4,1.5,0.3,1.6l3.1,0.5
			c0.5,0.1,1-0.3,1-0.9v-0.1c1.1,0.9,2.6,1.8,4.3,2.2c3.8,0.9,7.3-0.2,7.7-2.5C244.2,153.6,241.5,150.9,237.7,150z"/>
		<path class="st27" d="M258.9,145.8c-4-1-7.7,0.2-8.2,2.7c-0.1,0.2-0.1,0.5-0.1,0.7l-2.8,2c-0.7,0.5-0.5,1.6,0.3,1.7l6.1,0.3
			c0.5,0.1-1.8-0.1-1.8-0.7v0c1.2,1,2.7,1.9,4.6,2.3c4,1,7.7-0.2,8.2-2.7C265.8,149.7,263,146.8,258.9,145.8z"/>
		<path class="st27" d="M188.1,148.2c-2.6-0.7-5,0.1-5.4,1.8c0,0.2-0.1,0.3,0,0.5l-1.8,1.3c-0.4,0.3-0.3,1.1,0.2,1.2l3.9,0.2
			c0.4,0.1-1.1-0.1-1.1-0.5v0c0.7,0.7,1.8,1.3,3,1.6c2.6,0.7,5-0.1,5.4-1.8C192.6,150.8,190.8,148.9,188.1,148.2z"/>
	</g>
</g>
<g id="Layer_9">
	<g>
		<g class="st29">
			<path class="st30" d="M190.5,30.2v-4.7h1c0.4,0,0.7,0.1,0.9,0.3c0.2,0.2,0.3,0.5,0.3,0.9v2.2c0,0.4-0.1,0.8-0.3,1
				c-0.2,0.2-0.5,0.3-0.9,0.3L190.5,30.2L190.5,30.2z M191.2,26.1v3.4h0.3c0.2,0,0.3-0.1,0.4-0.2c0.1-0.1,0.1-0.3,0.1-0.5v-2.3
				c0-0.2,0-0.3-0.1-0.4s-0.2-0.2-0.4-0.2H191.2z"/>
			<path class="st30" d="M195.4,25.5v3.6c0,0.2,0,0.3-0.1,0.4c0,0.1-0.1,0.3-0.2,0.4c-0.1,0.1-0.2,0.2-0.3,0.2
				c-0.1,0.1-0.3,0.1-0.4,0.1s-0.3,0-0.4-0.1c-0.1-0.1-0.2-0.1-0.3-0.2c-0.1-0.1-0.2-0.2-0.2-0.4c0-0.1-0.1-0.3-0.1-0.4v-3.6h0.7
				v3.6c0,0.2,0,0.3,0.1,0.4c0.1,0.1,0.2,0.1,0.3,0.1s0.2-0.1,0.3-0.1c0.1-0.1,0.1-0.2,0.1-0.4v-3.6H195.4z"/>
			<path class="st30" d="M196,30.2v-4.7h1.1c0.8,0,1.2,0.5,1.2,1.4c0,0.3,0,0.5-0.1,0.7c-0.1,0.2-0.2,0.4-0.4,0.5l0.7,2.2h-0.7
				l-0.6-2h-0.4v2L196,30.2L196,30.2z M196.7,26.1v1.5h0.4c0.1,0,0.2,0,0.3-0.1c0.1,0,0.1-0.1,0.2-0.2c0-0.1,0-0.1,0.1-0.2
				c0-0.1,0-0.2,0-0.3c0-0.1,0-0.2,0-0.3c0-0.1,0-0.2-0.1-0.2c-0.1-0.1-0.2-0.2-0.5-0.2L196.7,26.1L196.7,26.1z"/>
			<path class="st30" d="M198.7,30.2v-4.7h0.7v2.2h0l1-2.2h0.7l-0.9,1.9l1.1,2.8h-0.7l-0.7-2.1l-0.3,0.7v1.4
				C199.5,30.2,198.7,30.2,198.7,30.2z"/>
			<path class="st30" d="M201.5,30.2v-4.7h0.7v2h0.8v-2h0.7v4.7H203v-2.1h-0.8v2.1H201.5z"/>
			<path class="st30" d="M204.2,30.2v-4.7h2v0.6h-1.3v1.4h1.1v0.6h-1.1v1.4h1.3v0.7L204.2,30.2L204.2,30.2z"/>
			<path class="st30" d="M206.6,30.2v-4.7h0.7v4.7C207.3,30.2,206.6,30.2,206.6,30.2z"/>
			<path class="st30" d="M207.9,30.2v-4.7h0.6l0.8,2.5h0l0.8-2.5h0.6v4.7h-0.7v-2.9h0l-0.6,2h-0.3l-0.6-2h0v2.9H207.9z"/>
		</g>
		<g class="st29">
			<path class="st30" d="M191.7,24.1v-3.7h1.6v0.5h-1V22h0.9v0.5h-0.9v1.1h1v0.5L191.7,24.1L191.7,24.1z M192.2,20.2l0.5-0.7h0.6
				l-0.7,0.7H192.2z"/>
			<path class="st30" d="M193.6,24.1v-2.7h0.5v0.3l0,0c0-0.1,0.1-0.2,0.2-0.2s0.2-0.1,0.3-0.1s0.2,0,0.3,0.1
				c0.1,0.1,0.1,0.1,0.2,0.2c0.1-0.1,0.1-0.1,0.2-0.2c0.1-0.1,0.2-0.1,0.3-0.1c0.1,0,0.1,0,0.2,0s0.1,0.1,0.2,0.1
				c0,0.1,0.1,0.1,0.1,0.2s0,0.2,0,0.3v2h-0.5v-1.8c0-0.1,0-0.2-0.1-0.2c0-0.1-0.1-0.1-0.2-0.1s-0.2,0-0.2,0.1c0,0.1,0,0.2,0,0.3
				v1.8h-0.5v-1.8c0-0.1,0-0.2-0.1-0.2c0-0.1-0.1-0.1-0.2-0.1s-0.2,0-0.2,0.1c0,0.1,0,0.2,0,0.3v1.8L193.6,24.1L193.6,24.1z"/>
			<path class="st30" d="M196.7,20.9v-0.5h0.5v0.5H196.7z M196.7,24.1v-2.7h0.5v2.7H196.7z"/>
			<path class="st30" d="M197.6,20.4h0.5v3c0,0.1,0,0.2,0,0.2s0.1,0.1,0.2,0.1v0.5c-0.1,0-0.2,0-0.3,0c-0.1,0-0.2-0.1-0.2-0.1
				c-0.1-0.1-0.1-0.1-0.1-0.2s0-0.2,0-0.4V20.4z"/>
			<path class="st30" d="M200.1,23h-1v0.4c0,0.1,0,0.2,0.1,0.2c0,0.1,0.1,0.1,0.2,0.1s0.2,0,0.2-0.1c0-0.1,0-0.1,0-0.2h0.5
				c0,0.2-0.1,0.4-0.2,0.6c-0.1,0.1-0.1,0.1-0.2,0.2c-0.1,0.1-0.2,0.1-0.3,0.1c-0.2,0-0.3,0-0.4-0.1s-0.2-0.2-0.3-0.3
				c0-0.1-0.1-0.2-0.1-0.3c0-0.1,0-0.2,0-0.3v-0.9c0-0.1,0-0.2,0-0.3c0-0.1,0-0.2,0.1-0.3c0.1-0.1,0.1-0.2,0.3-0.3s0.2-0.1,0.4-0.1
				c0.1,0,0.2,0,0.3,0.1s0.2,0.1,0.2,0.2c0.1,0.2,0.2,0.4,0.2,0.6L200.1,23L200.1,23z M199.1,22.6h0.5v-0.3c0-0.1,0-0.2-0.1-0.2
				c0-0.1-0.1-0.1-0.2-0.1c-0.1,0-0.1,0-0.2,0.1c0,0.1-0.1,0.1-0.1,0.2L199.1,22.6L199.1,22.6z"/>
		</g>
	</g>
	<g>
		<g class="st29">
			<path class="st30" d="M127.3,27.6v-4.7h0.6l0.8,2.5h0l0.8-2.5h0.6v4.7h-0.7v-2.9l0,0l-0.6,2h-0.3l-0.6-2h0v2.9
				C128,27.6,127.3,27.6,127.3,27.6z"/>
			<path class="st30" d="M130.6,27.6l1-4.7h0.5l1,4.7h-0.7l-0.2-1h-0.9l-0.2,1H130.6z M132.3,26l-0.3-1.7h0l-0.3,1.7H132.3z"/>
			<path class="st30" d="M133.5,27.6v-4.7h1.1c0.8,0,1.2,0.5,1.2,1.4c0,0.3,0,0.5-0.1,0.7s-0.2,0.4-0.4,0.5l0.7,2.2h-0.7l-0.6-2
				h-0.4v2L133.5,27.6L133.5,27.6z M134.2,23.6V25h0.4c0.1,0,0.2,0,0.3-0.1c0.1,0,0.1-0.1,0.2-0.2c0-0.1,0-0.1,0.1-0.2s0-0.2,0-0.3
				s0-0.2,0-0.3c0-0.1,0-0.2-0.1-0.2c-0.1-0.1-0.2-0.2-0.5-0.2L134.2,23.6L134.2,23.6z"/>
			<path class="st30" d="M136,27.6l0.9-2.5L136,23h0.7l0.5,1.4l0.5-1.4h0.7l-0.9,2.2l0.9,2.5h-0.7l-0.6-1.6l-0.6,1.6H136z"/>
		</g>
		<g class="st29">
			<path class="st30" d="M128.6,21.6v-3.8h0.5v1.7l0,0l0.8-1.7h0.5l-0.7,1.5l0.8,2.3h-0.6l-0.6-1.7l-0.3,0.6v1.1L128.6,21.6
				L128.6,21.6z"/>
			<path class="st30" d="M131.7,21.6v-0.3l0,0c-0.1,0.1-0.1,0.2-0.2,0.2c-0.1,0.1-0.2,0.1-0.3,0.1c-0.1,0-0.1,0-0.2,0
				c-0.1,0-0.1-0.1-0.2-0.1s-0.1-0.1-0.1-0.2c0-0.1,0-0.2,0-0.4c0-0.2,0-0.3,0-0.4c0-0.1,0.1-0.2,0.1-0.3c0.1-0.1,0.1-0.1,0.2-0.2
				c0.1,0,0.2-0.1,0.4-0.1c0,0,0,0,0,0c0,0,0,0,0,0c0,0,0,0,0.1,0s0,0,0.1,0v-0.3c0-0.1,0-0.2,0-0.2c0-0.1-0.1-0.1-0.2-0.1
				c-0.1,0-0.1,0-0.2,0.1c0,0.1-0.1,0.1-0.1,0.2h-0.5c0-0.2,0.1-0.4,0.2-0.6c0.1-0.1,0.1-0.1,0.2-0.2c0.1-0.1,0.2-0.1,0.3-0.1
				c0.1,0,0.2,0,0.3,0.1s0.2,0.1,0.2,0.2c0.1,0.1,0.1,0.2,0.2,0.3c0,0.1,0.1,0.2,0.1,0.4v1.9L131.7,21.6L131.7,21.6z M131.7,20.4
				c0,0-0.1,0-0.1,0c-0.1,0-0.2,0-0.3,0.1c-0.1,0.1-0.1,0.2-0.1,0.3c0,0.1,0,0.2,0.1,0.3s0.1,0.1,0.2,0.1c0.1,0,0.1,0,0.2-0.1
				c0-0.1,0.1-0.2,0.1-0.3L131.7,20.4L131.7,20.4z"/>
			<path class="st30" d="M132.7,21.6v-2.7h0.5v0.3c0.1-0.1,0.2-0.2,0.3-0.2c0.1-0.1,0.2-0.1,0.4-0.1v0.6c0,0-0.1,0-0.1,0
				c0,0-0.1,0-0.2,0c-0.1,0-0.1,0.1-0.2,0.1c0,0.1-0.1,0.1-0.1,0.2c0,0.1,0,0.2,0,0.3v1.6L132.7,21.6L132.7,21.6z"/>
			<path class="st30" d="M134.1,17.8h0.5v3c0,0.1,0,0.2,0,0.2c0,0,0.1,0.1,0.2,0.1v0.5c-0.1,0-0.2,0-0.3,0c-0.1,0-0.2-0.1-0.2-0.1
				s-0.1-0.1-0.1-0.2s0-0.2,0-0.4V17.8z"/>
		</g>
	</g>
	<g>
		<g class="st29">
			<path class="st30" d="M66.3,22.7l-0.7,4.7H65l-0.5-3.1h0L64,27.4h-0.6l-0.7-4.7h0.7l0.3,3h0l0.5-3h0.5l0.5,3.1h0l0.3-3.1H66.3z"
				/>
			<path class="st30" d="M66.8,27.3v-4.7h2v0.6h-1.3v1.4h1.1v0.6h-1.1v1.4h1.3v0.7L66.8,27.3L66.8,27.3z"/>
			<path class="st30" d="M69.1,27.3v-4.7h1c0.2,0,0.4,0,0.5,0.1c0.1,0.1,0.3,0.2,0.4,0.3s0.2,0.2,0.2,0.4c0,0.2,0,0.3,0,0.5V24
				c0,0.1,0,0.2,0,0.3c0,0.1,0,0.2-0.1,0.2c-0.1,0.1-0.2,0.2-0.3,0.3c0.1,0.1,0.3,0.2,0.3,0.3c0.1,0.2,0.1,0.4,0.1,0.6v0.3
				c0,0.4-0.1,0.7-0.3,1c-0.2,0.2-0.5,0.3-0.9,0.3L69.1,27.3L69.1,27.3z M69.8,23.3v1.3h0.3c0.2,0,0.4-0.1,0.4-0.2
				c0.1-0.1,0.1-0.3,0.1-0.5s0-0.4-0.1-0.5s-0.2-0.2-0.4-0.2H69.8z M69.8,25.2v1.5h0.3c0.1,0,0.2,0,0.3-0.1c0.1-0.1,0.1-0.1,0.2-0.2
				s0.1-0.2,0.1-0.3s0-0.2,0-0.3c0-0.1,0-0.2,0-0.3s0-0.2-0.1-0.2c0-0.1-0.1-0.1-0.2-0.1c-0.1,0-0.2-0.1-0.3-0.1L69.8,25.2
				L69.8,25.2z"/>
			<path class="st30" d="M71.9,27.3v-4.7h2v0.6h-1.3v1.4h1.1v0.6h-1.1v1.4h1.3v0.7L71.9,27.3L71.9,27.3z"/>
			<path class="st30" d="M74.3,27.3v-4.7h1.1c0.8,0,1.2,0.5,1.2,1.4c0,0.3,0,0.5-0.1,0.7s-0.2,0.4-0.4,0.5l0.7,2.2h-0.7l-0.6-2h-0.4
				v2L74.3,27.3L74.3,27.3z M74.9,23.3v1.5h0.4c0.1,0,0.2,0,0.3-0.1c0.1,0,0.1-0.1,0.2-0.2c0-0.1,0-0.1,0.1-0.2s0-0.2,0-0.3
				c0-0.1,0-0.2,0-0.3c0-0.1,0-0.2-0.1-0.2c-0.1-0.1-0.2-0.2-0.5-0.2L74.9,23.3L74.9,23.3z"/>
		</g>
		<g class="st29">
			<path class="st30" d="M64.2,21.3v-3.8h0.5l0.7,2l0,0l0.7-2h0.5v3.8H66V19l0,0l-0.5,1.6h-0.3L64.7,19l0,0v2.3H64.2z"/>
			<path class="st30" d="M68,21.3V21l0,0c-0.1,0.1-0.1,0.2-0.2,0.2c-0.1,0.1-0.2,0.1-0.3,0.1c-0.1,0-0.1,0-0.2,0
				c-0.1,0-0.1-0.1-0.2-0.1c0-0.1-0.1-0.1-0.1-0.2s0-0.2,0-0.4c0-0.2,0-0.3,0-0.4s0.1-0.2,0.1-0.3c0.1-0.1,0.1-0.1,0.2-0.2
				c0.1,0,0.2-0.1,0.4-0.1c0,0,0,0,0,0c0,0,0,0,0,0c0,0,0,0,0.1,0s0,0,0.1,0v-0.3c0-0.1,0-0.2,0-0.2c0-0.1-0.1-0.1-0.2-0.1
				c-0.1,0-0.1,0-0.2,0.1c0,0.1-0.1,0.1-0.1,0.2H67c0-0.2,0.1-0.4,0.2-0.6c0.1-0.1,0.1-0.1,0.2-0.2c0.1-0.1,0.2-0.1,0.3-0.1
				c0.1,0,0.2,0,0.3,0.1c0.1,0,0.2,0.1,0.2,0.2s0.1,0.2,0.2,0.3s0.1,0.2,0.1,0.4v1.9L68,21.3L68,21.3z M68,20.1c0,0-0.1,0-0.1,0
				c-0.1,0-0.2,0-0.3,0.1c-0.1,0.1-0.1,0.2-0.1,0.3c0,0.1,0,0.2,0.1,0.3s0.1,0.1,0.2,0.1c0.1,0,0.1,0,0.2-0.1c0-0.1,0.1-0.2,0.1-0.3
				L68,20.1L68,20.1z"/>
			<path class="st30" d="M68.6,21.3l0.6-1.4l-0.6-1.3h0.6l0.3,0.8l0.3-0.8h0.6l-0.6,1.3l0.7,1.4h-0.6l-0.3-0.8l-0.3,0.8H68.6z"/>
		</g>
	</g>
</g>
<path class="st0" d="M98.1,91.7"/>
<g>
	<defs>
		<rect id="SVGID_1_" y="-137" width="273.1" height="599.5"/>
	</defs>
	<clipPath id="SVGID_00000008840668116721969810000010673030804336532666_">
		<use xlink:href="#SVGID_1_"  style="overflow:visible;"/>
	</clipPath>
	
		<rect x="-147.9" y="205.8" style="clip-path:url(#SVGID_00000008840668116721969810000010673030804336532666_);fill:#802521;" width="577.1" height="142.5"/>
</g>
</svg>
