<?xml version="1.0" encoding="utf-8"?>
<!-- Generator: Adobe Illustrator 28.0.0, SVG Export Plug-In . SVG Version: 6.00 Build 0)  -->
<svg version="1.1" xmlns="http://www.w3.org/2000/svg" xmlns:xlink="http://www.w3.org/1999/xlink" x="0px" y="0px"
	 viewBox="0 0 1359.1 689.8" style="enable-background:new 0 0 1359.1 689.8;" xml:space="preserve">
<style type="text/css">
	.st0{display:none;}
	.st1{display:inline;fill:#8C191B;}
	.st2{fill:#8C191B;}
	.st3{fill:#525252;}
	.st4{fill:#BAAE8D;}
	.st5{fill:#C9C4B9;}
	.st6{fill:#FFD591;}
	.st7{fill:#FEDFB3;}
	.st8{fill:#2D1B16;}
	.st9{fill:#F68D56;}
	.st10{fill:#391513;}
	.st11{stroke:#686767;stroke-width:2;stroke-miterlimit:10;}
	.st12{fill:#CE6B44;}
	.st13{fill:#E2AA96;}
	.st14{fill:#E29D84;}
	.st15{fill:#6F6F6F;stroke:#686767;stroke-width:2;stroke-miterlimit:10;}
	.st16{fill:#423540;}
	.st17{fill:#DA7648;}
	.st18{fill:#3A1514;}
	.st19{fill:#471817;}
	.st20{fill:#2C1212;}
	.st21{fill:#522121;}
	.st22{fill:#B08564;}
	.st23{fill:#CA6E49;}
	.st24{fill:#391513;stroke:#58595B;stroke-miterlimit:10;}
	.st25{fill:#C0755F;}
	.st26{fill:#6F6F6F;}
	.st27{fill:#B21F24;}
	.st28{fill:#A11D21;}
	.st29{display:inline;}
	.st30{fill:#75161C;}
	.st31{fill:#FEDFB2;}
	.st32{fill:#BE2026;}
</style>
<g id="Layer_2">
</g>
<g id="Layer_7" class="st0">
	<rect x="1.3" y="-87.8" class="st1" width="1357.2" height="787.2"/>
</g>
<g id="Layer_6">
	<path class="st2" d="M1358.1,634.9c0,0,7.9-252.8,6.8-263.9c-4-41.3-13.6-91.4-28.2-116.9c-27.3-47.5-98.2-38.7-98.2-38.7
		s1.8-7.3-11.8-12.9c-13.6-5.6-36.4-12.1-40-20.1c-3.6-8.1-13.1-14.5-13.1-14.5l-10.6-19.8l-20-5.7c0,0,7.3-6,17.3-8.4
		c10-2.4,9.1-12.9,12.7-38.7c3.6-25.8-10-30.6-4.5-36.3c5.5-5.6,10-36.3-11.8-66.1c-21.8-29.8-43.6-29.8-82.7-43.5S984-24.6,964-8.5
		C944,7.6,955,50.3,955,50.3s-1.8,6.4-7.7,24.2c-5.9,17.7,17.7,20.1,13.2,30.6c-4.5,10.5,4.5,34.2,4.5,34.2
		c-26.4,38.7-0.9,54.4-0.9,54.4c-30,32.2,0,33.8,0,33.8s-7.5,7.9-20.2,21.5c-4.1-4.6-8.8-8.6-14.1-11.8
		C877,205,807,212.3,812.5,206.6c5.5-5.6-17.3-22.6-11.6-27.4c5.7-4.8-2-19.3-0.3-25.5c1.7-6.1-3.5-10-0.6-20.5
		c2.9-10.5-6.6-16.1-2-22.6c4.5-6.4,0-21.8,0-21.8s-8.2-26.6-30-54c-21.8-27.4,0,0-33.6-38.7c-33.6-38.7-71.8-25-71.8-25
		s-20.9-15.3-91.8,31.4s-67.3,107.1-71.8,123.3c-4.5,16.1,18.2,15.3,21.5,27.7s22.1,17.4,34.8,26.3c12.7,8.9,22.7,5.6,22.7,5.6
		l-4.5,16.9l-37.3,20.9c0,0-90.9,34.6-125.5,40.3c-7,1.1-12.3,5.3-16.2,11.3l-42.2-12.6l-2.7-12.5c0,0,2.3-3.6,9.1-6.8
		c6.8-3.2,14.5-26.6,23.6-45.5c9.1-18.9,0-55.2,5-59.2c5-4,3.6-22.6,3.6-22.6l8.2-11.7l-4.5-8.5c7.3-13.7,4.1-32.6,4.1-32.6l6.4-9.3
		c-42.7-114-137.7-62-137.7-62c-27.7-4.8-59.1,31.8-59.1,31.8s-6,21.9-5.5,37.9c0.5,16,5.5,28.2,5.5,28.2c-7-3.6-11.8-2.8-11.8-2.8
		c-6.5,2.3-4.5,10.2-2.7,23c2,13.9,5.5,28,8.5,32.1c3,4.1,24.2,22.1,24.2,22.1l-12.3,30.3c-42.4,11-98.5,8.4-149.9,38.5
		C-1.2,271.2-1,366.4-1,366.4l1.9,268l345.9,2.3l419.6-6.9l260.9,3.9L1358.1,634.9z"/>
</g>
<g id="Layer_1">
	<g>
		<g>
			<g>
				<polygon points="914.1,397.6 906.5,397.6 906.5,280 912,280 				"/>
				<rect x="901.3" y="280" class="st3" width="5.4" height="117.6"/>
				<polygon class="st4" points="901.7,397.6 897.1,397.6 900,280 901.7,280 				"/>
				<rect x="901.7" y="280" class="st5" width="1.7" height="117.6"/>
				<rect x="898.2" y="278.2" width="14.8" height="1.7"/>
				<rect x="898.2" y="275.2" class="st5" width="14.8" height="3.1"/>
			</g>
			<rect x="899.6" y="295.8" class="st5" width="12.7" height="0.7"/>
			<rect x="899.6" y="310.3" class="st5" width="12.7" height="0.7"/>
			<rect x="899.6" y="324.7" class="st5" width="12.7" height="0.7"/>
			<rect x="899.6" y="339.2" class="st5" width="12.7" height="0.7"/>
		</g>
		<g>
			<g>
				<polygon points="883.8,393.4 876.2,393.4 876.2,225.8 881.6,225.8 				"/>
				<rect x="871" y="225.8" class="st3" width="5.4" height="167.6"/>
				<polygon class="st4" points="871.4,393.4 866.8,393.4 869.7,225.8 871.4,225.8 				"/>
				<rect x="871.4" y="225.8" class="st5" width="1.7" height="167.6"/>
				<rect x="867.8" y="224.1" width="14.8" height="1.7"/>
				<rect x="867.8" y="221" class="st5" width="14.8" height="3.1"/>
			</g>
			<rect x="869.3" y="241.6" class="st5" width="12.7" height="0.7"/>
			<rect x="869.3" y="256.1" class="st5" width="12.7" height="0.7"/>
			<rect x="869.3" y="270.6" class="st5" width="12.7" height="0.7"/>
			<rect x="869.3" y="285" class="st5" width="12.7" height="0.7"/>
		</g>
		<rect x="1.6" y="448.3" class="st6" width="1357.9" height="132.9"/>
		<path class="st7" d="M974.5,410.2c1.1,0,2.1,0.1,3.1,0.3c1-8.6,4.7-15.8,9.8-19.5h-25.1c-0.3-1.4-0.5-3-0.5-4.6
			c0-6.9,3.3-12.4,7.4-12.4c0.6,0,1.2,0.1,1.8,0.4c0.5-9.7,2.2-18,4.7-23h-0.4c-0.6-0.7-0.9-1.5-0.9-2.4c0-3.6,5.7-6.5,12.7-6.5
			c1,0,1.9,0.1,2.8,0.2c0.1-0.2,0.6-0.5,0.4-0.6c-12.6-6.6-29.4,7.5-24.5,5.1c0,0-13.4-1.1-6.7-10c6.7-8.9,29.3-4.1,23.7-3.3
			c-5.6,0.8-8.5-6.3-8.5-7.3c0-4.6,3.3-8.3,7.4-8.3c0.6,0,1.2,0.1,1.8,0.2c0.8-10.7,5.1-18.9,10.2-18.9c1.9,0,3.7,1.1,5.2,3.1
			c1.9-4.5,4.6-7.2,7.5-7.2c0.3,0,0.6,0,0.9,0.1c1.9-4.7,4.6-7.6,7.7-7.6c3.4,0,6.4,3.6,8.3,9.2c1.5-1.1,3.2-1.6,4.9-1.6
			c6.2,0,11.4,7.3,12.8,17.2c1.3-1.3,2.8-2,4.4-2c2.6,0,4.9,1.9,6.5,5c0.7-0.4,1.5-0.6,2.3-0.6c3.7,0,6.7,4.5,6.9,10.2
			c2-0.4,4.1-0.7,6.2-0.7c10.7,0,19.7,5.7,22.2,13.5c2.2-1,4.8-1.6,7.6-1.6c3.3,0,6.4,0.8,8.9,2.3c0.1,0,0.1,0,0.2,0
			c1.4-11.8,8.8-20.8,17.6-20.8c3.3,0,6.3,1.2,9,3.4c3.2-4.9,7.9-8,13-8c0.5,0,1,0,1.5,0.1c1.9-3,4.3-5.4,7.1-6.8
			c1.3-2.9,6.4-5,12.4-5c1.1,0,2.1,0.1,3.1,0.2c1.4-8.4,8.8-14.8,17.6-14.8c3.3,0,6.3,0.9,9,2.4c3.2-3.5,7.9-5.7,13-5.7
			c0.5,0,1,0,1.5,0.1c3.3-3.7,8-6,13.3-6c5.9,0,11.1,2.8,14.3,7.2c2.6-0.8,5.5-1.3,8.5-1.3c10.7,0,19.7,5.7,22.2,13.5
			c2.2-1,4.8-1.6,7.6-1.6c4.5,0,8.5,1.5,11.3,3.9c1.2-0.3,2.6-0.5,4-0.5c6.1,0,8.2,2.4,8.9,6.6l-0.3,147.9l-219.1,1.3
			c-0.9-2.7-1.5-5.5-1.5-8.6c0-11.4,7.3-20.8,16.9-22.9h-134c-0.6-1.1-0.9-2.3-0.9-3.6C961.7,414.6,967.4,410.2,974.5,410.2z
			 M1015.4,329.6c0.4,0.2,0.8,0.4,1.2,0.6c0.2-0.2,0.4-0.4,0.6-0.6H1015.4z M1117,351.3c0.4,0.1,0.8,0.1,1.2,0.2c0-0.1,0-0.1,0-0.2
			H1117z M1105.6,423.8c0-0.1,0-0.2,0-0.3h-1.2C1104.9,423.6,1105.3,423.7,1105.6,423.8z M1032.8,362.7c2.6,0,4.9,2.9,6.5,7.5
			c0.7-0.6,1.5-0.9,2.3-0.9c3.7,0,6.7,6.8,6.9,15.3c2-0.7,4.1-1,6.2-1c10.7,0,19.7,8.6,22.2,20.2c2.2-1.5,4.8-2.4,7.6-2.4
			c3.3,0,6.4,1.3,8.9,3.4c0.1,0,0.1,0,0.2,0c1.4-17.7,8.8-31.2,17.6-31.2c3.3,0,6.3,1.9,9,5.1c1.1-2.5,2.3-4.6,3.7-6.4h-30.1
			c-0.9-1.8-1.5-3.7-1.5-5.7c0-7.6,7.3-13.9,16.9-15.3h-83.7c1.4,4,2.4,9,3,14.4C1029.7,363.8,1031.2,362.7,1032.8,362.7z
			 M1004.1,391.9c0.2-0.3,0.4-0.6,0.6-1h-1.8C1003.3,391.3,1003.7,391.6,1004.1,391.9z"/>
		<path class="st7" d="M977.4,410.2c1.3,0,2.5,0.1,3.6,0.3c1.2-8.6,5.5-15.8,11.5-19.5h-29.4c-0.4-1.4-0.6-3-0.6-4.6
			c0-6.9,3.9-12.4,8.6-12.4c0.7,0,1.4,0.1,2.1,0.4c0.6-9.7,2.6-18,5.5-23h-0.5c-0.7-0.7-1-1.5-1-2.4c0-3.6,6.7-6.5,14.9-6.5
			c1.1,0,2.2,0.1,3.3,0.2c0.2-0.2,0.8-0.5,0.5-0.6c-14.8-6.6-34.4,7.5-28.7,5.1c0,0-15.7-1.1-7.8-10c7.8-8.9,34.3-4.1,27.8-3.3
			c-6.5,0.8-10-6.3-10-7.3c0-4.6,3.9-8.3,8.6-8.3c0.7,0,1.4,0.1,2.1,0.2c1-10.7,5.9-18.9,11.9-18.9c2.2,0,4.3,1.1,6.1,3.1
			c2.2-4.5,5.3-7.2,8.8-7.2c0.3,0,0.7,0,1,0.1c2.2-4.7,5.4-7.6,9-7.6c4,0,7.5,3.6,9.7,9.2c1.8-1.1,3.7-1.6,5.8-1.6
			c7.3,0,13.3,7.3,15,17.2c1.5-1.3,3.3-2,5.1-2c3,0,5.8,1.9,7.7,5c0.8-0.4,1.7-0.6,2.7-0.6c4.3,0,7.8,4.5,8.1,10.2
			c2.3-0.4,4.8-0.7,7.3-0.7c12.5,0,23,5.7,26,13.5c2.6-1,5.6-1.6,8.9-1.6c3.9,0,7.5,0.8,10.5,2.3c0.1,0,0.1,0,0.2,0
			c1.7-11.8,10.3-20.8,20.6-20.8c3.8,0,7.4,1.2,10.5,3.4c3.8-4.9,9.2-8,15.2-8c0.6,0,1.2,0,1.7,0.1c2.2-3,5.1-5.4,8.3-6.8
			c1.5-2.9,7.4-5,14.5-5c1.3,0,2.5,0.1,3.6,0.2c1.7-8.4,10.3-14.8,20.6-14.8c3.8,0,7.4,0.9,10.5,2.4c3.8-3.5,9.2-5.7,15.2-5.7
			c0.6,0,1.2,0,1.7,0.1c3.8-3.7,9.4-6,15.6-6c6.9,0,13,2.8,16.8,7.2c3.1-0.8,6.4-1.3,10-1.3c12.5,0,23,5.7,26,13.5
			c2.6-1,5.6-1.6,8.9-1.6c5.2,0,10,1.5,13.2,3.9c1.4-0.3,3-0.5,4.6-0.5c7.2,0,9.6,2.4,10.4,6.6l-0.4,147.9l-256.7,1.3
			c-1.1-2.7-1.7-5.5-1.7-8.6c0-11.4,8.5-20.8,19.8-22.9h-157c-0.7-1.1-1-2.3-1-3.6C962.5,414.6,969.2,410.2,977.4,410.2z
			 M1025.4,329.6c0.5,0.2,1,0.4,1.4,0.6c0.2-0.2,0.5-0.4,0.7-0.6H1025.4z M1144.4,351.3c0.5,0.1,0.9,0.1,1.4,0.2c0-0.1,0-0.1,0-0.2
			H1144.4z M1131.1,423.8c0-0.1,0-0.2,0-0.3h-1.4C1130.2,423.6,1130.6,423.7,1131.1,423.8z M1045.8,362.7c3,0,5.8,2.9,7.7,7.5
			c0.8-0.6,1.7-0.9,2.7-0.9c4.3,0,7.8,6.8,8.1,15.3c2.3-0.7,4.8-1,7.3-1c12.5,0,23,8.6,26,20.2c2.6-1.5,5.6-2.4,8.9-2.4
			c3.9,0,7.5,1.3,10.5,3.4c0.1,0,0.1,0,0.2,0c1.7-17.7,10.3-31.2,20.6-31.2c3.8,0,7.4,1.9,10.5,5.1c1.3-2.5,2.7-4.6,4.3-6.4h-35.2
			c-1.1-1.8-1.7-3.7-1.7-5.7c0-7.6,8.5-13.9,19.8-15.3h-98.1c1.6,4,2.9,9,3.5,14.4C1042.2,363.8,1043.9,362.7,1045.8,362.7z
			 M1012.2,391.9c0.2-0.3,0.5-0.6,0.7-1h-2.1C1011.2,391.3,1011.7,391.6,1012.2,391.9z"/>
		<polygon class="st8" points="787.4,410.4 854,378.1 961.7,419.9 957.2,478.1 787.4,476.1 		"/>
		<polygon class="st8" points="1180.7,429.3 1270.7,393 1359.6,448.3 1359.6,493.9 1180.7,495 		"/>
		<polygon class="st9" points="251.7,499.9 355,493.8 323.2,503.9 490.3,505.9 852.5,526.5 1053.7,537.5 1118.1,502.1 1139.4,500.8 
			1177.8,561.6 1359.6,581.3 712.4,581.3 483.3,549.8 540.2,532.9 359.9,514.8 		"/>
		<path class="st7" d="M398.2,362.5c-1.3,0-2.6,0.1-3.8,0.4c-1.2-10.5-5.7-19.2-11.9-23.7H413c0.4-1.7,0.6-3.6,0.6-5.6
			c0-8.3-4-15.1-9-15.1c-0.8,0-1.5,0.2-2.2,0.5c-0.6-11.8-2.7-21.8-5.7-28h0.5c0.7-0.9,1.1-1.9,1.1-2.9c0-4.4-6.9-7.9-15.5-7.9
			c-1.2,0-2.3,0.1-3.4,0.2c-0.2-0.2-0.8-0.6-0.5-0.7c15.4-8,35.7,9.1,29.8,6.2c0,0,16.3-1.3,8.1-12.1s-35.6-4.9-28.9-4
			s10.4-7.6,10.4-8.9c0-5.6-4-10.1-9-10.1c-0.8,0-1.5,0.1-2.2,0.3c-1-13-6.2-23-12.4-23c-2.3,0-4.5,1.4-6.3,3.8
			c-2.3-5.4-5.5-8.8-9.2-8.8c-0.4,0-0.7,0-1,0.1c-2.3-5.7-5.6-9.2-9.4-9.2c-4.1,0-7.8,4.4-10.1,11.2c-1.9-1.3-3.9-2-6-2
			c-7.5,0-13.9,8.9-15.6,20.9c-1.6-1.5-3.4-2.4-5.3-2.4c-3.2,0-6,2.3-8,6.1c-0.9-0.5-1.8-0.7-2.8-0.7c-4.5,0-8.1,5.5-8.4,12.4
			c-2.4-0.5-4.9-0.8-7.6-0.8c-13,0-23.9,7-27,16.4c-2.7-1.2-5.8-1.9-9.2-1.9c-4.1,0-7.8,1-10.9,2.7c-0.1,0-0.1,0-0.2,0
			c-1.8-14.4-10.7-25.3-21.4-25.3c-4,0-7.7,1.5-10.9,4.2c-3.9-6-9.6-9.7-15.8-9.7c-0.6,0-1.2,0-1.8,0.1c-2.3-3.7-5.3-6.5-8.6-8.3
			c-1.6-3.5-7.7-6.1-15.1-6.1c-1.3,0-2.6,0.1-3.8,0.2c-1.8-10.2-10.7-18-21.4-18c-4,0-7.7,1.1-10.9,3c-3.9-4.2-9.6-6.9-15.8-6.9
			c-0.6,0-1.2,0-1.8,0.1c-4-4.4-9.7-7.2-16.2-7.2c-7.2,0-13.5,3.5-17.5,8.8c-3.2-1-6.7-1.6-10.4-1.6c-13,0-23.9,7-27,16.4
			c-2.7-1.2-5.8-1.9-9.2-1.9c-5.4,0-10.3,1.8-13.7,4.7c-1.5-0.4-3.1-0.6-4.8-0.6c-7.5,0-10,2.9-10.8,8l0.4,179.7l266.6,1.6
			c1.1-3.2,1.8-6.7,1.8-10.4c0-13.8-8.8-25.3-20.5-27.8h163.1c0.7-1.4,1.1-2.8,1.1-4.4C413.6,367.8,406.7,362.5,398.2,362.5z
			 M348.3,264.6c-0.5,0.2-1,0.5-1.5,0.8c-0.2-0.3-0.5-0.5-0.8-0.8H348.3z M224.7,291c-0.5,0.1-0.9,0.1-1.4,0.2c0-0.1,0-0.2,0-0.2
			H224.7z M238.5,379.1c0-0.1,0-0.2,0-0.3h1.4C239.5,378.8,239,379,238.5,379.1z M327.1,304.8c-3.2,0-6,3.5-8,9.1
			c-0.9-0.7-1.8-1.1-2.8-1.1c-4.5,0-8.1,8.2-8.4,18.6c-2.4-0.8-4.9-1.2-7.6-1.2c-13,0-23.9,10.4-27,24.6c-2.7-1.8-5.8-2.9-9.2-2.9
			c-4.1,0-7.8,1.5-10.9,4.1c-0.1,0-0.1,0-0.2,0c-1.8-21.6-10.7-38-21.4-38c-4,0-7.7,2.3-10.9,6.2c-1.3-3-2.8-5.6-4.5-7.8H253
			c1.1-2.2,1.8-4.5,1.8-7c0-9.2-8.8-16.9-20.5-18.6h101.8c-1.7,4.9-3,10.9-3.6,17.5C330.9,306.2,329.1,304.8,327.1,304.8z
			 M362.1,340.3c-0.2-0.4-0.5-0.8-0.8-1.2h2.2C363,339.5,362.5,339.9,362.1,340.3z"/>
		<polygon class="st10" points="1.6,387.9 26.9,371.3 26.9,387.8 57.8,373.6 57.8,388.9 82.3,374.1 82.3,387.9 102.7,374.1 
			102.7,388.9 127.3,388.9 127.3,476.1 1.6,476.1 		"/>
		<polygon class="st11" points="466.5,307.4 488.6,288.7 488.6,307.2 515.5,291.3 515.5,308.5 537,291.8 537,307.4 554.8,291.8 
			554.8,308.5 576.3,308.5 576.3,407.1 466.5,407.1 		"/>
		<g>
			<polygon class="st11" points="109.8,282.8 109.8,479.7 167.3,479.7 167.3,283.3 141.2,274.5 			"/>
			<path class="st12" d="M167.3,279.7l-22.6-6.1l-3.5-0.1l-28,6.2l-3.5,0.8v199.3h3.5v-21.2l28-1v24.8h3.5v-24.8l22.6,1v21.2h2.9
				V280.8L167.3,279.7z M113.3,308.3l28-5.7v21.9l-28,5.2V308.3z M113.3,333.3l28-5.2v22.5l-28,4.3V333.3z M113.3,358.4l28-4.3v22.5
				l-28,3.4V358.4z M113.3,383.4l28-3.4v22.5l-28,2.4V383.4z M113.3,408.5l28-2.4v23l-28,1V408.5z M144.7,406.1l22.6,2.4v21.6
				l-22.6-1V406.1z M144.7,402.6v-22.5l22.6,3.3V405L144.7,402.6z M144.7,376.6v-22.5l22.6,4.2v21.6L144.7,376.6z M144.7,350.6
				v-22.4l22.6,5.2v21.5L144.7,350.6z M144.7,324.6v-21.9l22.6,5.6v21.5L144.7,324.6z M167.3,283.3v21.5l-22.6-5.6v-21.9
				L167.3,283.3z M141.2,277.1V299l-28,5.7v-21.5L141.2,277.1z M113.3,455.1v-21.6l28-1v21.6L113.3,455.1z M144.7,454.1v-21.6
				l22.6,1v21.6L144.7,454.1z"/>
			<line class="st11" x1="113.3" y1="304.7" x2="141.2" y2="277.1"/>
			<line class="st11" x1="141.2" y1="299" x2="113.3" y2="283.3"/>
			<line class="st11" x1="141.2" y1="324.1" x2="113.3" y2="308.3"/>
			<line class="st11" x1="141.2" y1="349.3" x2="113.3" y2="333.6"/>
			<line class="st11" x1="141.2" y1="376.2" x2="113.3" y2="358.8"/>
			<line class="st11" x1="141.2" y1="402.2" x2="113.3" y2="383.8"/>
			<line class="st11" x1="141.2" y1="428.9" x2="113.3" y2="408.9"/>
			<line class="st11" x1="113.3" y1="330" x2="141.2" y2="302.4"/>
			<line class="st11" x1="113.3" y1="355.2" x2="141.2" y2="327.6"/>
			<line class="st11" x1="113.3" y1="380.5" x2="141.2" y2="352.9"/>
			<line class="st11" x1="113.3" y1="405.8" x2="141.2" y2="379.2"/>
			<line class="st11" x1="113.3" y1="431" x2="141.2" y2="405.5"/>
			<line class="st11" x1="113.3" y1="456.2" x2="141.2" y2="431.7"/>
			<polygon class="st13" points="142.6,273.5 142.7,479.1 144.7,479.1 144.7,273.6 			"/>
		</g>
		<g>
			<polygon class="st12" points="167.9,312.2 292.1,269.8 435.3,289.7 435.3,404.1 297.1,404.1 169.2,391.8 			"/>
			<polygon class="st10" points="292.1,269.3 292.1,404.1 435.3,404.1 435.3,289.7 			"/>
		</g>
		<g>
			<polygon class="st12" points="143.8,362.3 197,348.2 240.6,357.1 240.6,487.3 190.6,487.3 144.3,473.9 			"/>
			<polygon class="st10" points="197,348.2 199.3,485 240.6,487.3 240.6,356.3 			"/>
		</g>
		<g>
			<polygon class="st14" points="226.3,330.4 271.3,313.9 323.2,323.5 323.2,491.8 273.1,491.8 226.8,477.3 			"/>
			<polygon class="st10" points="271.3,313.3 271.3,492.3 323.2,491.8 323.2,322.4 			"/>
		</g>
		<g>
			<polygon class="st12" points="139,403 286.6,374.1 457,391.9 457,493.9 286.3,493.9 140.5,482.9 			"/>
			<polygon class="st10" points="286.6,373.7 286.6,493.9 457,493.9 457,391.9 			"/>
		</g>
		<polygon class="st10" points="140,405.8 288.6,377.1 288,380.5 140,408.7 		"/>
		<polygon class="st13" points="142.7,416.9 282.8,395.4 282.1,398.7 142.7,419.9 		"/>
		<polygon class="st8" points="504.8,362.8 585.9,317.2 574,317.5 494.4,360.7 		"/>
		<rect x="508.9" y="376.2" class="st8" width="96.6" height="117.7"/>
		<polygon class="st10" points="143.8,418.9 281.2,398.7 281.2,411.5 143.4,425.7 		"/>
		<polygon class="st15" points="146.2,423.8 146.2,420.1 165.5,417.4 165.5,421.7 		"/>
		<polygon class="st15" points="168.4,421.4 168.4,416.6 187.7,414 187.7,419.6 		"/>
		<polygon class="st15" points="190.6,419.4 190.6,413.4 209.9,410.8 209.9,417.5 		"/>
		<polygon class="st10" points="190.6,487.3 190.6,453.5 220.8,450.5 220.8,488.9 		"/>
		<polygon class="st15" points="193,486.7 193,456.4 218.8,452.8 218.8,488.4 		"/>
		<g>
			<g>
				<polygon points="469.8,341 462.2,341 462.2,223.4 467.7,223.4 				"/>
				<rect x="457" y="223.4" class="st3" width="5.4" height="117.6"/>
				<polygon class="st4" points="457.4,341 452.8,341 455.7,223.4 457.4,223.4 				"/>
				<rect x="457.4" y="223.4" class="st5" width="1.7" height="117.6"/>
				<rect x="453.9" y="221.6" width="14.8" height="1.7"/>
				<rect x="453.9" y="218.6" class="st5" width="14.8" height="3.1"/>
			</g>
			<rect x="455.3" y="239.2" class="st5" width="12.7" height="0.7"/>
			<rect x="455.3" y="253.7" class="st5" width="12.7" height="0.7"/>
			<rect x="455.3" y="268.2" class="st5" width="12.7" height="0.7"/>
			<rect x="455.3" y="282.6" class="st5" width="12.7" height="0.7"/>
		</g>
		<polygon class="st11" points="383.7,290.9 383.7,318.5 392.4,319 392.4,291.9 		"/>
		<polygon class="st11" points="401.8,293.3 401.8,320.3 410.4,320.9 410.4,294.3 		"/>
		<polygon class="st11" points="418.9,295.6 418.9,322.7 427.6,323.2 427.6,296.6 		"/>
		<polygon class="st8" points="567.9,304.1 560.1,326.4 571.7,317.9 580.5,316.2 587.3,318 587.3,305.4 		"/>
		<g>
			<polygon class="st8" points="567.9,274.9 588.7,280.8 588.7,305.4 567.9,304.1 			"/>
			<polygon class="st16" points="567.9,274.9 559.1,276.6 559.1,304.4 567.9,304.1 			"/>
			<polygon class="st4" points="562.9,277 560.1,277.5 560.1,303.3 562.9,303 			"/>
			<polygon class="st4" points="567.1,276.2 564.2,276.7 564.2,303 567.1,302.8 			"/>
		</g>
		<g>
			<polygon class="st8" points="566.5,346.4 600.9,346.5 600.9,375.9 566.5,376.2 			"/>
			<polygon class="st16" points="566.5,345.9 551.9,346.5 551.9,376.4 566.5,376.2 			"/>
		</g>
		<polygon class="st4" points="590.5,305.4 557.5,305.4 557.5,304.1 570.2,303.7 590.5,304.1 		"/>
		<polygon class="st4" points="562.9,305.4 555.7,326.4 561.5,323.1 567.9,304.1 		"/>
		<rect x="595.1" y="317.2" class="st8" width="2.8" height="28.9"/>
		<rect x="595.1" y="345.2" class="st8" width="2.8" height="28.9"/>
		<rect x="570.9" y="345.2" class="st8" width="2.8" height="28.9"/>
		<rect x="556.1" y="345.2" class="st8" width="2.8" height="28.9"/>
		
			<rect x="574.9" y="318.7" transform="matrix(-1.836970e-16 1 -1 -1.836970e-16 921.5294 -231.0451)" class="st8" width="2.8" height="53"/>
		<rect x="585.9" y="317.2" class="st8" width="2.8" height="28.9"/>
		<path class="st4" d="M602.8,316.2h-22.3c0,0-6-0.5-14.1,4.2s-76,42.6-76,42.6l1.3,1.3l76.3-42.1c0,0,6.1-4,12.5-4.3l22.2,0.3
			L602.8,316.2z"/>
		<polygon class="st17" points="422.4,413.9 422.4,337.6 456.7,322.2 456.7,416.3 		"/>
		<polygon class="st18" points="456.7,411.5 456.7,322 478.3,309.9 506.9,319.9 509.9,408.1 		"/>
		<polygon class="st17" points="412.8,338.9 431.6,326.4 478.4,307.6 511,318.7 511,321.1 478.5,310.9 456.7,325.1 422.4,337.6 		
			"/>
		<polygon class="st19" points="506.9,319.9 478.5,310.9 456.7,325.1 422.4,337.6 422.4,341 457.2,329.5 478.5,315.4 506.9,324.2 		
			"/>
		<polyline class="st18" points="422.4,359.7 456.7,351.2 456.7,354.2 422.4,362.8 422.4,359.7 		"/>
		<polyline class="st18" points="422.4,385.7 456.7,380 456.7,383 422.4,388.9 422.4,385.7 		"/>
		<polygon class="st20" points="605.4,433.7 514.3,407.1 452.7,442 452.7,499.9 565.2,499.9 565.2,453.5 		"/>
		<polygon class="st12" points="342.7,493.9 342.7,453.8 398.1,452.7 398.1,415.7 514.3,407.1 510.8,410.9 447,430.7 441.1,492.9 		
			"/>
		<g>
			<polygon class="st12" points="374.3,383 353.3,380.9 356.9,123.8 364.6,117.5 370.1,122.7 			"/>
			<polygon class="st19" points="374.3,383 364.6,382 364.6,117.5 370.1,121.7 			"/>
		</g>
		<polygon class="st21" points="226.3,355.8 229.5,357.8 230,359.4 233.1,360 236.4,362 237.1,364 241.4,365.1 244.2,366.9 
			244.9,368.9 249.1,369.9 251.6,371.5 252.1,373.4 256,374.2 257.8,375.4 258.8,377.6 263.6,379 226.3,385.8 		"/>
		<polygon class="st22" points="401.8,421.4 435.1,449.7 460,449.7 514.3,410.4 605.4,433.7 604.1,430 514.3,407.1 505.6,411.4 		
			"/>
		<rect x="433.7" y="449.7" class="st23" width="26.6" height="50.2"/>
		<polygon class="st20" points="435.3,499.9 435.1,449.7 401.8,421.4 401.8,497.9 		"/>
		<polygon class="st19" points="374.3,387.8 348.5,387.8 352.2,117.5 370.1,117.5 		"/>
		<polygon class="st19" points="374.3,413 348.5,413 351.7,142.7 370.1,142.7 		"/>
		<polygon class="st12" points="361.4,387.9 348.5,387.9 352.2,117.6 361.4,117.6 		"/>
		<g>
			<polygon class="st11" points="739.8,299 739.8,461.1 692.5,461.1 692.5,299.5 713.9,292.2 			"/>
			<path class="st12" d="M692.5,296.5l18.5-5l2.9-0.1l23,5.1l2.9,0.7v163.9h-2.9v-17.4l-23-0.8v20.4h-2.9v-20.4l-18.5,0.8v17.4h-2.4
				V297.4L692.5,296.5z M736.9,320l-23-4.7v18.1l23,4.3V320z M736.9,340.6l-23-4.3v18.5l23,3.5V340.6z M736.9,361.2l-23-3.5v18.5
				l23,2.8V361.2z M736.9,381.9l-23-2.8v18.5l23,2V381.9z M736.9,402.5l-23-2v19l23,0.8V402.5z M711.1,400.5l-18.5,2v17.8l18.5-0.8
				V400.5z M711.1,397.6v-18.5l-18.5,2.7v17.8L711.1,397.6z M711.1,376.3v-18.5l-18.5,3.5V379L711.1,376.3z M711.1,354.9v-18.5
				l-18.5,4.2v17.7L711.1,354.9z M711.1,333.5v-18l-18.5,4.6v17.7L711.1,333.5z M692.5,299.5v17.7l18.5-4.6v-18L692.5,299.5z
				 M713.9,294.4v18l23,4.7v-17.7L713.9,294.4z M736.9,440.9v-17.7l-23-0.8V440L736.9,440.9z M711.1,440v-17.7l-18.5,0.8v17.7
				L711.1,440z"/>
			<line class="st11" x1="736.9" y1="317.1" x2="713.9" y2="294.4"/>
			<line class="st11" x1="713.9" y1="312.4" x2="736.9" y2="299.5"/>
			<line class="st11" x1="713.9" y1="333.1" x2="736.9" y2="320.1"/>
			<line class="st11" x1="713.9" y1="353.8" x2="736.9" y2="340.8"/>
			<line class="st11" x1="713.9" y1="375.9" x2="736.9" y2="361.6"/>
			<line class="st11" x1="713.9" y1="397.3" x2="736.9" y2="382.2"/>
			<line class="st11" x1="713.9" y1="419.2" x2="736.9" y2="402.8"/>
			<line class="st11" x1="736.9" y1="337.9" x2="713.9" y2="315.2"/>
			<line class="st11" x1="736.9" y1="358.7" x2="713.9" y2="336"/>
			<line class="st11" x1="736.9" y1="379.5" x2="713.9" y2="356.7"/>
			<line class="st11" x1="736.9" y1="400.3" x2="713.9" y2="378.4"/>
			<line class="st11" x1="736.9" y1="421" x2="713.9" y2="400"/>
			<line class="st11" x1="736.9" y1="441.7" x2="713.9" y2="421.6"/>
			<polygon class="st13" points="712.9,291.5 712.7,460.6 711.1,460.6 711.1,291.5 			"/>
		</g>
		<g>
			<polygon class="st12" points="1159.9,357.2 1057.9,322.3 940.2,338.6 940.2,432.8 1053.8,432.8 1158.9,422.7 			"/>
			<polygon class="st10" points="1057.9,321.9 1057.9,432.8 940.2,432.8 940.2,338.6 			"/>
		</g>
		<g>
			<polygon class="st12" points="1179.8,398.4 1136,386.8 1100.2,394.1 1100.2,501.2 1141.3,501.2 1179.4,490.2 			"/>
			<polygon class="st10" points="1136,386.8 1134.2,499.3 1100.2,501.2 1100.2,393.4 			"/>
		</g>
		<g>
			<polygon class="st14" points="1008.2,269.6 971.3,256.1 928.7,263.9 928.7,402.4 969.8,402.4 1007.9,390.5 			"/>
			<polygon class="st10" points="971.3,255.5 971.3,417.8 928.7,428.1 928.7,263 			"/>
		</g>
		<g>
			<polygon class="st12" points="1183.7,431.9 1062.4,408.2 922.4,422.7 922.4,506.7 1062.6,506.7 1182.5,497.6 			"/>
			<polygon class="st10" points="1062.4,407.8 1062.4,506.7 922.4,506.7 922.4,422.7 			"/>
		</g>
		<polygon class="st10" points="1182.9,434.2 1060.7,410.6 1061.3,413.4 1182.9,436.6 		"/>
		<polygon class="st13" points="1180.7,443.3 1065.6,425.6 1066.1,428.4 1180.7,445.8 		"/>
		<polygon class="st15" points="1177.8,449.7 1177.8,446.6 1161.9,444.4 1161.9,447.9 		"/>
		<polygon class="st10" points="1177.8,449.7 1177.8,446.6 1161.9,444.4 1161.9,447.9 		"/>
		<polygon class="st15" points="1124.6,444.4 1124.6,439.7 1104.5,437.1 1104.5,442.7 		"/>
		<polygon class="st10" points="1124.6,444.4 1124.6,439.7 1104.5,437.1 1104.5,442.7 		"/>
		<polygon class="st15" points="1151.9,447 1151.9,443.1 1136,440.9 1136,445.6 		"/>
		<polygon class="st10" points="1151.9,447 1151.9,443.1 1136,440.9 1136,445.6 		"/>
		<polygon class="st24" points="1095.3,442.3 1095.3,435.9 1073.4,433.1 1073.4,440.2 		"/>
		<polygon class="st10" points="1141.3,501.2 1141.3,473.5 1116.5,471 1116.5,502.6 		"/>
		<polygon class="st15" points="1139.4,500.8 1139.4,475.8 1118.1,472.9 1118.1,502.1 		"/>
		<polygon class="st12" points="1016.3,506.7 1016.3,473.7 970.7,472.8 970.7,442.4 875.3,435.3 878.2,438.4 930.5,454.7 
			935.5,505.9 		"/>
		<g>
			<polygon class="st12" points="990.3,415.5 1007.6,413.7 1004.6,202.1 998.3,197 993.8,201.3 			"/>
			<polygon class="st19" points="990.3,415.5 998.3,414.6 998.3,197 993.8,200.4 			"/>
		</g>
		<polygon class="st21" points="1111.9,393 1109.3,394.7 1109,396 1106.3,396.5 1103.7,398.2 1103.1,399.8 1099.6,400.7 
			1097.3,402.2 1096.7,403.8 1093.2,404.7 1091.2,406 1090.7,407.6 1087.6,408.2 1086.1,409.2 1085.3,411 1081.3,412.1 
			1111.9,417.8 		"/>
		<polygon class="st19" points="990.3,419.4 1011.5,419.4 1008.5,197 993.8,197 		"/>
		<polygon class="st19" points="990.3,440.1 1011.5,440.1 1008.9,217.7 993.8,217.7 		"/>
		<polygon class="st12" points="1000.9,419.5 1011.5,419.5 1008.5,197.1 1000.9,197.1 		"/>
		<rect x="348.5" y="113.6" class="st19" width="25.8" height="4"/>
		<rect x="987.4" y="195" class="st19" width="25.8" height="4"/>
		<polygon class="st25" points="548,517.9 597.1,493.6 623.9,509.4 639.5,515.9 645.1,527.5 586.9,531 		"/>
		<polygon class="st25" points="604.5,458.9 669.1,434.2 708.5,449.2 731.5,455.3 739.8,466.3 639.9,466.4 604.5,471.6 		"/>
		<polygon class="st25" points="462.6,506.4 504,492.4 526.5,501.5 539.6,505.2 544.3,511.9 495.3,514 		"/>
		<polygon class="st26" points="854,378.1 928.7,378.1 928.7,405.4 		"/>
		<polygon class="st14" points="854,378.1 858.1,377.5 928.7,403.5 928.7,407.3 		"/>
		<polyline class="st9" points="703.8,466.3 759.2,474.3 744.4,478.1 851.9,484.5 914.1,493.8 906.7,503.1 914.1,510.7 
			1100.4,511.8 1121.8,502.4 922.4,506.7 922.4,478.1 787.4,476.1 787.4,468.5 739.8,466.3 		"/>
	</g>
	<g>
		<g>
			<g>
				<path class="st27" d="M60.1,554.9c0,0-0.5-10.3,6.2-15.3c3.3-2.4,10.8-3.8,10.8-3.8s0.4-2.6,0.7-4c0.2-0.9,7.8-3.5,7.8-4.2
					c0,0-5.6-5.2-4.8-10.1c0,0-1.4-4.4-0.7-6.4s-2.4-3.9-2-5.7c0.8-3.3,1.2-4.5,1.2-4.5s-1.7-7.9,1.4-10.9s11-10.3,17-7.8
					c6,2.5,9.4,2.5,12.8,8.1c3.4,5.5,2.7,11.2,1.8,12.3s0.3,1.6-0.3,6.4c-0.6,4.8-2.9,7.9-3.2,9.6c-0.4,2.3-1.7,5.5-1.7,5.5
					s7.4-0.1,8,1.4c0.6,1.5,4.1,2.7,6.2,3.7c2.1,1,1.8,2.4,1.8,2.4s11-1.6,15.2,7.2s1.2,163,1.2,163H55.5L60.1,554.9z"/>
			</g>
			<g>
				<path class="st27" d="M185.4,532.1c0,0-0.4-8,4.8-11.9c2.5-1.9,8.4-3,8.4-3s0.3-2,0.6-3.1c0.2-0.7,6-2.7,6-3.3
					c0,0-4.4-4-3.7-7.8c0,0-1.1-3.4-0.5-4.9c0.5-1.5-1.9-3-1.6-4.4c0.6-2.6,0.9-3.5,0.9-3.5s-1.3-6.1,1.1-8.5s8.5-8,13.2-6
					c4.7,2,7.3,2,9.9,6.3c2.6,4.3,2.1,8.7,1.4,9.5c-0.7,0.8,0.2,1.3-0.2,5c-0.4,3.7-2.3,6.1-2.5,7.4c-0.3,1.8-1.3,4.2-1.3,4.2
					s5.7,0,6.2,1.1c0.4,1.2,3.2,2.1,4.8,2.9c1.6,0.8,1.4,1.9,1.4,1.9s8.5-1.3,11.8,5.6c3.3,6.8-3.9,123.7-3.9,123.7l-57.3-4.3
					L185.4,532.1z"/>
			</g>
			<g>
				<path class="st28" d="M73,546c0,0,0.5-12-6.8-17.8c-3.6-2.8-11.9-4.4-11.9-4.4s-0.4-3-0.8-4.6c-0.2-1-8.5-4-8.6-4.9
					c0,0,6.2-6,5.2-11.8c0,0,1.5-5.1,0.8-7.4c-0.8-2.3,2.7-4.6,2.2-6.6c-0.8-3.9-1.3-5.2-1.3-5.2s1.9-9.2-1.5-12.7
					c-3.4-3.5-12-12-18.7-9s-10.3,2.9-14.1,9.4s-2.9,13-2,14.2c0.9,1.2-0.3,1.9,0.3,7.4s3.2,9.2,3.6,11.1c0.5,2.6,1.8,6.3,1.8,6.3
					s-8.1-0.1-8.7,1.7c-0.6,1.7-4.5,3.1-6.8,4.3s-2,2.8-2,2.8s-12-1.9-16.7,8.3S-25.5,700-25.5,700l108.2,12.7L73,546z"/>
			</g>
			<g>
				<path class="st2" d="M107,546c0,0-0.6-12,7.2-17.8c3.8-2.8,12.5-4.4,12.5-4.4s0.4-3,0.8-4.6c0.2-1,9-4,9-4.9c0,0-6.6-6-5.5-11.8
					c0,0-1.6-5.1-0.8-7.4c0.8-2.3-2.8-4.6-2.4-6.6c0.9-3.9,1.4-5.2,1.4-5.2s-2-9.2,1.6-12.7c3.6-3.5,12.7-12,19.7-9
					s10.9,2.9,14.8,9.4s3.1,13,2.1,14.2c-1,1.2,0.3,1.9-0.3,7.4s-3.4,9.2-3.8,11.1c-0.5,2.6-1.9,6.3-1.9,6.3s8.6-0.1,9.2,1.7
					c0.7,1.7,4.7,3.1,7.2,4.3c2.4,1.2,2.1,2.8,2.1,2.8s12.7-1.9,17.6,8.3c4.9,10.2,4.2,174.5,4.2,174.5h-97.5L107,546z"/>
			</g>
		</g>
		<g>
			<g>
				<path class="st2" d="M432.6,601.4c0,0-0.6-13.5,8.1-20c4.3-3.2,14.1-5,14.1-5s0.5-3.4,0.9-5.2c0.3-1.1,10.1-4.5,10.2-5.5
					c0,0-7.4-6.8-6.2-13.2c0,0-1.8-5.8-0.9-8.3c0.9-2.5-3.2-5.1-2.7-7.4c1-4.3,1.6-5.9,1.6-5.9s-2.2-10.3,1.8-14.2
					c4-3.9,14.3-13.5,22.2-10.1s12.3,3.3,16.7,10.5c4.4,7.2,3.5,14.6,2.4,16c-1.1,1.4,0.4,2.1-0.3,8.4s-3.8,10.3-4.2,12.5
					c-0.6,3-2.2,7.1-2.2,7.1s9.7-0.1,10.4,1.9c0.7,2,5.3,3.5,8.1,4.9c2.8,1.4,2.4,3.1,2.4,3.1s14.3-2.1,19.8,9.4
					c5.5,11.5,4.7,47.3,4.7,47.3H429.7L432.6,601.4z"/>
			</g>
			<g>
				<path class="st27" d="M348.6,580.1c0,0-0.6-13.5,8.1-20c4.3-3.2,14.1-5,14.1-5s0.5-3.4,0.9-5.2c0.3-1.1,10.1-4.5,10.2-5.5
					c0,0-7.4-6.8-6.2-13.2c0,0-1.8-5.8-0.9-8.3s-3.2-5.1-2.7-7.4c1-4.3,1.6-5.9,1.6-5.9s-2.2-10.3,1.8-14.2
					c4-3.9,14.3-13.5,22.2-10.1c7.9,3.3,12.3,3.3,16.7,10.5c4.4,7.2,3.5,14.6,2.4,16c-1.1,1.4,0.4,2.1-0.3,8.4
					c-0.7,6.2-3.8,10.3-4.2,12.5c-0.6,3-2.2,7.1-2.2,7.1s9.7-0.1,10.4,1.9c0.7,2,5.3,3.5,8.1,4.9c2.8,1.4,2.4,3.1,2.4,3.1
					s14.3-2.1,19.8,9.4c5.5,11.5,4.7,47.3,4.7,47.3H345.8L348.6,580.1z"/>
			</g>
			<g>
				<path class="st28" d="M279,576c0,0-0.5-11.7,7-17.3c3.7-2.8,12.2-4.3,12.2-4.3s0.4-2.9,0.8-4.5c0.2-1,8.8-3.9,8.8-4.8
					c0,0-6.4-5.9-5.4-11.5c0,0-1.6-5-0.8-7.2c0.8-2.2-2.8-4.5-2.3-6.4c0.9-3.8,1.4-5.1,1.4-5.1s-1.9-9,1.6-12.4s12.4-11.7,19.3-8.8
					s10.7,2.9,14.5,9.1s3,12.7,2.1,13.9c-1,1.2,0.3,1.8-0.3,7.3s-3.3,8.9-3.7,10.8c-0.5,2.6-1.9,6.2-1.9,6.2s8.4-0.1,9,1.6
					c0.6,1.7,4.6,3,7,4.2s2.1,2.7,2.1,2.7s12.4-1.9,17.2,8.1c4.8,10,4.4,82.4,4.4,82.4l-95.4-41.5L279,576z"/>
			</g>
			<g>
				<path class="st2" d="M208,606.6c0,0-0.7-15.6,9.4-23.2c4.9-3.7,16.3-5.8,16.3-5.8s0.6-3.9,1.1-6c0.3-1.3,11.7-5.3,11.8-6.4
					c0,0-8.5-7.8-7.2-15.3c0,0-2.1-6.7-1.1-9.6s-3.7-6-3.1-8.6c1.2-5,1.8-6.8,1.8-6.8s-2.6-12,2.1-16.5c4.7-4.5,16.6-15.6,25.8-11.8
					c9.2,3.8,14.3,3.8,19.4,12.2c5.1,8.4,4,17,2.8,18.6s0.4,2.5-0.4,9.7s-4.4,12-4.9,14.5c-0.7,3.4-2.5,8.3-2.5,8.3
					s11.2-0.1,12.1,2.2c0.9,2.3,6.2,4.1,9.4,5.7c3.2,1.6,2.8,3.6,2.8,3.6s16.6-2.5,23,10.9C332.8,595.5,332,727,332,727l-127.2-1.6
					L208,606.6z"/>
			</g>
			<g>
				<path class="st2" d="M126.7,625.5c0,0,4.2-18,14.2-25.5c4.9-3.7,16.3-5.8,16.3-5.8s0.6-3.9,1.1-6c0.3-1.3,11.7-5.3,11.8-6.4
					c0,0-8.5-7.8-7.2-15.3c0,0-2.1-6.7-1.1-9.6c1.1-2.9-3.7-6-3.1-8.6c1.2-5,1.8-6.8,1.8-6.8s-2.6-12,2.1-16.5
					c4.7-4.5,16.6-15.6,25.8-11.8c9.2,3.8,14.3,3.8,19.4,12.2c5.1,8.4,4,17,2.8,18.6c-1.3,1.6,0.4,2.5-0.4,9.7
					c-0.8,7.2-4.4,12-4.9,14.5c-0.7,3.4-2.5,8.3-2.5,8.3s11.2-0.1,12.1,2.2c0.9,2.3,6.2,4.1,9.4,5.7s2.8,3.6,2.8,3.6
					s16.6-2.5,23,10.9c6.4,13.4,2.8,127.5,2.8,127.5l-136-26.9L126.7,625.5z"/>
			</g>
			<g>
				<path class="st2" d="M328.1,645.8c0,0-0.9-20.3,12.2-30.1c6.4-4.8,21.3-7.5,21.3-7.5s0.7-5.1,1.4-7.8c0.4-1.7,15.3-6.8,15.4-8.3
					c0,0-11.1-10.2-9.3-19.9c0,0-2.8-8.7-1.4-12.5s-4.8-7.7-4-11.2c1.5-6.6,2.4-8.8,2.4-8.8s-3.3-15.6,2.8-21.5
					c6.1-5.9,21.6-20.3,33.5-15.3c11.9,5,18.5,5,25.2,15.9c6.6,10.9,5.3,22.1,3.6,24.1s0.6,3.2-0.5,12.6s-5.8,15.5-6.4,18.8
					c-0.8,4.5-3.2,10.7-3.2,10.7s14.6-0.1,15.7,2.8c1.1,2.9,8,5.3,12.2,7.4c4.2,2.1,3.6,4.7,3.6,4.7s34,8.5,42.3,25.8
					c8.3,17.4,8,80.6,8,80.6H323.8L328.1,645.8z"/>
			</g>
			<g>
				<path class="st2" d="M494.6,625.8c0,0-0.6-14.6,8.1-21.6c4.3-3.4,14.1-5.4,14.1-5.4s0.5-3.6,0.9-5.6c0.3-1.2,10.1-4.9,10.2-5.9
					c0,0-7.4-7.3-6.2-14.3c0,0-1.8-6.2-0.9-9c0.9-2.7-3.2-5.5-2.7-8c1-4.7,1.6-6.3,1.6-6.3s-2.2-11.2,1.8-15.4
					c4-4.2,14.3-14.5,22.2-11c7.9,3.6,12.3,3.6,16.7,11.4s3.5,15.8,2.4,17.3c-1.1,1.5,0.4,2.3-0.3,9c-0.7,6.7-3.8,11.1-4.2,13.5
					c-0.6,3.2-2.2,7.7-2.2,7.7s9.7-0.1,10.4,2s5.3,3.8,8.1,5.3c2.8,1.5,2.4,3.4,2.4,3.4s14.3-2.3,19.8,10.1
					c5.5,12.4,6.1,103.3,6.1,103.3H493.1L494.6,625.8z"/>
			</g>
		</g>
		<path class="st27" d="M324,486.6c-12.4-3.4-23.8,0.6-25.4,9c-0.2,0.8-0.2,1.7-0.2,2.5l-8.7,6.6c-2.1,1.6-1.4,5.5,1,5.9l10.1,1.8
			c1.6,0.3,3.1-1.2,3.1-3.2v-0.2c3.5,3.4,8.4,6.3,14.1,7.8c12.4,3.4,23.8-0.6,25.4-9S336.5,490,324,486.6z"/>
		<path class="st27" d="M28.3,453.7c12.3-3.4,23.6,0.6,25.2,9c0.2,0.8,0.2,1.7,0.2,2.5l8.6,6.6c2.1,1.6,1.4,5.5-1,5.9l-10.1,1.8
			c-1.6,0.3-3.1-1.2-3.1-3.2v-0.2c-3.5,3.4-8.4,6.3-14,7.8c-12.3,3.4-23.6-0.6-25.2-9S15.9,457.1,28.3,453.7z"/>
	</g>
	<g>
		<g>
			<g>
				<path class="st28" d="M822.1,574.3c0,0-0.5-10.3,7-15.3c3.7-2.4,12.2-3.8,12.2-3.8s0.4-2.6,0.8-4c0.2-0.9,8.7-3.5,8.8-4.2
					c0,0-6.4-5.2-5.3-10.1c0,0-1.6-4.4-0.8-6.4c0.8-1.9-2.7-3.9-2.3-5.7c0.9-3.3,1.3-4.5,1.3-4.5s-1.9-7.9,1.6-10.9
					c3.5-3,12.3-10.3,19.1-7.8c6.8,2.5,10.6,2.5,14.4,8.1c3.8,5.5,3,11.2,2.1,12.3c-0.9,1,0.3,1.6-0.3,6.4c-0.6,4.8-3.3,7.9-3.6,9.6
					c-0.5,2.3-1.9,5.5-1.9,5.5s8.3-0.1,9,1.4c0.6,1.5,4.6,2.7,7,3.7s2.1,2.4,2.1,2.4s12.3-1.6,17.1,7.2c4.7,8.8,5.7,93.3,5.7,93.3
					h-94.6L822.1,574.3z"/>
			</g>
			<g>
				<path class="st27" d="M697,575.1c0,0-0.5-10.3,7-15.3c3.7-2.4,12.2-3.8,12.2-3.8s0.4-2.6,0.8-4c0.2-0.9,8.7-3.5,8.8-4.2
					c0,0-6.4-5.2-5.3-10.1c0,0-1.6-4.4-0.8-6.4c0.8-1.9-2.7-3.9-2.3-5.7c0.9-3.3,1.3-4.5,1.3-4.5s-1.9-7.9,1.6-10.9
					c3.5-3,12.3-10.3,19.1-7.8c6.8,2.5,10.6,2.5,14.4,8.1c3.8,5.5,3,11.2,2.1,12.3s0.3,1.6-0.3,6.4s-3.3,7.9-3.6,9.6
					c-0.5,2.3-1.9,5.5-1.9,5.5s8.3-0.1,9,1.4c0.6,1.5,4.6,2.7,7,3.7s2.1,2.4,2.1,2.4s12.3-1.6,17.1,7.2c4.7,8.8,2.2,137,2.2,137
					h-94.6L697,575.1z"/>
			</g>
			<g>
				<path class="st28" d="M601.8,578.5c0,0-0.6-12,8.1-17.8c4.3-2.8,14.1-4.4,14.1-4.4s0.5-3,0.9-4.6c0.3-1,10.1-4,10.2-4.9
					c0,0-7.4-6-6.2-11.8c0,0-1.8-5.1-0.9-7.4s-3.2-4.6-2.7-6.6c1-3.9,1.6-5.2,1.6-5.2s-2.2-9.2,1.8-12.7c4-3.5,14.3-12,22.2-9
					c7.9,2.9,12.3,2.9,16.7,9.4c4.4,6.4,3.5,13,2.4,14.2s0.4,1.9-0.3,7.4c-0.7,5.6-3.8,9.2-4.2,11.1c-0.6,2.6-2.2,6.3-2.2,6.3
					s9.7-0.1,10.4,1.7c0.7,1.7,5.3,3.1,8.1,4.3c2.8,1.2,2.4,2.8,2.4,2.8s14.3-1.9,19.8,8.3c5.5,10.2,14.9,140.2,14.9,140.2
					l-128.6,12.7L601.8,578.5z"/>
			</g>
			<g>
				<path class="st2" d="M742.7,578.5c0,0-0.6-12,8.1-17.8c4.3-2.8,14.1-4.4,14.1-4.4s0.5-3,0.9-4.6c0.3-1,10.1-4,10.2-4.9
					c0,0-7.4-6-6.2-11.8c0,0-1.8-5.1-0.9-7.4c0.9-2.3-3.2-4.6-2.7-6.6c1-3.9,1.6-5.2,1.6-5.2s-2.2-9.2,1.8-12.7
					c4-3.5,14.3-12,22.2-9c7.9,2.9,12.3,2.9,16.7,9.4s3.5,13,2.4,14.2c-1.1,1.2,0.4,1.9-0.3,7.4c-0.7,5.6-3.8,9.2-4.2,11.1
					c-0.6,2.6-2.2,6.3-2.2,6.3s9.7-0.1,10.4,1.7c0.7,1.7,5.3,3.1,8.1,4.3c2.8,1.2,2.4,2.8,2.4,2.8s14.3-1.9,19.8,8.3
					c5.5,10.2,4.8,100.4,4.8,100.4l-107.2,57.7L742.7,578.5z"/>
			</g>
		</g>
		<g>
			<g>
				<path class="st2" d="M1126.2,613.2c0,0-0.7-13.5,9.1-20c4.8-3.2,15.9-5,15.9-5s0.6-3.4,1.1-5.2c0.3-1.1,11.4-4.5,11.4-5.5
					c0,0-8.3-6.8-7-13.2c0,0-2.1-5.8-1-8.3c1-2.5-3.6-5.1-3-7.4c1.1-4.3,1.8-5.9,1.8-5.9s-2.5-10.3,2.1-14.2
					c4.5-3.9,16.1-13.5,25-10.1c8.9,3.3,13.8,3.3,18.8,10.5c5,7.2,3.9,14.6,2.7,16c-1.2,1.4,0.4,2.1-0.4,8.4s-4.3,10.3-4.8,12.5
					c-0.6,3-2.4,7.1-2.4,7.1s10.9-0.1,11.7,1.9s6,3.5,9.1,4.9c3.1,1.4,2.7,3.1,2.7,3.1s16.1-2.1,22.3,9.4
					c6.2,11.5,0.4,114.3,0.4,114.3h-123.4L1126.2,613.2z"/>
			</g>
			<g>
				<path class="st27" d="M990.2,599.9c0,0-0.7-13.5,9.1-20c4.8-3.2,15.9-5,15.9-5s0.6-3.4,1.1-5.2c0.3-1.1,11.4-4.5,11.4-5.5
					c0,0-8.3-6.8-7-13.2c0,0-2.1-5.8-1-8.3c1-2.5-3.6-5.1-3-7.4c1.1-4.3,1.8-5.9,1.8-5.9s-2.5-10.3,2.1-14.2
					c4.5-3.9,16.1-13.5,25-10.1s13.8,3.3,18.8,10.5c5,7.2,3.9,14.6,2.7,16c-1.2,1.4,0.4,2.1-0.4,8.4s-4.3,10.3-4.8,12.5
					c-0.6,3-2.4,7.1-2.4,7.1s10.9-0.1,11.7,1.9s6,3.5,9.1,4.9c3.1,1.4,2.7,3.1,2.7,3.1s16.1-2.1,22.3,9.4
					c6.2,11.5,5.3,47.3,5.3,47.3H987L990.2,599.9z"/>
			</g>
			<g>
				<path class="st28" d="M936.3,608.6c0,0-0.6-11.7,7.9-17.3c4.2-2.8,13.7-4.3,13.7-4.3s0.5-2.9,0.9-4.5c0.3-1,9.9-3.9,9.9-4.8
					c0,0-7.2-5.9-6-11.5c0,0-1.8-5-0.9-7.2s-3.1-4.5-2.6-6.4c1-3.8,1.5-5.1,1.5-5.1s-2.1-9,1.8-12.4c3.9-3.4,14-11.7,21.7-8.8
					c7.7,2.9,12,2.9,16.3,9.1c4.3,6.3,3.4,12.7,2.3,13.9c-1.1,1.2,0.4,1.8-0.3,7.3c-0.7,5.4-3.7,8.9-4.1,10.8
					c-0.5,2.6-2.1,6.2-2.1,6.2s9.4-0.1,10.1,1.6c0.7,1.7,5.2,3,7.9,4.2s2.3,2.7,2.3,2.7s14-1.9,19.3,8.1c5.4,10,1.3,116.1,1.3,116.1
					H933.5L936.3,608.6z"/>
			</g>
			<g>
				<path class="st2" d="M856.4,639.1c0,0-0.8-15.6,10.5-23.2c5.6-3.7,18.4-5.8,18.4-5.8s0.6-3.9,1.2-6c0.4-1.3,13.2-5.3,13.3-6.4
					c0,0-9.6-7.8-8.1-15.3c0,0-2.4-6.7-1.2-9.6c1.2-2.9-4.2-6-3.5-8.6c1.3-5,2-6.8,2-6.8s-2.9-12,2.4-16.5
					c5.3-4.5,18.7-15.6,29-11.8c10.3,3.8,16,3.8,21.8,12.2c5.7,8.4,4.5,17,3.1,18.6s0.5,2.5-0.4,9.7c-0.9,7.2-5,12-5.5,14.5
					c-0.7,3.4-2.8,8.3-2.8,8.3s12.6-0.1,13.6,2.2c1,2.3,6.9,4.1,10.5,5.7c3.6,1.6,3.1,3.6,3.1,3.6s18.7-2.5,25.9,10.9
					s6.2,75.1,6.2,75.1l-143.1-1.6L856.4,639.1z"/>
			</g>
			<g>
				<path class="st2" d="M765,638.6c0,0,4.7-18,16-25.5c5.6-3.7,18.4-5.8,18.4-5.8s0.6-3.9,1.2-6c0.4-1.3,13.2-5.3,13.3-6.4
					c0,0-9.6-7.8-8.1-15.3c0,0-2.4-6.7-1.2-9.6s-4.2-6-3.5-8.6c1.3-5,2-6.8,2-6.8s-2.9-12,2.4-16.5c5.3-4.5,18.7-15.6,29-11.8
					c10.3,3.8,16,3.8,21.8,12.2c5.7,8.4,4.5,17,3.1,18.6s0.5,2.5-0.4,9.7c-0.9,7.2-5,12-5.5,14.5c-0.7,3.4-2.8,8.3-2.8,8.3
					s12.6-0.1,13.6,2.2c1,2.3,6.9,4.1,10.5,5.7c3.6,1.6,3.1,3.6,3.1,3.6s18.7-2.5,25.9,10.9c7.2,13.4,6.2,75.1,6.2,75.1l-167.4,11.5
					L765,638.6z"/>
			</g>
			<g>
				<path class="st2" d="M991.5,678.4c0,0-1.1-20.3,13.7-30.1c7.2-4.8,23.9-7.5,23.9-7.5s0.8-5.1,1.6-7.8c0.5-1.7,17.2-6.8,17.3-8.3
					c0,0-12.5-10.2-10.5-19.9c0,0-3.1-8.7-1.6-12.5c1.6-3.8-5.4-7.7-4.5-11.2c1.7-6.6,2.6-8.8,2.6-8.8s-3.7-15.6,3.1-21.5
					s24.3-20.3,37.7-15.3c13.4,5,20.9,5,28.3,15.9c7.5,10.9,5.9,22.1,4,24.1c-1.9,2.1,0.6,3.2-0.6,12.6s-6.5,15.5-7.2,18.8
					c-1,4.5-3.7,10.7-3.7,10.7s16.4-0.1,17.6,2.8s9,5.3,13.7,7.4c4.7,2.1,4,4.7,4,4.7s38.2,8.5,47.6,25.8c9.3,17.4,9,59.6,9,59.6
					h-201L991.5,678.4z"/>
			</g>
			<g>
				<path class="st2" d="M1178.7,658.4c0,0-0.7-14.6,9.1-21.6c4.8-3.4,15.9-5.4,15.9-5.4s0.6-3.6,1.1-5.6c0.3-1.2,11.4-4.9,11.4-5.9
					c0,0-8.3-7.3-7-14.3c0,0-2.1-6.2-1-9c1-2.7-3.6-5.5-3-8c1.1-4.7,1.8-6.3,1.8-6.3s-2.5-11.2,2.1-15.4s16.1-14.5,25-11
					s13.8,3.6,18.8,11.4c5,7.8,3.9,15.8,2.7,17.3s0.4,2.3-0.4,9c-0.8,6.7-4.3,11.1-4.8,13.5c-0.6,3.2-2.4,7.7-2.4,7.7
					s10.9-0.1,11.7,2s6,3.8,9.1,5.3c3.1,1.5,2.7,3.4,2.7,3.4s16.1-2.3,22.3,10.1c6.2,12.4,5.3,60.4,5.3,60.4h-123.4L1178.7,658.4z"
					/>
			</g>
		</g>
		<path class="st27" d="M1050,502.5c-14-3.4-26.7,0.6-28.5,9c-0.2,0.8-0.2,1.7-0.2,2.5l-9.7,6.6c-2.4,1.6-1.6,5.5,1.2,5.9l11.4,1.8
			c1.8,0.3,3.5-1.2,3.5-3.2V525c4,3.4,9.5,6.3,15.9,7.8c14,3.4,26.7-0.6,28.5-9C1073.9,515.5,1064,505.9,1050,502.5z"/>
		<path class="st27" d="M1184.4,509.2c-14-3.4-26.7,0.6-28.5,9c-0.2,0.8-0.2,1.7-0.2,2.5l-9.7,6.6c-2.4,1.6-1.6,5.5,1.2,5.9l21,1.1
			c1.8,0.3-6.1-0.5-6.1-2.4v-0.2c4,3.4,9.5,6.3,15.9,7.8c14,3.4,26.7-0.6,28.5-9C1208.2,522.1,1198.3,512.6,1184.4,509.2z"/>
		<path class="st27" d="M867.6,496.2c-9.7-2.5-18.5,0.5-19.7,6.6c-0.1,0.6-0.2,1.2-0.1,1.8l-6.7,4.8c-1.6,1.2-1.1,4,0.8,4.3
			l14.5,0.8c1.3,0.2-4.2-0.3-4.2-1.8v-0.1c2.7,2.5,6.6,4.6,11,5.7c9.7,2.5,18.5-0.5,19.7-6.6S877.3,498.7,867.6,496.2z"/>
	</g>
	<g>
		<g>
			<g>
				<path class="st28" d="M1306.7,573.2c0,0-0.5-9,6-13.3c3.2-2.1,10.5-3.3,10.5-3.3s0.4-2.2,0.7-3.4c0.2-0.7,7.6-3,7.6-3.7
					c0,0-5.5-4.5-4.6-8.8c0,0-1.4-3.8-0.7-5.5c0.7-1.7-2.4-3.4-2-4.9c0.7-2.9,1.2-3.9,1.2-3.9s-1.6-6.9,1.4-9.5
					c3-2.6,10.7-9,16.6-6.7c5.9,2.2,9.2,2.2,12.5,7c3.3,4.8,2.6,9.7,1.8,10.6c-0.8,0.9,0.3,1.4-0.3,5.6c-0.5,4.2-2.9,6.9-3.2,8.3
					c-0.4,2-1.6,4.7-1.6,4.7s7.2,0,7.8,1.3c0.5,1.3,4,2.3,6,3.2c2.1,0.9,1.8,2.1,1.8,2.1s10.7-1.4,14.8,6.2
					c4.1,7.7,17,158.7,17,158.7h-82L1306.7,573.2z"/>
			</g>
			<g>
				<path class="st28" d="M1232,581c0,0-0.6-12,8.1-17.8c4.3-2.8,14.1-4.4,14.1-4.4s0.5-3,0.9-4.6c0.3-1,10.1-4,10.2-4.9
					c0,0-7.4-6-6.2-11.8c0,0-1.8-5.1-0.9-7.4c0.9-2.3-3.2-4.6-2.7-6.6c1-3.9,1.6-5.2,1.6-5.2s-2.2-9.2,1.8-12.7
					c4-3.5,14.3-12,22.2-9c7.9,2.9,12.3,2.9,16.7,9.4c4.4,6.4,3.5,13,2.4,14.2c-1.1,1.2,0.4,1.9-0.3,7.4c-0.7,5.6-3.8,9.2-4.2,11.1
					c-0.6,2.6-2.2,6.3-2.2,6.3s9.7-0.1,10.4,1.7s5.3,3.1,8.1,4.3s2.4,2.8,2.4,2.8s14.3-1.9,19.8,8.3c5.5,10.2,14.9,149.3,14.9,149.3
					l-128.6,12.7L1232,581z"/>
			</g>
		</g>
	</g>
</g>
<g id="Layer_8" class="st0">
	<g class="st29">
		<path class="st30" d="M1235.1,480.7c0,0,0.4-8.5-5.4-12.6c-2.9-2-9.4-3.1-9.4-3.1s-0.3-2.1-0.6-3.2c-0.2-0.7-11.6-3.9-11.6-4.5
			c0,0-1.2-4.9-1.5-3.9c0,0,1.9-2.7,2.1-4.5c0.2-1.7,2.5-5,2.2-6.4c-0.7-2.7,0.2-6.5,0.2-6.5s0.2-6-2.5-8.4
			c-2.7-2.5-9.6-8.5-14.8-6.4c-5.3,2.1-8.2,2.1-11.2,6.6s-2.3,9.2-1.6,10.1c0,0,0.6,3.1,1.1,7l2.6,4.9c-0.9-1.2,2.9,4,3.2,4.8
			c0,0,0.4,3.8-1.2,3.6c-1.4-0.2-3.2,0.7-5,1.5s-1.6,2-1.6,2s-15.1,3.5-18.7,10.8c-3.7,7.2-3.5,24.9-3.5,24.9l-16.6,1.4v10.6h10.1
			l0.5,145.6h95.3l-1.3-145.6h8.5v-11.8l-17.4-0.2L1235.1,480.7z"/>
	</g>
</g>
<g id="Layer_3">
</g>
<g id="Layer_5" class="st0">
	<g class="st29">
		<path class="st31" d="M64.2,292.9c51.4-30.1,107.5-27.5,149.9-38.5l12.3-30.3c0,0-21.2-18-24.2-22.1c-3-4.1-6.6-18.3-8.5-32.1
			c-1.8-12.8-3.8-20.6,2.7-23c0,0,4.9-0.8,11.8,2.8c0,0-4.9-12.2-5.5-28.2c-0.5-16,5.5-37.9,5.5-37.9s31.4-36.7,59.1-31.8
			c0,0,95-52,137.7,62l-6.4,9.3c0,0,3.2,18.9-4.1,32.6l4.5,8.5l-8.2,11.7c0,0,1.4,18.5-3.6,22.6c-5,4,4.1,40.3-5,59.2
			c-9.1,18.9-16.8,42.3-23.6,45.5c-6.8,3.2-9.1,6.8-9.1,6.8l2.7,12.5l42.2,12.6c3.9-5.9,9.2-10.1,16.2-11.3
			c34.5-5.6,125.5-40.3,125.5-40.3l37.3-20.9l4.5-16.9c0,0-10,3.2-22.7-5.6c-12.7-8.9-31.5-13.9-34.8-26.3s-26.1-11.6-21.5-27.7
			c4.5-16.1,0.9-76.5,71.8-123.3s91.8-31.4,91.8-31.4s38.2-13.7,71.8,25C768,95,746.1,67.6,768,95c21.8,27.4,30,54,30,54
			s4.5,15.3,0,21.8c-4.5,6.4,4.9,12.1,2,22.6c-2.9,10.5,2.3,14.3,0.6,20.5c-1.7,6.1,6,20.6,0.3,25.5c-5.7,4.8,17.1,21.8,11.6,27.4
			c-5.5,5.6,64.5-1.6,117.3,30.6c4.4,2.7,8.2,7.8,11.4,14.7c14.3-15.4,22.9-24.4,22.9-24.4s-30-1.6,0-33.8c0,0-25.5-15.7,0.9-54.4
			c0,0-9.1-23.8-4.5-34.2c4.5-10.5-19.1-12.9-13.2-30.6c5.9-17.7,7.7-24.2,7.7-24.2S944,67.6,964,51.5c20-16.1,70.9-55.6,110-41.9
			s60.9,13.7,82.7,43.5c21.8,29.8,17.3,60.4,11.8,66.1c-5.5,5.6,8.1,10.5,4.5,36.3c-3.6,25.8-2.7,36.3-12.7,38.7
			c-10,2.4-17.3,8.4-17.3,8.4l20,5.7l10.6,19.8c0,0,9.4,6.4,13.1,14.5c3.6,8.1,26.4,14.5,40,20.1c13.6,5.6,11.8,12.9,11.8,12.9
			s70.9-8.9,98.2,38.7c9.1,15.9,16.3,41.6,21.4,68.6V-97.1H1.5V399C6.5,367.9,21.2,318.1,64.2,292.9z"/>
		<polygon class="st31" points="1.5,694.4 1.5,694.9 74.6,694.9 		"/>
		<polygon class="st31" points="942.9,694.8 904,694.9 1358.1,694.9 1358.1,689.9 		"/>
	</g>
</g>
<g id="Layer_4" class="st0">
	<g class="st29">
		<path class="st32" d="M134.9,453.4l-16.5,130.5c0,0,20,42.6-22.8,189.7h1160.7l-1.9-175.6l-28.9-113.4l-89.6-65.7L384,460.2
			l-195.1-10.6L134.9,453.4"/>
		<g>
			<g>
				<path class="st27" d="M835.7,467.7c0.5-2.1,0.8-4.2,0.8-6.4c0-12.7-8.6-23.4-20.6-27.3c-6.6-18.3-27.3-31.7-52-31.7
					c-4.6,0-9,0.5-13.3,1.4c-13.2-17.4-37.9-29.2-66.3-29.2c-30.1,0-56.1,13.2-68.6,32.4c-5.7-2.9-12.1-4.6-18.9-4.6
					c-18.9,0-34.9,12.6-40.5,30.2c-0.7,0-1.4-0.1-2.2-0.1c-16.9,0-30.5,13-30.5,28.9c0,2.2,0.3,4.4,0.8,6.4H835.7z"/>
				<path class="st28" d="M803.6,499.1c0.4-1.4,0.6-3,0.6-4.5c0-8.8-6.9-16.3-16.5-19.1c-5.3-12.8-21.9-22.1-41.7-22.1
					c-3.7,0-7.2,0.4-10.6,1C724.9,442.2,705,434,682.3,434c-24.1,0-45,9.2-55,22.6c-4.6-2-9.7-3.2-15.1-3.2
					c-15.1,0-28,8.8-32.5,21.1c-0.6,0-1.2-0.1-1.7-0.1c-13.5,0-24.5,9-24.5,20.2c0,1.5,0.2,3,0.6,4.5H803.6z"/>
				<path class="st28" d="M962.6,499.1c0.4-2.3,0.6-4.7,0.6-7.2c0-14.1-6.9-26-16.5-30.4c-5.3-20.3-21.9-35.2-41.7-35.2
					c-3.7,0-7.2,0.6-10.6,1.5c-10.5-19.4-30.4-32.5-53.2-32.5c-24.1,0-45,14.7-55,36c-4.6-3.2-9.7-5.1-15.1-5.1
					c-15.1,0-28,14.1-32.5,33.5c-0.6-0.1-1.2-0.1-1.7-0.1c-13.5,0-24.5,14.4-24.5,32.2c0,2.5,0.2,4.9,0.6,7.2H962.6z"/>
				<path class="st28" d="M1087.9,545.9c0.4-2.3,0.6-4.7,0.6-7.2c0-14.1-6.9-26-16.5-30.4c-5.3-20.3-21.9-35.2-41.7-35.2
					c-3.7,0-7.2,0.6-10.6,1.5c-10.5-19.4-30.4-32.5-53.2-32.5c-24.1,0-45,14.7-55,36c-4.6-3.2-9.7-5.1-15.1-5.1
					c-15.1,0-28,14.1-32.5,33.5c-0.6-0.1-1.2-0.1-1.7-0.1c-13.5,0-24.5,14.4-24.5,32.2c0,2.5,0.2,4.9,0.6,7.2H1087.9z"/>
				<path class="st28" d="M616.3,519.7c0.4-2.1,0.6-4.2,0.6-6.4c0-12.6-6.9-23.3-16.5-27.2c-5.3-18.2-21.9-31.5-41.7-31.5
					c-3.7,0-7.2,0.5-10.6,1.4c-10.5-17.3-30.4-29-53.2-29c-24.1,0-45,13.1-55,32.2c-4.6-2.9-9.7-4.5-15.1-4.5
					c-15.1,0-28,12.6-32.5,30c-0.6,0-1.2-0.1-1.7-0.1c-13.5,0-24.5,12.9-24.5,28.8c0,2.2,0.2,4.3,0.6,6.4H616.3z"/>
			</g>
			<g>
				<polygon class="st2" points="810.2,493.3 810.2,432.9 753.7,483 748.1,379.5 753.9,378.6 753.9,369.6 752.1,369.6 713.4,369.6 
					711.7,369.6 711.7,378.6 717.6,379.5 712.5,459.2 674.1,493.3 674.1,432.9 606,493.3 606,432.9 538,493.3 538,432.9 
					438.6,521.6 464.2,655.1 532.3,655.1 538,655.1 600.3,655.1 606,655.1 668.4,655.1 674.1,655.1 736.5,655.1 742.1,655.1 
					804.5,655.1 810.2,655.1 878.3,655.1 878.3,432.9 				"/>
				<ellipse class="st2" cx="734.6" cy="364.3" rx="13.9" ry="10.2"/>
				<ellipse class="st2" cx="795.3" cy="336.1" rx="10.6" ry="9.4"/>
				<ellipse class="st2" cx="752.2" cy="347.9" rx="24.5" ry="16.2"/>
				<ellipse class="st2" cx="776.8" cy="339.5" rx="18.6" ry="13.1"/>
			</g>
			<g>
				<g>
					<g>
						<path class="st28" d="M285.2,442.6c0,0-0.5-8.3,5.9-12.3c3.1-2,10.4-3.1,10.4-3.1s0.4-2.1,0.7-3.2c0.2-0.7,7.5-2.8,7.5-3.4
							c0,0-5.4-4.1-4.6-8.1c0,0-1.4-3.5-0.7-5.1c0.7-1.6-2.3-3.2-2-4.6c0.7-2.7,1.1-3.6,1.1-3.6s-1.6-6.4,1.4-8.7
							c3-2.4,10.5-8.3,16.4-6.2s9.1,2,12.3,6.5c3.2,4.4,2.6,9,1.8,9.8s0.3,1.3-0.3,5.1c-0.5,3.8-2.8,6.3-3.1,7.7
							c-0.4,1.8-1.6,4.4-1.6,4.4s7.1,0,7.7,1.2c0.5,1.2,3.9,2.2,5.9,3c2,0.8,1.8,1.9,1.8,1.9s10.5-1.3,14.6,5.8s4.9,74.7,4.9,74.7
							h-80.8L285.2,442.6z"/>
					</g>
					<g>
						<path class="st27" d="M196.2,434.4c0,0-0.5-8.3,5.9-12.3c3.1-2,10.4-3.1,10.4-3.1s0.4-2.1,0.7-3.2c0.2-0.7,7.5-2.8,7.5-3.4
							c0,0-5.4-4.1-4.6-8.1c0,0-1.4-3.5-0.7-5.1s-2.3-3.2-2-4.6c0.7-2.7,1.1-3.6,1.1-3.6s-1.6-6.4,1.4-8.7c3-2.4,10.5-8.3,16.4-6.2
							c5.8,2,9.1,2,12.3,6.5c3.2,4.4,2.6,9,1.8,9.8s0.3,1.3-0.3,5.1c-0.5,3.8-2.8,6.3-3.1,7.7c-0.4,1.8-1.6,4.4-1.6,4.4
							s7.1,0,7.7,1.2c0.5,1.2,3.9,2.2,5.9,3c2,0.8,1.8,1.9,1.8,1.9s10.5-1.3,14.6,5.8s3.5,29,3.5,29h-80.8L196.2,434.4z"/>
					</g>
					<g>
						<path class="st27" d="M263.5,434.8c0,0-0.4-6.4,4.6-9.5c2.4-1.5,8-2.4,8-2.4s0.3-1.6,0.5-2.5c0.2-0.5,5.8-2.2,5.8-2.6
							c0,0-4.2-3.2-3.5-6.3c0,0-1-2.7-0.5-3.9c0.5-1.2-1.8-2.4-1.5-3.5c0.6-2.1,0.9-2.8,0.9-2.8s-1.3-4.9,1-6.8s8.2-6.4,12.7-4.8
							c4.5,1.6,7,1.6,9.5,5c2.5,3.4,2,7,1.4,7.6s0.2,1-0.2,4c-0.4,3-2.2,4.9-2.4,5.9c-0.3,1.4-1.2,3.4-1.2,3.4s5.5,0,5.9,0.9
							c0.4,0.9,3,1.7,4.6,2.3c1.6,0.6,1.4,1.5,1.4,1.5s8.2-1,11.3,4.5c3.1,5.5,0.6,70.9,0.6,70.9l-55.1-3.5L263.5,434.8z"/>
					</g>
					<g>
						<path class="st28" d="M160.8,439.7c0,0-0.4-7.2,5.2-10.6c2.7-1.7,9-2.7,9-2.7s0.3-1.8,0.6-2.7c0.2-0.6,6.5-2.4,6.5-2.9
							c0,0-4.7-3.6-4-7c0,0-1.2-3.1-0.6-4.4c0.6-1.4-2-2.7-1.7-3.9c0.6-2.3,1-3.1,1-3.1s-1.4-5.5,1.2-7.6c2.6-2.1,9.1-7.2,14.2-5.4
							c5,1.8,7.9,1.8,10.7,5.6c2.8,3.8,2.2,7.8,1.5,8.5c-0.7,0.7,0.2,1.1-0.2,4.5c-0.5,3.3-2.4,5.5-2.7,6.6
							c-0.4,1.6-1.4,3.8-1.4,3.8s6.2,0,6.6,1s3.4,1.9,5.2,2.6c1.8,0.7,1.5,1.7,1.5,1.7s9.1-1.1,12.7,5s3,71.8,3,71.8H159
							L160.8,439.7z"/>
					</g>
					<g>
						<path class="st28" d="M97,446c0,0-0.5-9.6,6.9-14.2c3.6-2.3,12-3.6,12-3.6s0.4-2.4,0.8-3.7c0.2-0.8,8.6-3.2,8.7-3.9
							c0,0-6.3-4.8-5.3-9.4c0,0-1.6-4.1-0.8-5.9c0.8-1.8-2.7-3.7-2.3-5.3c0.8-3.1,1.3-4.2,1.3-4.2s-1.9-7.4,1.6-10.1
							s12.2-9.6,19-7.2c6.7,2.4,10.5,2.4,14.3,7.5s3,10.4,2,11.4c-0.9,1,0.3,1.5-0.3,6c-0.6,4.4-3.3,7.3-3.6,8.9
							c-0.5,2.1-1.8,5.1-1.8,5.1s8.3,0,8.9,1.3c0.6,1.4,4.5,2.5,6.9,3.5c2.4,1,2,2.2,2,2.2s12.2-1.5,16.9,6.7
							c4.7,8.2,12.7,81,12.7,81L87.2,522.1L97,446z"/>
					</g>
					<g>
						<path class="st2" d="M217.4,446c0,0-0.5-9.6,6.9-14.2c3.6-2.3,12-3.6,12-3.6s0.4-2.4,0.8-3.7c0.2-0.8,8.6-3.2,8.7-3.9
							c0,0-6.3-4.8-5.3-9.4c0,0-1.6-4.1-0.8-5.9c0.8-1.8-2.7-3.7-2.3-5.3c0.8-3.1,1.3-4.2,1.3-4.2s-1.9-7.4,1.6-10.1
							s12.2-9.6,19-7.2c6.7,2.4,10.5,2.4,14.3,7.5c3.8,5.1,3,10.4,2,11.4c-0.9,1,0.3,1.5-0.3,6c-0.6,4.4-3.3,7.3-3.6,8.9
							c-0.5,2.1-1.8,5.1-1.8,5.1s8.3,0,8.9,1.3s4.5,2.5,6.9,3.5s2,2.2,2,2.2s12.2-1.5,16.9,6.7s4.1,80.4,4.1,80.4H215L217.4,446z"/>
					</g>
				</g>
				<g>
					<g>
						<path class="st2" d="M314.6,511.7c0,0-0.6-10.8,7.8-16c4.1-2.6,13.5-4,13.5-4s0.5-2.7,0.9-4.1c0.3-0.9,9.7-3.6,9.8-4.4
							c0,0-7.1-5.4-6-10.6c0,0-1.8-4.6-0.9-6.6c0.9-2-3.1-4.1-2.6-5.9c1-3.5,1.5-4.7,1.5-4.7s-2.1-8.3,1.8-11.4
							c3.9-3.1,13.8-10.8,21.3-8.1s11.8,2.7,16,8.4c4.2,5.8,3.4,11.7,2.3,12.8c-1.1,1.1,0.4,1.7-0.3,6.7c-0.7,5-3.7,8.3-4.1,10
							c-0.5,2.4-2.1,5.7-2.1,5.7s9.3-0.1,10,1.5s5.1,2.8,7.8,3.9c2.6,1.1,2.3,2.5,2.3,2.5s13.8-1.7,19,7.5
							c5.3,9.2,4.6,37.9,4.6,37.9H311.9L314.6,511.7z"/>
					</g>
					<g>
						<path class="st27" d="M198.4,501.1c0,0-0.6-10.8,7.8-16c4.1-2.6,13.5-4,13.5-4s0.5-2.7,0.9-4.1c0.3-0.9,9.7-3.6,9.8-4.4
							c0,0-7.1-5.4-6-10.6c0,0-1.8-4.6-0.9-6.6c0.9-2-3.1-4.1-2.6-5.9c1-3.5,1.5-4.7,1.5-4.7s-2.1-8.3,1.8-11.4
							c3.9-3.1,13.8-10.8,21.3-8.1s11.8,2.7,16,8.4c4.2,5.8,3.4,11.7,2.3,12.8c-1.1,1.1,0.4,1.7-0.3,6.7c-0.7,5-3.7,8.3-4.1,10
							c-0.5,2.4-2.1,5.7-2.1,5.7s9.3-0.1,10,1.5s5.1,2.8,7.8,3.9c2.6,1.1,2.3,2.5,2.3,2.5s13.8-1.7,19,7.5
							c5.3,9.2,4.6,37.9,4.6,37.9H195.7L198.4,501.1z"/>
					</g>
					<g>
						<path class="st27" d="M286.3,501.6c0,0-0.5-8.4,6-12.4c3.2-2,10.5-3.1,10.5-3.1s0.4-2.1,0.7-3.2c0.2-0.7,7.5-2.8,7.6-3.4
							c0,0-5.5-4.2-4.6-8.2c0,0-1.4-3.6-0.7-5.1c0.7-1.6-2.4-3.2-2-4.6c0.7-2.7,1.2-3.6,1.2-3.6s-1.6-6.4,1.4-8.8
							c3-2.4,10.6-8.3,16.5-6.3c5.9,2.1,9.1,2.1,12.4,6.5c3.3,4.5,2.6,9.1,1.8,9.9s0.3,1.3-0.3,5.2c-0.5,3.9-2.8,6.4-3.1,7.7
							c-0.4,1.8-1.6,4.4-1.6,4.4s7.2,0,7.7,1.2c0.5,1.2,4,2.2,6,3c2,0.8,1.8,1.9,1.8,1.9s10.6-1.3,14.7,5.8s7.6,70.9,7.6,70.9
							l-85.7-41.6L286.3,501.6z"/>
					</g>
					<g>
						<path class="st28" d="M152.3,508.1c0,0-0.5-9.4,6.7-13.9c3.6-2.2,11.7-3.5,11.7-3.5s0.4-2.3,0.8-3.6c0.2-0.8,8.4-3.1,8.5-3.8
							c0,0-6.1-4.7-5.2-9.2c0,0-1.5-4-0.8-5.8c0.8-1.8-2.7-3.6-2.2-5.2c0.8-3,1.3-4.1,1.3-4.1s-1.8-7.2,1.5-9.9
							c3.4-2.7,11.9-9.4,18.5-7c6.6,2.3,10.2,2.3,13.9,7.3c3.7,5,2.9,10.2,2,11.1c-0.9,0.9,0.3,1.5-0.3,5.8
							c-0.6,4.3-3.2,7.2-3.5,8.7c-0.5,2.1-1.8,4.9-1.8,4.9s8.1,0,8.7,1.3s4.4,2.4,6.7,3.4c2.3,0.9,2,2.2,2,2.2s11.9-1.5,16.5,6.5
							c4.6,8,4.2,66,4.2,66L150,526.3L152.3,508.1z"/>
					</g>
					<g>
						<path class="st2" d="M84.1,532.5c0,0-0.7-12.5,9-18.6c4.8-3,15.7-4.6,15.7-4.6s0.5-3.1,1-4.8c0.3-1,11.3-4.2,11.3-5.1
							c0,0-8.2-6.3-6.9-12.3c0,0-2-5.3-1-7.7c1-2.4-3.5-4.8-3-6.9c1.1-4,1.7-5.4,1.7-5.4s-2.5-9.6,2-13.2c4.5-3.6,16-12.5,24.7-9.4
							c8.8,3.1,13.7,3.1,18.6,9.8c4.9,6.7,3.9,13.6,2.7,14.9c-1.2,1.3,0.4,2-0.4,7.8c-0.8,5.8-4.3,9.6-4.7,11.6
							c-0.6,2.8-2.4,6.6-2.4,6.6s10.8-0.1,11.6,1.8c0.8,1.8,5.9,3.3,9,4.5s2.7,2.9,2.7,2.9s16-2,22.1,8.7s5.3,60.2,5.3,60.2
							L81,571.9L84.1,532.5z"/>
					</g>
					<g>
						<path class="st2" d="M6,547.7c0,0,4-14.4,13.7-20.5c4.8-3,15.7-4.6,15.7-4.6s0.5-3.1,1-4.8c0.3-1,11.3-4.2,11.3-5.1
							c0,0-8.2-6.3-6.9-12.3c0,0-2-5.3-1-7.7s-3.5-4.8-3-6.9c1.1-4,1.7-5.4,1.7-5.4s-2.5-9.6,2-13.2c4.5-3.6,16-12.5,24.7-9.4
							c8.8,3.1,13.7,3.1,18.6,9.8c4.9,6.7,3.9,13.6,2.7,14.9c-1.2,1.3,0.4,2-0.4,7.8c-0.8,5.8-4.3,9.6-4.7,11.6
							c-0.6,2.8-2.4,6.6-2.4,6.6s10.8-0.1,11.6,1.8c0.8,1.8,5.9,3.3,9,4.5c3.1,1.3,2.7,2.9,2.7,2.9s16-2,22.1,8.7
							c6.1,10.7,5.3,60.2,5.3,60.2L-0.9,564.9L6,547.7z"/>
					</g>
					<g>
						<path class="st2" d="M199.5,564c0,0-0.9-16.3,11.7-24.1c6.2-3.9,20.4-6,20.4-6s0.7-4.1,1.4-6.2c0.4-1.4,14.7-5.5,14.8-6.6
							c0,0-10.7-8.2-9-16c0,0-2.7-7-1.3-10c1.3-3.1-4.6-6.2-3.9-9c1.4-5.3,2.3-7.1,2.3-7.1s-3.2-12.5,2.7-17.2
							c5.9-4.7,20.8-16.3,32.2-12.3c11.4,4,17.8,4,24.2,12.7s5.1,17.7,3.5,19.3c-1.6,1.7,0.6,2.6-0.5,10.1
							c-1.1,7.5-5.5,12.5-6.1,15.1c-0.8,3.6-3.1,8.6-3.1,8.6s14-0.1,15.1,2.3s7.7,4.2,11.7,5.9c4,1.7,3.5,3.8,3.5,3.8
							s32.7,6.8,40.7,20.7c8,13.9,7.7,47.7,7.7,47.7H195.4L199.5,564z"/>
					</g>
					<g>
						<path class="st2" d="M359.5,547.9c0,0-0.6-11.7,7.8-17.3c4.1-2.8,13.5-4.3,13.5-4.3s0.5-2.9,0.9-4.5c0.3-1,9.7-3.9,9.8-4.8
							c0,0-7.1-5.8-6-11.4c0,0-1.8-5-0.9-7.2s-3.1-4.4-2.6-6.4c1-3.8,1.5-5.1,1.5-5.1s-2.1-8.9,1.8-12.3c3.9-3.4,13.8-11.6,21.3-8.8
							s11.8,2.9,16,9.1c4.2,6.2,3.4,12.7,2.3,13.8c-1.1,1.2,0.4,1.8-0.3,7.2c-0.7,5.4-3.7,8.9-4.1,10.8c-0.5,2.6-2.1,6.2-2.1,6.2
							s9.3-0.1,10,1.6s5.1,3,7.8,4.2c2.6,1.2,2.3,2.7,2.3,2.7s13.8-1.9,19,8.1c5.3,10,4.6,48.4,4.6,48.4H356.8L359.5,547.9z"/>
					</g>
				</g>
			</g>
			<g>
				<g>
					<g>
						<path class="st28" d="M1164.4,483c0,0-0.5-8.3,5.9-12.3c3.1-2,10.4-3.1,10.4-3.1s0.4-2.1,0.7-3.2c0.2-0.7,7.5-2.8,7.5-3.4
							c0,0-5.4-4.1-4.6-8.1c0,0-1.4-3.5-0.7-5.1c0.7-1.6-2.3-3.2-2-4.6c0.7-2.7,1.1-3.6,1.1-3.6s-1.6-6.4,1.4-8.7
							c3-2.4,10.5-8.3,16.4-6.2c5.8,2,9.1,2,12.3,6.5c3.2,4.4,2.6,9,1.8,9.8s0.3,1.3-0.3,5.1c-0.5,3.8-2.8,6.3-3.1,7.7
							c-0.4,1.8-1.6,4.4-1.6,4.4s7.1,0,7.7,1.2c0.5,1.2,3.9,2.2,5.9,3s1.8,1.9,1.8,1.9s10.5-1.3,14.6,5.8s4.9,74.7,4.9,74.7h-80.8
							L1164.4,483z"/>
					</g>
					<g>
						<path class="st27" d="M1075.3,474.8c0,0-0.5-8.3,5.9-12.3c3.1-2,10.4-3.1,10.4-3.1s0.4-2.1,0.7-3.2c0.2-0.7,7.5-2.8,7.5-3.4
							c0,0-5.4-4.1-4.6-8.1c0,0-1.4-3.5-0.7-5.1s-2.3-3.2-2-4.6c0.7-2.7,1.1-3.6,1.1-3.6s-1.6-6.4,1.4-8.7c3-2.4,10.5-8.3,16.4-6.2
							c5.8,2,9.1,2,12.3,6.5c3.2,4.4,2.6,9,1.8,9.8c-0.8,0.8,0.3,1.3-0.3,5.1c-0.5,3.8-2.8,6.3-3.1,7.7c-0.4,1.8-1.6,4.4-1.6,4.4
							s7.1,0,7.7,1.2c0.5,1.2,3.9,2.2,5.9,3s1.8,1.9,1.8,1.9s10.5-1.3,14.6,5.8c4.1,7.1,3.5,29,3.5,29h-80.8L1075.3,474.8z"/>
					</g>
					<g>
						<path class="st27" d="M1142.7,475.2c0,0-0.4-6.4,4.6-9.5c2.4-1.5,8-2.4,8-2.4s0.3-1.6,0.5-2.5c0.2-0.5,5.8-2.2,5.8-2.6
							c0,0-4.2-3.2-3.5-6.3c0,0-1-2.7-0.5-3.9c0.5-1.2-1.8-2.4-1.5-3.5c0.6-2.1,0.9-2.8,0.9-2.8s-1.3-4.9,1-6.8
							c2.3-1.9,8.2-6.4,12.7-4.8c4.5,1.6,7,1.6,9.5,5c2.5,3.4,2,7,1.4,7.6c-0.6,0.6,0.2,1-0.2,4c-0.4,3-2.2,4.9-2.4,5.9
							c-0.3,1.4-1.2,3.4-1.2,3.4s5.5,0,5.9,0.9c0.4,0.9,3,1.7,4.6,2.3c1.6,0.6,1.4,1.5,1.4,1.5s8.2-1,11.3,4.5
							c3.1,5.5,0.6,70.9,0.6,70.9l-55.1-3.5L1142.7,475.2z"/>
					</g>
					<g>
						<path class="st28" d="M1040,480.2c0,0-0.4-7.2,5.2-10.6c2.7-1.7,9-2.7,9-2.7s0.3-1.8,0.6-2.7c0.2-0.6,6.5-2.4,6.5-2.9
							c0,0-4.7-3.6-4-7c0,0-1.2-3.1-0.6-4.4c0.6-1.4-2-2.7-1.7-3.9c0.6-2.3,1-3.1,1-3.1s-1.4-5.5,1.2-7.6c2.6-2.1,9.1-7.2,14.2-5.4
							c5,1.8,7.9,1.8,10.7,5.6s2.2,7.8,1.5,8.5c-0.7,0.7,0.2,1.1-0.2,4.5c-0.5,3.3-2.4,5.5-2.7,6.6c-0.4,1.6-1.4,3.8-1.4,3.8
							s6.2,0,6.6,1c0.5,1,3.4,1.9,5.2,2.6c1.8,0.7,1.5,1.7,1.5,1.7s9.1-1.1,12.7,5c3.5,6.1,3,71.8,3,71.8h-70.1L1040,480.2z"/>
					</g>
					<g>
						<path class="st28" d="M976.2,486.4c0,0-0.5-9.6,6.9-14.2c3.6-2.3,12-3.6,12-3.6s0.4-2.4,0.8-3.7c0.2-0.8,8.6-3.2,8.7-3.9
							c0,0-6.3-4.8-5.3-9.4c0,0-1.6-4.1-0.8-5.9c0.8-1.8-2.7-3.7-2.3-5.3c0.8-3.1,1.3-4.2,1.3-4.2s-1.9-7.4,1.6-10.1
							c3.4-2.8,12.2-9.6,19-7.2c6.7,2.4,10.5,2.4,14.3,7.5c3.8,5.1,3,10.4,2,11.4s0.3,1.5-0.3,6c-0.6,4.4-3.3,7.3-3.6,8.9
							c-0.5,2.1-1.8,5.1-1.8,5.1s8.3,0,8.9,1.3c0.6,1.4,4.5,2.5,6.9,3.5c2.4,1,2,2.2,2,2.2s12.2-1.5,16.9,6.7
							c4.7,8.2,12.7,81,12.7,81l-109.8,10.2L976.2,486.4z"/>
					</g>
					<g>
						<path class="st2" d="M1096.6,486.4c0,0-0.5-9.6,6.9-14.2c3.6-2.3,12-3.6,12-3.6s0.4-2.4,0.8-3.7c0.2-0.8,8.6-3.2,8.7-3.9
							c0,0-6.3-4.8-5.3-9.4c0,0-1.6-4.1-0.8-5.9c0.8-1.8-2.7-3.7-2.3-5.3c0.8-3.1,1.3-4.2,1.3-4.2s-1.9-7.4,1.6-10.1
							c3.4-2.8,12.2-9.6,19-7.2c6.7,2.4,10.5,2.4,14.3,7.5c3.8,5.1,3,10.4,2,11.4c-0.9,1,0.3,1.5-0.3,6s-3.3,7.3-3.6,8.9
							c-0.5,2.1-1.8,5.1-1.8,5.1s8.3,0,8.9,1.3s4.5,2.5,6.9,3.5c2.4,1,2,2.2,2,2.2s12.2-1.5,16.9,6.7c4.7,8.2,4.1,80.4,4.1,80.4
							h-93.7L1096.6,486.4z"/>
					</g>
				</g>
				<g>
					<g>
						<path class="st2" d="M1216.8,517.1c0,0-0.6-10.8,7.8-16c4.1-2.6,13.5-4,13.5-4s0.5-2.7,0.9-4.1c0.3-0.9,9.7-3.6,9.8-4.4
							c0,0-7.1-5.4-6-10.6c0,0-1.8-4.6-0.9-6.6c0.9-2-3.1-4.1-2.6-5.9c1-3.5,1.5-4.7,1.5-4.7s-2.1-8.3,1.8-11.4
							c3.9-3.1,13.8-10.8,21.3-8.1c7.6,2.7,11.8,2.7,16,8.4s3.4,11.7,2.3,12.8c-1.1,1.1,0.4,1.7-0.3,6.7c-0.7,5-3.7,8.3-4.1,10
							c-0.5,2.4-2.1,5.7-2.1,5.7s9.3-0.1,10,1.5s5.1,2.8,7.8,3.9c2.6,1.1,2.3,2.5,2.3,2.5s13.8-1.7,19,7.5
							c5.3,9.2,4.6,37.9,4.6,37.9h-105.4L1216.8,517.1z"/>
					</g>
					<g>
						<path class="st27" d="M1100.6,506.5c0,0-0.6-10.8,7.8-16c4.1-2.6,13.5-4,13.5-4s0.5-2.7,0.9-4.1c0.3-0.9,9.7-3.6,9.8-4.4
							c0,0-7.1-5.4-6-10.6c0,0-1.8-4.6-0.9-6.6c0.9-2-3.1-4.1-2.6-5.9c1-3.5,1.5-4.7,1.5-4.7s-2.1-8.3,1.8-11.4
							c3.9-3.1,13.8-10.8,21.3-8.1c7.6,2.7,11.8,2.7,16,8.4s3.4,11.7,2.3,12.8c-1.1,1.1,0.4,1.7-0.3,6.7c-0.7,5-3.7,8.3-4.1,10
							c-0.5,2.4-2.1,5.7-2.1,5.7s9.3-0.1,10,1.5s5.1,2.8,7.8,3.9c2.6,1.1,2.3,2.5,2.3,2.5s13.8-1.7,19,7.5
							c5.3,9.2,4.6,37.9,4.6,37.9h-105.4L1100.6,506.5z"/>
					</g>
					<g>
						<path class="st27" d="M1188.4,507c0,0-0.5-8.4,6-12.4c3.2-2,10.5-3.1,10.5-3.1s0.4-2.1,0.7-3.2c0.2-0.7,7.5-2.8,7.6-3.4
							c0,0-5.5-4.2-4.6-8.2c0,0-1.4-3.6-0.7-5.1s-2.4-3.2-2-4.6c0.7-2.7,1.2-3.6,1.2-3.6s-1.6-6.4,1.4-8.8c3-2.4,10.6-8.3,16.5-6.3
							c5.9,2.1,9.1,2.1,12.4,6.5s2.6,9.1,1.8,9.9c-0.8,0.8,0.3,1.3-0.3,5.2c-0.5,3.9-2.8,6.4-3.1,7.7c-0.4,1.8-1.6,4.4-1.6,4.4
							s7.2,0,7.7,1.2c0.5,1.2,4,2.2,6,3c2,0.8,1.8,1.9,1.8,1.9s10.6-1.3,14.7,5.8s7.6,70.9,7.6,70.9l-85.7-41.6L1188.4,507z"/>
					</g>
					<g>
						<path class="st28" d="M1054.5,513.4c0,0-0.5-9.4,6.7-13.9c3.6-2.2,11.7-3.5,11.7-3.5s0.4-2.3,0.8-3.6c0.2-0.8,8.4-3.1,8.5-3.8
							c0,0-6.1-4.7-5.2-9.2c0,0-1.5-4-0.8-5.8c0.8-1.8-2.7-3.6-2.2-5.2c0.8-3,1.3-4.1,1.3-4.1s-1.8-7.2,1.5-9.9s11.9-9.4,18.5-7
							c6.6,2.3,10.2,2.3,13.9,7.3c3.7,5,2.9,10.2,2,11.1c-0.9,0.9,0.3,1.5-0.3,5.8c-0.6,4.3-3.2,7.2-3.5,8.7
							c-0.5,2.1-1.8,4.9-1.8,4.9s8.1,0,8.7,1.3c0.6,1.4,4.4,2.4,6.7,3.4c2.3,0.9,2,2.2,2,2.2s11.9-1.5,16.5,6.5c4.6,8,4.2,66,4.2,66
							l-91.7-33.2L1054.5,513.4z"/>
					</g>
					<g>
						<path class="st2" d="M986.3,537.9c0,0-0.7-12.5,9-18.6c4.8-3,15.7-4.6,15.7-4.6s0.5-3.1,1-4.8c0.3-1,11.3-4.2,11.3-5.1
							c0,0-8.2-6.3-6.9-12.3c0,0-2-5.3-1-7.7c1-2.4-3.5-4.8-3-6.9c1.1-4,1.7-5.4,1.7-5.4s-2.5-9.6,2-13.2c4.5-3.6,16-12.5,24.7-9.4
							c8.8,3.1,13.7,3.1,18.6,9.8c4.9,6.7,3.9,13.6,2.7,14.9c-1.2,1.3,0.4,2-0.4,7.8c-0.8,5.8-4.3,9.6-4.7,11.6
							c-0.6,2.8-2.4,6.6-2.4,6.6s10.8-0.1,11.6,1.8c0.8,1.8,5.9,3.3,9,4.5s2.7,2.9,2.7,2.9s16-2,22.1,8.7
							c6.1,10.7,5.3,60.2,5.3,60.2l-122.3-1.3L986.3,537.9z"/>
					</g>
					<g>
						<path class="st2" d="M912.8,551.1c0,0-0.7-12.5,9-18.6c4.8-3,15.7-4.6,15.7-4.6s0.5-3.1,1-4.8c0.3-1,11.3-4.2,11.3-5.1
							c0,0-8.2-6.3-6.9-12.3c0,0-2-5.3-1-7.7c1-2.4-3.5-4.8-3-6.9c1.1-4,1.7-5.4,1.7-5.4s-2.5-9.6,2-13.2c4.5-3.6,16-12.5,24.7-9.4
							c8.8,3.1,13.7,3.1,18.6,9.8c4.9,6.7,3.9,13.6,2.7,14.9s0.4,2-0.4,7.8c-0.8,5.8-4.3,9.6-4.7,11.6c-0.6,2.8-2.4,6.6-2.4,6.6
							s10.8-0.1,11.6,1.8s5.9,3.3,9,4.5c3.1,1.3,2.7,2.9,2.7,2.9s16-2,22.1,8.7c6.1,10.7,5.3,60.2,5.3,60.2l-122.3-1.3L912.8,551.1z
							"/>
					</g>
					<g>
						<path class="st2" d="M839.4,564.4c0,0-0.7-12.5,9-18.6c4.8-3,15.7-4.6,15.7-4.6s0.5-3.1,1-4.8c0.3-1,11.3-4.2,11.3-5.1
							c0,0-8.2-6.3-6.9-12.3c0,0-2-5.3-1-7.7s-3.5-4.8-3-6.9c1.1-4,1.7-5.4,1.7-5.4s-2.5-9.6,2-13.2c4.5-3.6,16-12.5,24.7-9.4
							c8.8,3.1,13.7,3.1,18.6,9.8c4.9,6.7,3.9,13.6,2.7,14.9s0.4,2-0.4,7.8c-0.8,5.8-4.3,9.6-4.7,11.6c-0.6,2.8-2.4,6.6-2.4,6.6
							s10.8-0.1,11.6,1.8c0.8,1.8,5.9,3.3,9,4.5c3.1,1.3,2.7,2.9,2.7,2.9s16-2,22.1,8.7c6.1,10.7,5.3,60.2,5.3,60.2l-122.3-1.3
							L839.4,564.4z"/>
					</g>
					<g>
						<path class="st2" d="M1101.7,569.3c0,0-0.9-16.3,11.7-24.1c6.2-3.9,20.4-6,20.4-6s0.7-4.1,1.4-6.2c0.4-1.4,14.7-5.5,14.8-6.6
							c0,0-10.7-8.2-9-16c0,0-2.7-7-1.3-10c1.3-3.1-4.6-6.2-3.9-9c1.4-5.3,2.3-7.1,2.3-7.1s-3.2-12.5,2.7-17.2s20.8-16.3,32.2-12.3
							s17.8,4,24.2,12.7s5.1,17.7,3.5,19.3c-1.6,1.7,0.6,2.6-0.5,10.1c-1.1,7.5-5.5,12.5-6.1,15.1c-0.8,3.6-3.1,8.6-3.1,8.6
							s14-0.1,15.1,2.3c1.1,2.4,7.7,4.2,11.7,5.9c4,1.7,3.5,3.8,3.5,3.8s32.7,6.8,40.7,20.7c8,13.9,7.7,47.7,7.7,47.7h-171.8
							L1101.7,569.3z"/>
					</g>
					<g>
						<path class="st2" d="M1261.6,553.3c0,0-0.6-11.7,7.8-17.3c4.1-2.8,13.5-4.3,13.5-4.3s0.5-2.9,0.9-4.5c0.3-1,9.7-3.9,9.8-4.8
							c0,0-7.1-5.8-6-11.4c0,0-1.8-5-0.9-7.2c0.9-2.2-3.1-4.4-2.6-6.4c1-3.8,1.5-5.1,1.5-5.1s-2.1-8.9,1.8-12.3
							c3.9-3.4,13.8-11.6,21.3-8.8c7.6,2.9,11.8,2.9,16,9.1c4.2,6.2,3.4,12.7,2.3,13.8c-1.1,1.2,0.4,1.8-0.3,7.2
							c-0.7,5.4-3.7,8.9-4.1,10.8c-0.5,2.6-2.1,6.2-2.1,6.2s9.3-0.1,10,1.6s5.1,3,7.8,4.2c2.6,1.2,2.3,2.7,2.3,2.7s13.8-1.9,19,8.1
							c5.3,10,4.6,48.4,4.6,48.4h-105.4L1261.6,553.3z"/>
					</g>
				</g>
			</g>
			<polygon class="st2" points="1364.4,774.8 0.6,774.8 -0.8,683.4 -0.9,564.9 1364.4,564.9 			"/>
		</g>
	</g>
</g>
</svg>
