<?xml version="1.0" encoding="utf-8"?>
<!-- Generator: Adobe Illustrator 28.0.0, SVG Export Plug-In . SVG Version: 6.00 Build 0)  -->
<svg version="1.1" xmlns="http://www.w3.org/2000/svg" xmlns:xlink="http://www.w3.org/1999/xlink" x="0px" y="0px"
	 viewBox="0 0 92.6 93.2" style="enable-background:new 0 0 92.6 93.2;" xml:space="preserve">
<style type="text/css">
	.st0{fill:#88462B;}
	.st1{fill:#787979;}
</style>
<g id="Layer_2">
	<circle class="st0" cx="46.5" cy="46.6" r="34.6"/>
</g>
<g id="Layer_1">
	<g>
		<g>
			<path class="st1" d="M90.7,63.2c0.8-2.2,1.5-4.5,2-6.8L86,51.8c0.4-2.9,0.4-5.8,0.2-8.7l6.8-4.3c-0.4-2.3-0.9-4.6-1.7-6.9l-8-0.6
				c-1.1-2.6-2.5-5.2-4.2-7.6l3.8-7.1c-0.7-0.9-1.5-1.8-2.4-2.7c-0.8-0.9-1.7-1.7-2.5-2.5l-7.3,3.5c-2.3-1.8-4.8-3.3-7.4-4.5L63,2.3
				c-2.2-0.8-4.5-1.5-6.8-2L51.7,7c-2.9-0.4-5.8-0.4-8.7-0.2L38.7,0c-2.3,0.4-4.6,0.9-6.9,1.7l-0.6,8c-2.6,1.1-5.2,2.5-7.6,4.2
				l-7.1-3.8c-0.9,0.7-1.8,1.5-2.6,2.4c-0.9,0.8-1.7,1.7-2.5,2.5l3.5,7.3c-1.8,2.3-3.3,4.8-4.5,7.4l-8,0.3c-0.8,2.2-1.5,4.5-2,6.8
				L7,41.4c-0.4,2.9-0.4,5.8-0.2,8.7L0,54.4c0.4,2.3,0.9,4.6,1.7,6.9l8,0.6c1.1,2.6,2.5,5.2,4.2,7.6l-3.8,7.1
				c0.7,0.9,1.5,1.8,2.4,2.7c0.8,0.9,1.7,1.7,2.5,2.5l7.3-3.5c2.3,1.8,4.8,3.3,7.4,4.5l0.3,8.1c2.2,0.8,4.5,1.5,6.8,2l4.6-6.6
				c2.9,0.4,5.8,0.4,8.7,0.2l4.3,6.8c2.3-0.4,4.6-0.9,6.9-1.7l0.6-8c2.6-1.1,5.2-2.5,7.6-4.2l7.1,3.8c0.9-0.7,1.8-1.5,2.6-2.4
				c0.9-0.8,1.7-1.7,2.5-2.5L78.2,71c1.8-2.3,3.3-4.8,4.5-7.4L90.7,63.2z M67.4,23.9L51.6,39.1c-3-2-6.8-2.1-9.9-0.2L26.6,23.1
				C38.5,13,56,13.4,67.4,23.9z M23.9,25.7L39,41.5c-2,3-2.1,6.9-0.2,9.9L23,66.5C13,54.6,13.4,37.1,23.9,25.7z M25.6,69.2
				l15.8-15.1c3,2,6.8,2.1,9.9,0.2l15.1,15.8C54.5,80.2,37,79.8,25.6,69.2z M69.1,67.5L54,51.7c2-3,2.1-6.9,0.2-9.9L70,26.7
				C80,38.5,79.6,56.1,69.1,67.5z"/>
		</g>
	</g>
</g>
</svg>
