<?xml version="1.0" encoding="utf-8"?>
<!-- Generator: Adobe Illustrator 28.0.0, SVG Export Plug-In . SVG Version: 6.00 Build 0)  -->
<svg version="1.1" id="Layer_1" xmlns="http://www.w3.org/2000/svg" xmlns:xlink="http://www.w3.org/1999/xlink" x="0px" y="0px"
	 viewBox="0 0 180.7 182.8" style="enable-background:new 0 0 180.7 182.8;" xml:space="preserve">
<style type="text/css">
	.st0{fill:#A35A3C;}
	.st1{fill:#878787;}
	.st2{fill:#B1B2B2;}
	.st3{fill:#8BA283;}
</style>
<circle class="st0" cx="90.7" cy="90.9" r="71.9"/>
<ellipse class="st1" cx="90.5" cy="91.3" rx="24.2" ry="24.2"/>
<g>
	<g>
		<path class="st2" d="M164.2,65.6c-0.7-2.1-1.6-4.2-2.5-6.2l10.3-9.3c-1.2-2.3-2.4-4.6-3.8-6.8l-13.2,4c-2.5-3.7-5.4-7.2-8.4-10.3
			l6.5-12.3c-1.9-1.8-3.9-3.5-5.9-5.1L136,27.9c-3.6-2.6-7.5-4.9-11.4-6.8l1.9-13.8c-2.4-1-4.8-1.9-7.3-2.8l-7.7,11.6
			c-4.3-1.2-8.6-2-13.1-2.5L95.6,0c-2.6-0.1-5.2-0.2-7.8-0.1l-3.3,13.5c-4.4,0.3-8.8,1-13.2,2.1L64.1,3.8c-1.2,0.4-2.5,0.8-3.7,1.2
			S58,5.9,56.8,6.4l1.6,13.8c-4.1,1.9-8,4-11.6,6.5l-10.9-8.6c-2.1,1.6-4.1,3.2-6,4.9l6.2,12.4c-3.2,3.1-6.1,6.5-8.7,10.1L14,41.2
			c-1.4,2.2-2.7,4.4-4,6.7l10,9.6c-1.9,4-3.5,8.2-4.7,12.5L1.4,70.4C0.8,72.9,0.3,75.5,0,78l12.7,5.6c-0.4,4.4-0.5,8.9-0.2,13.3
			l-12.9,5.2c0.3,2.6,0.7,5.1,1.2,7.7l13.9,0.9c0.5,2.1,1.2,4.3,1.9,6.4s1.6,4.2,2.5,6.2l-10.3,9.3c1.2,2.3,2.4,4.6,3.8,6.8
			l13.3-3.9c2.5,3.7,5.4,7.2,8.4,10.3L27.8,158c1.9,1.8,3.9,3.5,5.9,5.1l11.2-8.2c3.6,2.6,7.5,4.9,11.4,6.8l-1.9,13.8
			c2.4,1,4.8,1.9,7.3,2.8l7.7-11.6c4.3,1.2,8.6,2,13.1,2.5l2.9,13.6c2.6,0.1,5.2,0.2,7.8,0.1l3.3-13.5c4.4-0.3,8.8-1,13.2-2.1
			l7.4,11.8c1.2-0.4,2.5-0.8,3.7-1.2s2.4-0.9,3.6-1.4l-1.6-13.8c4.1-1.9,8-4,11.6-6.5l10.9,8.6c2.1-1.6,4.1-3.2,6-4.9l-6.2-12.4
			c3.2-3.1,6.1-6.5,8.7-10.1l13.2,4.3c1.4-2.2,2.7-4.4,4-6.7l-10.1-9.6c1.9-4,3.5-8.2,4.7-12.5l13.9-0.5c0.6-2.5,1.1-5.1,1.5-7.6
			l-12.7-5.6c0.4-4.4,0.5-8.9,0.2-13.3l12.9-5.2c-0.3-2.6-0.7-5.1-1.2-7.7l-14-1C165.6,69.9,165,67.7,164.2,65.6z M109.5,145.9
			c-30.1,10.5-63.1-5.4-73.6-35.6c-10.5-30.1,5.4-63.1,35.6-73.6s63.1,5.4,73.6,35.6C155.5,102.5,139.6,135.4,109.5,145.9z"/>
	</g>
</g>
<ellipse class="st3" cx="90.5" cy="91.3" rx="20.5" ry="20.5"/>
</svg>
