<?xml version="1.0" encoding="utf-8"?>
<!-- Generator: Adobe Illustrator 28.0.0, SVG Export Plug-In . SVG Version: 6.00 Build 0)  -->
<svg version="1.1" xmlns="http://www.w3.org/2000/svg" xmlns:xlink="http://www.w3.org/1999/xlink" x="0px" y="0px"
	 viewBox="0 0 1359.1 665.2" style="enable-background:new 0 0 1359.1 665.2;" xml:space="preserve">
<style type="text/css">
	.st0{display:none;}
	.st1{display:inline;fill:#8AA183;}
	.st2{fill:#525252;}
	.st3{fill:#BAAE8D;}
	.st4{fill:#C9C4B9;}
	.st5{fill:#FFD591;}
	.st6{fill:#FEDFB3;}
	.st7{fill:#2D1B16;}
	.st8{fill:#F68D56;}
	.st9{fill:#391513;}
	.st10{stroke:#686767;stroke-width:2;stroke-miterlimit:10;}
	.st11{fill:#CE6B44;}
	.st12{fill:#E2AA96;}
	.st13{fill:#E29D84;}
	.st14{fill:#6F6F6F;stroke:#686767;stroke-width:2;stroke-miterlimit:10;}
	.st15{fill:#423540;}
	.st16{fill:#DA7648;}
	.st17{fill:#3A1514;}
	.st18{fill:#471817;}
	.st19{fill:#2C1212;}
	.st20{fill:#522121;}
	.st21{fill:#B08564;}
	.st22{fill:#CA6E49;}
	.st23{fill:#391513;stroke:#58595B;stroke-miterlimit:10;}
	.st24{fill:#C0755F;}
	.st25{fill:#6F6F6F;}
	.st26{fill:#B21F24;}
	.st27{fill:#A11D21;}
	.st28{fill:#8C191B;}
</style>
<g id="Layer_2" class="st0">
	<rect x="1.5" y="-254.6" class="st1" width="1356.6" height="792"/>
</g>
<g id="Layer_1">
	<g>
		<g>
			<g>
				<polygon points="913.7,481.5 906.1,481.5 906.1,363.9 911.5,363.9 				"/>
				<rect x="900.9" y="363.9" class="st2" width="5.4" height="117.6"/>
				<polygon class="st3" points="901.3,481.5 896.7,481.5 899.6,363.9 901.3,363.9 				"/>
				<rect x="901.3" y="363.9" class="st4" width="1.7" height="117.6"/>
				<rect x="897.7" y="362.2" width="14.8" height="1.7"/>
				<rect x="897.7" y="359.1" class="st4" width="14.8" height="3.1"/>
			</g>
			<rect x="899.2" y="379.7" class="st4" width="12.7" height="0.7"/>
			<rect x="899.2" y="394.2" class="st4" width="12.7" height="0.7"/>
			<rect x="899.2" y="408.7" class="st4" width="12.7" height="0.7"/>
			<rect x="899.2" y="423.1" class="st4" width="12.7" height="0.7"/>
		</g>
		<g>
			<g>
				<polygon points="883.4,477.4 875.8,477.4 875.8,309.7 881.2,309.7 				"/>
				<rect x="870.5" y="309.7" class="st2" width="5.4" height="167.6"/>
				<polygon class="st3" points="870.9,477.4 866.3,477.4 869.2,309.7 870.9,309.7 				"/>
				<rect x="870.9" y="309.7" class="st4" width="1.7" height="167.6"/>
				<rect x="867.4" y="308" width="14.8" height="1.7"/>
				<rect x="867.4" y="304.9" class="st4" width="14.8" height="3.1"/>
			</g>
			<rect x="868.9" y="325.5" class="st4" width="12.7" height="0.7"/>
			<rect x="868.9" y="340" class="st4" width="12.7" height="0.7"/>
			<rect x="868.9" y="354.5" class="st4" width="12.7" height="0.7"/>
			<rect x="868.9" y="369" class="st4" width="12.7" height="0.7"/>
		</g>
		<rect x="1.2" y="532.3" class="st5" width="1357.9" height="132.9"/>
		<path class="st6" d="M974,494.1c1.1,0,2.1,0.1,3.1,0.3c1-8.6,4.7-15.8,9.8-19.5h-25.1c-0.3-1.4-0.5-3-0.5-4.6
			c0-6.9,3.3-12.4,7.4-12.4c0.6,0,1.2,0.1,1.8,0.4c0.5-9.7,2.2-18,4.7-23h-0.4c-0.6-0.7-0.9-1.5-0.9-2.4c0-3.6,5.7-6.5,12.7-6.5
			c1,0,1.9,0.1,2.8,0.2c0.1-0.2,0.6-0.5,0.4-0.6c-12.6-6.6-29.4,7.5-24.5,5.1c0,0-13.4-1.1-6.7-10c6.7-8.9,29.3-4.1,23.7-3.3
			c-5.6,0.8-8.5-6.3-8.5-7.3c0-4.6,3.3-8.3,7.4-8.3c0.6,0,1.2,0.1,1.8,0.2c0.8-10.7,5.1-18.9,10.2-18.9c1.9,0,3.7,1.1,5.2,3.1
			c1.9-4.5,4.6-7.2,7.5-7.2c0.3,0,0.6,0,0.9,0.1c1.9-4.7,4.6-7.6,7.7-7.6c3.4,0,6.4,3.6,8.3,9.2c1.5-1.1,3.2-1.6,4.9-1.6
			c6.2,0,11.4,7.3,12.8,17.2c1.3-1.3,2.8-2,4.4-2c2.6,0,4.9,1.9,6.5,5c0.7-0.4,1.5-0.6,2.3-0.6c3.7,0,6.7,4.5,6.9,10.2
			c2-0.4,4.1-0.7,6.2-0.7c10.7,0,19.7,5.7,22.2,13.5c2.2-1,4.8-1.6,7.6-1.6c3.3,0,6.4,0.8,8.9,2.3c0.1,0,0.1,0,0.2,0
			c1.4-11.8,8.8-20.8,17.6-20.8c3.3,0,6.3,1.2,9,3.4c3.2-4.9,7.9-8,13-8c0.5,0,1,0,1.5,0.1c1.9-3,4.3-5.4,7.1-6.8
			c1.3-2.9,6.4-5,12.4-5c1.1,0,2.1,0.1,3.1,0.2c1.4-8.4,8.8-14.8,17.6-14.8c3.3,0,6.3,0.9,9,2.4c3.2-3.5,7.9-5.7,13-5.7
			c0.5,0,1,0,1.5,0.1c3.3-3.7,8-6,13.3-6c5.9,0,11.1,2.8,14.3,7.2c2.6-0.8,5.5-1.3,8.5-1.3c10.7,0,19.7,5.7,22.2,13.5
			c2.2-1,4.8-1.6,7.6-1.6c4.5,0,8.5,1.5,11.3,3.9c1.2-0.3,2.6-0.5,4-0.5c6.1,0,8.2,2.4,8.9,6.6l-0.3,147.9l-219.1,1.3
			c-0.9-2.7-1.5-5.5-1.5-8.6c0-11.4,7.3-20.8,16.9-22.9h-134c-0.6-1.1-0.9-2.3-0.9-3.6C961.3,498.5,967,494.1,974,494.1z
			 M1015,413.5c0.4,0.2,0.8,0.4,1.2,0.6c0.2-0.2,0.4-0.4,0.6-0.6H1015z M1116.6,435.2c0.4,0.1,0.8,0.1,1.2,0.2c0-0.1,0-0.1,0-0.2
			H1116.6z M1105.2,507.7c0-0.1,0-0.2,0-0.3h-1.2C1104.5,507.5,1104.8,507.6,1105.2,507.7z M1032.4,446.6c2.6,0,4.9,2.9,6.5,7.5
			c0.7-0.6,1.5-0.9,2.3-0.9c3.7,0,6.7,6.8,6.9,15.3c2-0.7,4.1-1,6.2-1c10.7,0,19.7,8.6,22.2,20.2c2.2-1.5,4.8-2.4,7.6-2.4
			c3.3,0,6.4,1.3,8.9,3.4c0.1,0,0.1,0,0.2,0c1.4-17.7,8.8-31.2,17.6-31.2c3.3,0,6.3,1.9,9,5.1c1.1-2.5,2.3-4.6,3.7-6.4h-30.1
			c-0.9-1.8-1.5-3.7-1.5-5.7c0-7.6,7.3-13.9,16.9-15.3H1025c1.4,4,2.4,9,3,14.4C1029.3,447.7,1030.8,446.6,1032.4,446.6z
			 M1003.7,475.9c0.2-0.3,0.4-0.6,0.6-1h-1.8C1002.9,475.2,1003.3,475.5,1003.7,475.9z"/>
		<path class="st6" d="M977,494.1c1.3,0,2.5,0.1,3.6,0.3c1.2-8.6,5.5-15.8,11.5-19.5h-29.4c-0.4-1.4-0.6-3-0.6-4.6
			c0-6.9,3.9-12.4,8.6-12.4c0.7,0,1.4,0.1,2.1,0.4c0.6-9.7,2.6-18,5.5-23h-0.5c-0.7-0.7-1-1.5-1-2.4c0-3.6,6.7-6.5,14.9-6.5
			c1.1,0,2.2,0.1,3.3,0.2c0.2-0.2,0.8-0.5,0.5-0.6c-14.8-6.6-34.4,7.5-28.7,5.1c0,0-15.7-1.1-7.8-10c7.8-8.9,34.3-4.1,27.8-3.3
			s-10-6.3-10-7.3c0-4.6,3.9-8.3,8.6-8.3c0.7,0,1.4,0.1,2.1,0.2c1-10.7,5.9-18.9,11.9-18.9c2.2,0,4.3,1.1,6.1,3.1
			c2.2-4.5,5.3-7.2,8.8-7.2c0.3,0,0.7,0,1,0.1c2.2-4.7,5.4-7.6,9-7.6c4,0,7.5,3.6,9.7,9.2c1.8-1.1,3.7-1.6,5.8-1.6
			c7.3,0,13.3,7.3,15,17.2c1.5-1.3,3.3-2,5.1-2c3,0,5.8,1.9,7.7,5c0.8-0.4,1.7-0.6,2.7-0.6c4.3,0,7.8,4.5,8.1,10.2
			c2.3-0.4,4.8-0.7,7.3-0.7c12.5,0,23,5.7,26,13.5c2.6-1,5.6-1.6,8.9-1.6c3.9,0,7.5,0.8,10.5,2.3c0.1,0,0.1,0,0.2,0
			c1.7-11.8,10.3-20.8,20.6-20.8c3.8,0,7.4,1.2,10.5,3.4c3.8-4.9,9.2-8,15.2-8c0.6,0,1.2,0,1.7,0.1c2.2-3,5.1-5.4,8.3-6.8
			c1.5-2.9,7.4-5,14.5-5c1.3,0,2.5,0.1,3.6,0.2c1.7-8.4,10.3-14.8,20.6-14.8c3.8,0,7.4,0.9,10.5,2.4c3.8-3.5,9.2-5.7,15.2-5.7
			c0.6,0,1.2,0,1.7,0.1c3.8-3.7,9.4-6,15.6-6c6.9,0,13,2.8,16.8,7.2c3.1-0.8,6.4-1.3,10-1.3c12.5,0,23,5.7,26,13.5
			c2.6-1,5.6-1.6,8.9-1.6c5.2,0,10,1.5,13.2,3.9c1.4-0.3,3-0.5,4.6-0.5c7.2,0,9.6,2.4,10.4,6.6l-0.4,147.9l-256.7,1.3
			c-1.1-2.7-1.7-5.5-1.7-8.6c0-11.4,8.5-20.8,19.8-22.9h-157c-0.7-1.1-1-2.3-1-3.6C962.1,498.5,968.8,494.1,977,494.1z M1025,413.5
			c0.5,0.2,1,0.4,1.4,0.6c0.2-0.2,0.5-0.4,0.7-0.6H1025z M1144,435.2c0.5,0.1,0.9,0.1,1.4,0.2c0-0.1,0-0.1,0-0.2H1144z
			 M1130.7,507.7c0-0.1,0-0.2,0-0.3h-1.4C1129.8,507.5,1130.2,507.6,1130.7,507.7z M1045.4,446.6c3,0,5.8,2.9,7.7,7.5
			c0.8-0.6,1.7-0.9,2.7-0.9c4.3,0,7.8,6.8,8.1,15.3c2.3-0.7,4.8-1,7.3-1c12.5,0,23,8.6,26,20.2c2.6-1.5,5.6-2.4,8.9-2.4
			c3.9,0,7.5,1.3,10.5,3.4c0.1,0,0.1,0,0.2,0c1.7-17.7,10.3-31.2,20.6-31.2c3.8,0,7.4,1.9,10.5,5.1c1.3-2.5,2.7-4.6,4.3-6.4h-35.2
			c-1.1-1.8-1.7-3.7-1.7-5.7c0-7.6,8.5-13.9,19.8-15.3h-98.1c1.6,4,2.9,9,3.5,14.4C1041.8,447.7,1043.5,446.6,1045.4,446.6z
			 M1011.8,475.9c0.2-0.3,0.5-0.6,0.7-1h-2.1C1010.8,475.2,1011.3,475.5,1011.8,475.9z"/>
		<polygon class="st7" points="786.9,494.3 853.6,462 961.3,503.9 956.7,562 786.9,560 		"/>
		<polygon class="st7" points="1180.3,513.2 1270.3,476.9 1359.1,532.3 1359.1,577.8 1180.3,578.9 		"/>
		<polygon class="st8" points="251.3,583.9 354.6,577.7 322.7,587.9 489.9,589.9 852.1,610.4 1053.3,621.4 1117.7,586.1 
			1138.9,584.7 1177.4,645.6 1359.1,665.2 712,665.2 482.9,633.8 539.8,616.8 359.5,598.7 		"/>
		<path class="st6" d="M397.7,446.5c-1.3,0-2.6,0.1-3.8,0.4c-1.2-10.5-5.7-19.2-11.9-23.7h30.5c0.4-1.7,0.6-3.6,0.6-5.6
			c0-8.3-4-15.1-9-15.1c-0.8,0-1.5,0.2-2.2,0.5c-0.6-11.8-2.7-21.8-5.7-28h0.5c0.7-0.9,1.1-1.9,1.1-2.9c0-4.4-6.9-7.9-15.5-7.9
			c-1.2,0-2.3,0.1-3.4,0.2c-0.2-0.2-0.8-0.6-0.5-0.7c15.4-8,35.7,9.1,29.8,6.2c0,0,16.3-1.3,8.1-12.1s-35.6-4.9-28.9-4
			c6.8,0.9,10.4-7.6,10.4-8.9c0-5.6-4-10.1-9-10.1c-0.8,0-1.5,0.1-2.2,0.3c-1-13-6.2-23-12.4-23c-2.3,0-4.5,1.4-6.3,3.8
			c-2.3-5.4-5.5-8.8-9.2-8.8c-0.4,0-0.7,0-1,0.1c-2.3-5.7-5.6-9.2-9.4-9.2c-4.1,0-7.8,4.4-10.1,11.2c-1.9-1.3-3.9-2-6-2
			c-7.5,0-13.9,8.9-15.6,20.9c-1.6-1.5-3.4-2.4-5.3-2.4c-3.2,0-6,2.3-8,6.1c-0.9-0.5-1.8-0.7-2.8-0.7c-4.5,0-8.1,5.5-8.4,12.4
			c-2.4-0.5-4.9-0.8-7.6-0.8c-13,0-23.9,7-27,16.4c-2.7-1.2-5.8-1.9-9.2-1.9c-4.1,0-7.8,1-10.9,2.7c-0.1,0-0.1,0-0.2,0
			c-1.8-14.4-10.7-25.3-21.4-25.3c-4,0-7.7,1.5-10.9,4.2c-3.9-6-9.6-9.7-15.8-9.7c-0.6,0-1.2,0-1.8,0.1c-2.3-3.7-5.3-6.5-8.6-8.3
			c-1.6-3.5-7.7-6.1-15.1-6.1c-1.3,0-2.6,0.1-3.8,0.2c-1.8-10.2-10.7-18-21.4-18c-4,0-7.7,1.1-10.9,3c-3.9-4.2-9.6-6.9-15.8-6.9
			c-0.6,0-1.2,0-1.8,0.1c-4-4.4-9.7-7.2-16.2-7.2c-7.2,0-13.5,3.5-17.5,8.8c-3.2-1-6.7-1.6-10.4-1.6c-13,0-23.9,7-27,16.4
			c-2.7-1.2-5.8-1.9-9.2-1.9c-5.4,0-10.3,1.8-13.7,4.7c-1.5-0.4-3.1-0.6-4.8-0.6c-7.5,0-10,2.9-10.8,8l0.4,179.7l266.6,1.6
			c1.1-3.2,1.8-6.7,1.8-10.4c0-13.8-8.8-25.3-20.5-27.8h163.1c0.7-1.4,1.1-2.8,1.1-4.4C413.2,451.8,406.3,446.5,397.7,446.5z
			 M347.9,348.5c-0.5,0.2-1,0.5-1.5,0.8c-0.2-0.3-0.5-0.5-0.8-0.8H347.9z M224.3,374.9c-0.5,0.1-0.9,0.1-1.4,0.2c0-0.1,0-0.2,0-0.2
			H224.3z M238.1,463c0-0.1,0-0.2,0-0.3h1.4C239.1,462.8,238.6,462.9,238.1,463z M326.7,388.8c-3.2,0-6,3.5-8,9.1
			c-0.9-0.7-1.8-1.1-2.8-1.1c-4.5,0-8.1,8.2-8.4,18.6c-2.4-0.8-4.9-1.2-7.6-1.2c-13,0-23.9,10.4-27,24.6c-2.7-1.8-5.8-2.9-9.2-2.9
			c-4.1,0-7.8,1.5-10.9,4.1c-0.1,0-0.1,0-0.2,0c-1.8-21.6-10.7-38-21.4-38c-4,0-7.7,2.3-10.9,6.2c-1.3-3-2.8-5.6-4.5-7.8h36.6
			c1.1-2.2,1.8-4.5,1.8-7c0-9.2-8.8-16.9-20.5-18.6h101.8c-1.7,4.9-3,10.9-3.6,17.5C330.5,390.1,328.7,388.8,326.7,388.8z
			 M361.6,424.3c-0.2-0.4-0.5-0.8-0.8-1.2h2.2C362.6,423.5,362.1,423.9,361.6,424.3z"/>
		<polygon class="st9" points="1.2,471.8 26.5,455.3 26.5,471.7 57.3,457.6 57.3,472.8 81.9,458.1 81.9,471.8 102.3,458.1 
			102.3,472.8 126.8,472.8 126.8,560 1.2,560 		"/>
		<polygon class="st10" points="466.1,391.3 488.1,372.6 488.1,391.2 515.1,375.2 515.1,392.4 536.6,375.8 536.6,391.3 554.4,375.8 
			554.4,392.4 575.9,392.4 575.9,491 466.1,491 		"/>
		<g>
			<polygon class="st10" points="109.4,366.7 109.4,563.7 166.9,563.7 166.9,367.2 140.8,358.4 			"/>
			<path class="st11" d="M166.9,363.6l-22.6-6.1l-3.5-0.1l-28,6.2l-3.5,0.8v199.3h3.5v-21.2l28-1v24.8h3.5v-24.8l22.6,1v21.2h2.9
				V364.7L166.9,363.6z M112.9,392.2l28-5.7v21.9l-28,5.2V392.2z M112.9,417.2l28-5.2v22.5l-28,4.3V417.2z M112.9,442.3l28-4.3v22.5
				l-28,3.4V442.3z M112.9,467.4l28-3.4v22.5l-28,2.4V467.4z M112.9,492.4l28-2.4v23l-28,1V492.4z M144.3,490l22.6,2.4v21.6l-22.6-1
				V490z M144.3,486.5V464l22.6,3.3v21.6L144.3,486.5z M144.3,460.5v-22.5l22.6,4.2v21.6L144.3,460.5z M144.3,434.5v-22.4l22.6,5.2
				v21.5L144.3,434.5z M144.3,408.5v-21.9l22.6,5.6v21.5L144.3,408.5z M166.9,367.2v21.5l-22.6-5.6v-21.9L166.9,367.2z M140.8,361
				V383l-28,5.7v-21.5L140.8,361z M112.9,539v-21.6l28-1V538L112.9,539z M144.3,538v-21.6l22.6,1V539L144.3,538z"/>
			<line class="st10" x1="112.9" y1="388.6" x2="140.8" y2="361"/>
			<line class="st10" x1="140.8" y1="383" x2="112.9" y2="367.2"/>
			<line class="st10" x1="140.8" y1="408" x2="112.9" y2="392.3"/>
			<line class="st10" x1="140.8" y1="433.3" x2="112.9" y2="417.5"/>
			<line class="st10" x1="140.8" y1="460.1" x2="112.9" y2="442.8"/>
			<line class="st10" x1="140.8" y1="486.1" x2="112.9" y2="467.8"/>
			<line class="st10" x1="140.8" y1="512.8" x2="112.9" y2="492.8"/>
			<line class="st10" x1="112.9" y1="413.9" x2="140.8" y2="386.3"/>
			<line class="st10" x1="112.9" y1="439.2" x2="140.8" y2="411.6"/>
			<line class="st10" x1="112.9" y1="464.4" x2="140.8" y2="436.8"/>
			<line class="st10" x1="112.9" y1="489.7" x2="140.8" y2="463.1"/>
			<line class="st10" x1="112.9" y1="515" x2="140.8" y2="489.5"/>
			<line class="st10" x1="112.9" y1="540.1" x2="140.8" y2="515.6"/>
			<polygon class="st12" points="142.1,357.5 142.3,563 144.3,563 144.3,357.5 			"/>
		</g>
		<g>
			<polygon class="st11" points="167.5,396.1 291.6,353.7 434.9,373.6 434.9,488 296.7,488 168.8,475.7 			"/>
			<polygon class="st9" points="291.6,353.2 291.6,488 434.9,488 434.9,373.6 			"/>
		</g>
		<g>
			<polygon class="st11" points="143.4,446.2 196.6,432.1 240.2,441 240.2,571.2 190.2,571.2 143.8,557.8 			"/>
			<polygon class="st9" points="196.6,432.1 198.9,568.9 240.2,571.2 240.2,440.2 			"/>
		</g>
		<g>
			<polygon class="st13" points="225.9,414.3 270.9,397.9 322.7,407.4 322.7,575.7 272.7,575.7 226.4,561.3 			"/>
			<polygon class="st9" points="270.9,397.2 270.9,576.2 322.7,575.7 322.7,406.3 			"/>
		</g>
		<g>
			<polygon class="st11" points="138.6,487 286.2,458.1 456.6,475.8 456.6,577.8 285.9,577.8 140.1,566.8 			"/>
			<polygon class="st9" points="286.2,457.7 286.2,577.8 456.6,577.8 456.6,475.8 			"/>
		</g>
		<polygon class="st9" points="139.6,489.7 288.2,461.1 287.6,464.4 139.6,492.7 		"/>
		<polygon class="st12" points="142.3,500.8 282.3,479.3 281.7,482.6 142.3,503.8 		"/>
		<polygon class="st7" points="504.4,446.8 585.5,401.1 573.6,401.4 494,444.6 		"/>
		<rect x="508.4" y="460.1" class="st7" width="96.6" height="117.7"/>
		<polygon class="st9" points="143.4,502.9 280.7,482.6 280.7,495.4 143,509.6 		"/>
		<polygon class="st14" points="145.8,507.8 145.8,504 165.1,501.4 165.1,505.7 		"/>
		<polygon class="st14" points="168,505.3 168,500.5 187.3,497.9 187.3,503.5 		"/>
		<polygon class="st14" points="190.2,503.4 190.2,497.4 209.5,494.7 209.5,501.4 		"/>
		<polygon class="st9" points="190.2,571.2 190.2,537.4 220.3,534.4 220.3,572.8 		"/>
		<polygon class="st14" points="192.6,570.6 192.6,540.3 218.4,536.8 218.4,572.3 		"/>
		<g>
			<g>
				<polygon points="469.4,425 461.8,425 461.8,307.3 467.2,307.3 				"/>
				<rect x="456.6" y="307.3" class="st2" width="5.4" height="117.6"/>
				<polygon class="st3" points="457,425 452.4,425 455.3,307.3 457,307.3 				"/>
				<rect x="457" y="307.3" class="st4" width="1.7" height="117.6"/>
				<rect x="453.4" y="305.6" width="14.8" height="1.7"/>
				<rect x="453.4" y="302.5" class="st4" width="14.8" height="3.1"/>
			</g>
			<rect x="454.9" y="323.1" class="st4" width="12.7" height="0.7"/>
			<rect x="454.9" y="337.6" class="st4" width="12.7" height="0.7"/>
			<rect x="454.9" y="352.1" class="st4" width="12.7" height="0.7"/>
			<rect x="454.9" y="366.6" class="st4" width="12.7" height="0.7"/>
		</g>
		<polygon class="st10" points="383.3,374.8 383.3,402.4 392,402.9 392,375.9 		"/>
		<polygon class="st10" points="401.4,377.2 401.4,404.3 410,404.8 410,378.2 		"/>
		<polygon class="st10" points="418.5,379.5 418.5,406.6 427.2,407.1 427.2,380.6 		"/>
		<polygon class="st7" points="567.5,388.1 559.6,410.3 571.2,401.8 580.1,400.2 586.9,401.9 586.9,389.4 		"/>
		<g>
			<polygon class="st7" points="567.5,358.8 588.3,364.7 588.3,389.4 567.5,388.1 			"/>
			<polygon class="st15" points="567.5,358.8 558.6,360.5 558.6,388.3 567.5,388.1 			"/>
			<polygon class="st3" points="562.5,360.9 559.6,361.4 559.6,387.2 562.5,387 			"/>
			<polygon class="st3" points="566.7,360.1 563.8,360.6 563.8,387 566.7,386.7 			"/>
		</g>
		<g>
			<polygon class="st7" points="566.1,430.4 600.5,430.5 600.5,459.8 566.1,460.1 			"/>
			<polygon class="st15" points="566.1,429.8 551.4,430.5 551.4,460.4 566.1,460.1 			"/>
		</g>
		<polygon class="st3" points="590,389.4 557.1,389.4 557.1,388 569.7,387.6 590,388 		"/>
		<polygon class="st3" points="562.5,389.4 555.2,410.3 561.1,407.1 567.5,388.1 		"/>
		<rect x="594.7" y="401.1" class="st7" width="2.8" height="28.9"/>
		<rect x="594.7" y="429.2" class="st7" width="2.8" height="28.9"/>
		<rect x="570.5" y="429.2" class="st7" width="2.8" height="28.9"/>
		<rect x="555.7" y="429.2" class="st7" width="2.8" height="28.9"/>
		
			<rect x="574.5" y="402.7" transform="matrix(-1.836970e-16 1 -1 -1.836970e-16 1005.0402 -146.6948)" class="st7" width="2.8" height="53"/>
		<rect x="585.5" y="401.1" class="st7" width="2.8" height="28.9"/>
		<path class="st3" d="M602.4,400.2h-22.3c0,0-6-0.5-14.1,4.2c-8.2,4.7-76,42.6-76,42.6l1.3,1.3l76.3-42.1c0,0,6.1-4,12.5-4.3
			l22.2,0.3L602.4,400.2z"/>
		<polygon class="st16" points="422,497.9 422,421.5 456.3,406.2 456.3,500.2 		"/>
		<polygon class="st17" points="456.3,495.4 456.3,405.9 477.9,393.8 506.5,403.8 509.5,492.1 		"/>
		<polygon class="st16" points="412.3,422.8 431.2,410.3 478,391.5 510.6,402.6 510.6,405 478.1,394.8 456.3,409 422,421.5 		"/>
		<polygon class="st18" points="506.5,403.8 478.1,394.8 456.3,409 422,421.5 422,425 456.8,413.4 478.1,399.3 506.5,408.2 		"/>
		<polyline class="st17" points="422,443.6 456.3,435.1 456.3,438.1 422,446.8 422,443.6 		"/>
		<polyline class="st17" points="422,469.6 456.3,464 456.3,467 422,472.8 422,469.6 		"/>
		<polygon class="st19" points="605,517.6 513.8,491 452.3,526 452.3,583.9 564.8,583.9 564.8,537.4 		"/>
		<polygon class="st11" points="342.2,577.8 342.2,537.7 397.7,536.6 397.7,499.7 513.8,491 510.3,494.8 446.6,514.6 440.6,576.9 		
			"/>
		<g>
			<polygon class="st11" points="373.9,467 352.8,464.9 356.5,207.7 364.2,201.4 369.7,206.6 			"/>
			<polygon class="st18" points="373.9,467 364.2,465.9 364.2,201.4 369.7,205.6 			"/>
		</g>
		<polygon class="st20" points="225.9,439.7 229.1,441.7 229.5,443.4 232.7,443.9 235.9,445.9 236.6,448 240.9,449.1 243.7,450.8 
			244.4,452.8 248.7,453.9 251.1,455.4 251.7,457.4 255.6,458.2 257.4,459.3 258.4,461.5 263.2,462.9 225.9,469.8 		"/>
		<polygon class="st21" points="401.4,505.3 434.6,533.6 459.6,533.6 513.8,494.3 605,517.6 603.7,514 513.8,491 505.2,495.3 		"/>
		<rect x="433.3" y="533.6" class="st22" width="26.6" height="50.2"/>
		<polygon class="st19" points="434.9,583.9 434.6,533.6 401.4,505.3 401.4,581.9 		"/>
		<polygon class="st18" points="373.9,471.7 348.1,471.7 351.8,201.4 369.7,201.4 		"/>
		<polygon class="st18" points="373.9,497 348.1,497 351.3,226.7 369.7,226.7 		"/>
		<polygon class="st11" points="361,471.8 348.1,471.8 351.8,201.5 361,201.5 		"/>
		<g>
			<polygon class="st10" points="739.4,383 739.4,545 692.1,545 692.1,383.4 713.5,376.2 			"/>
			<path class="st11" d="M692.1,380.4l18.5-5l2.9-0.1l23,5.1l2.9,0.7V545h-2.9v-17.4l-23-0.8v20.4h-2.9v-20.4l-18.5,0.8V545h-2.4
				V381.4L692.1,380.4z M736.5,404l-23-4.7v18.1l23,4.3V404z M736.5,424.6l-23-4.3v18.5l23,3.5V424.6z M736.5,445.2l-23-3.5v18.5
				l23,2.8V445.2z M736.5,465.8l-23-2.8v18.5l23,2V465.8z M736.5,486.4l-23-2v19l23,0.8V486.4z M710.6,484.4l-18.5,2v17.8l18.5-0.8
				V484.4z M710.6,481.6v-18.5l-18.5,2.7v17.8L710.6,481.6z M710.6,460.2v-18.5l-18.5,3.5v17.7L710.6,460.2z M710.6,438.8v-18.5
				l-18.5,4.2v17.7L710.6,438.8z M710.6,417.4v-18l-18.5,4.6v17.7L710.6,417.4z M692.1,383.4V401l18.5-4.6v-18L692.1,383.4z
				 M713.5,378.3v18l23,4.7v-17.7L713.5,378.3z M736.5,524.8V507l-23-0.8v17.7L736.5,524.8z M710.6,523.9v-17.7l-18.5,0.8v17.7
				L710.6,523.9z"/>
			<line class="st10" x1="736.5" y1="401" x2="713.5" y2="378.3"/>
			<line class="st10" x1="713.5" y1="396.4" x2="736.5" y2="383.4"/>
			<line class="st10" x1="713.5" y1="417" x2="736.5" y2="404"/>
			<line class="st10" x1="713.5" y1="437.7" x2="736.5" y2="424.8"/>
			<line class="st10" x1="713.5" y1="459.8" x2="736.5" y2="445.6"/>
			<line class="st10" x1="713.5" y1="481.3" x2="736.5" y2="466.1"/>
			<line class="st10" x1="713.5" y1="503.2" x2="736.5" y2="486.7"/>
			<line class="st10" x1="736.5" y1="421.8" x2="713.5" y2="399.1"/>
			<line class="st10" x1="736.5" y1="442.6" x2="713.5" y2="419.9"/>
			<line class="st10" x1="736.5" y1="463.4" x2="713.5" y2="440.7"/>
			<line class="st10" x1="736.5" y1="484.2" x2="713.5" y2="462.3"/>
			<line class="st10" x1="736.5" y1="505" x2="713.5" y2="484"/>
			<line class="st10" x1="736.5" y1="525.7" x2="713.5" y2="505.5"/>
			<polygon class="st12" points="712.4,375.4 712.3,544.5 710.6,544.5 710.6,375.4 			"/>
		</g>
		<g>
			<polygon class="st11" points="1159.5,441.1 1057.5,406.2 939.8,422.6 939.8,516.7 1053.3,516.7 1158.5,506.6 			"/>
			<polygon class="st9" points="1057.5,405.8 1057.5,516.7 939.8,516.7 939.8,422.6 			"/>
		</g>
		<g>
			<polygon class="st11" points="1179.4,482.4 1135.6,470.7 1099.8,478 1099.8,585.2 1140.9,585.2 1179,574.2 			"/>
			<polygon class="st9" points="1135.6,470.7 1133.7,583.3 1099.8,585.2 1099.8,477.4 			"/>
		</g>
		<g>
			<polygon class="st13" points="1007.8,353.5 970.9,340 928.2,347.8 928.2,486.3 969.4,486.3 1007.5,474.4 			"/>
			<polygon class="st9" points="970.9,339.4 970.9,501.7 928.2,512 928.2,347 			"/>
		</g>
		<g>
			<polygon class="st11" points="1183.3,515.9 1062,492.1 922,506.7 922,590.6 1062.2,590.6 1182.1,581.6 			"/>
			<polygon class="st9" points="1062,491.7 1062,590.6 922,590.6 922,506.7 			"/>
		</g>
		<polygon class="st9" points="1182.5,518.1 1060.3,494.5 1060.9,497.3 1182.5,520.6 		"/>
		<polygon class="st12" points="1180.3,527.3 1065.1,509.6 1065.7,512.3 1180.3,529.7 		"/>
		<polygon class="st14" points="1177.4,533.6 1177.4,530.5 1161.5,528.3 1161.5,531.9 		"/>
		<polygon class="st9" points="1177.4,533.6 1177.4,530.5 1161.5,528.3 1161.5,531.9 		"/>
		<polygon class="st14" points="1124.2,528.3 1124.2,523.6 1104.1,521 1104.1,526.6 		"/>
		<polygon class="st9" points="1124.2,528.3 1124.2,523.6 1104.1,521 1104.1,526.6 		"/>
		<polygon class="st14" points="1151.5,531 1151.5,527 1135.6,524.9 1135.6,529.5 		"/>
		<polygon class="st9" points="1151.5,531 1151.5,527 1135.6,524.9 1135.6,529.5 		"/>
		<polygon class="st23" points="1094.9,526.2 1094.9,519.8 1073,517 1073,524.1 		"/>
		<polygon class="st9" points="1140.9,585.2 1140.9,557.4 1116.1,554.9 1116.1,586.5 		"/>
		<polygon class="st14" points="1138.9,584.7 1138.9,559.8 1117.7,556.8 1117.7,586.1 		"/>
		<polygon class="st11" points="1015.9,590.6 1015.9,557.6 970.3,556.7 970.3,526.3 874.9,519.2 877.7,522.3 930.1,538.6 935,589.8 
					"/>
		<g>
			<polygon class="st11" points="989.9,499.4 1007.2,497.7 1004.2,286.1 997.9,280.9 993.4,285.2 			"/>
			<polygon class="st18" points="989.9,499.4 997.9,498.5 997.9,280.9 993.4,284.3 			"/>
		</g>
		<polygon class="st20" points="1111.5,477 1108.9,478.6 1108.5,480 1105.9,480.5 1103.3,482.1 1102.7,483.8 1099.2,484.7 
			1096.9,486.1 1096.3,487.8 1092.8,488.6 1090.8,489.9 1090.3,491.5 1087.1,492.2 1085.6,493.1 1084.8,494.9 1080.9,496.1 
			1111.5,501.7 		"/>
		<polygon class="st18" points="989.9,503.3 1011.1,503.3 1008.1,280.9 993.4,280.9 		"/>
		<polygon class="st18" points="989.9,524.1 1011.1,524.1 1008.5,301.7 993.4,301.7 		"/>
		<polygon class="st11" points="1000.5,503.4 1011.1,503.4 1008.1,281 1000.5,281 		"/>
		<rect x="348.1" y="197.5" class="st18" width="25.8" height="4"/>
		<rect x="987" y="278.9" class="st18" width="25.8" height="4"/>
		<polygon class="st24" points="547.5,601.8 596.7,577.6 623.4,593.4 639.1,599.8 644.7,611.4 586.5,614.9 		"/>
		<polygon class="st24" points="604.1,542.9 668.7,518.1 708.1,533.1 731.1,539.2 739.4,550.3 639.5,550.3 604.1,555.5 		"/>
		<polygon class="st24" points="462.1,590.3 503.6,576.4 526.1,585.5 539.2,589.2 543.9,595.9 494.9,597.9 		"/>
		<polygon class="st25" points="853.6,462 928.2,462 928.2,489.3 		"/>
		<polygon class="st13" points="853.6,462 857.7,461.5 928.2,487.5 928.2,491.2 		"/>
		<polyline class="st8" points="703.4,550.3 758.8,558.2 744,562 851.4,568.4 913.7,577.7 906.3,587 913.7,594.6 1100,595.8 
			1121.4,586.4 922,590.6 922,562 786.9,560 786.9,552.4 739.4,550.3 		"/>
	</g>
	<g>
		<g>
			<g>
				<path class="st26" d="M69.5,593.8c0,0-0.5-10.3,6.2-15.3c3.3-2.4,10.8-3.8,10.8-3.8s0.4-2.6,0.7-4c0.2-0.9,7.8-3.5,7.8-4.2
					c0,0-5.6-5.2-4.8-10.1c0,0-1.4-4.4-0.7-6.4c0.7-1.9-2.4-3.9-2-5.7c0.8-3.3,1.2-4.5,1.2-4.5s-1.7-7.9,1.4-10.9
					c3.1-3,11-10.3,17-7.8c6,2.5,9.4,2.5,12.8,8.1c3.4,5.5,2.7,11.2,1.8,12.3s0.3,1.6-0.3,6.4c-0.6,4.8-2.9,7.9-3.2,9.6
					c-0.4,2.3-1.7,5.5-1.7,5.5s7.4-0.1,8,1.4c0.6,1.5,4.1,2.7,6.2,3.7c2.1,1,1.8,2.4,1.8,2.4s11-1.6,15.2,7.2s0.3,118.5,0.3,118.5
					H64L69.5,593.8z"/>
			</g>
			<g>
				<path class="st26" d="M194.8,570.9c0,0-0.4-8,4.8-11.9c2.5-1.9,8.4-3,8.4-3s0.3-2,0.6-3.1c0.2-0.7,6-2.7,6-3.3
					c0,0-4.4-4-3.7-7.8c0,0-1.1-3.4-0.5-4.9c0.5-1.5-1.9-3-1.6-4.4c0.6-2.6,0.9-3.5,0.9-3.5s-1.3-6.1,1.1-8.5c2.4-2.3,8.5-8,13.2-6
					c4.7,2,7.3,2,9.9,6.3c2.6,4.3,2.1,8.7,1.4,9.5s0.2,1.3-0.2,5c-0.4,3.7-2.3,6.1-2.5,7.4c-0.3,1.8-1.3,4.2-1.3,4.2s5.7,0,6.2,1.1
					c0.4,1.2,3.2,2.1,4.8,2.9s1.4,1.9,1.4,1.9s8.5-1.3,11.8,5.6c3.3,6.8-3.9,123.7-3.9,123.7l-57.3-4.3L194.8,570.9z"/>
			</g>
			<g>
				<path class="st27" d="M82.3,584.8c0,0,0.5-12-6.8-17.8c-3.6-2.8-11.9-4.4-11.9-4.4s-0.4-3-0.8-4.6c-0.2-1-8.5-4-8.6-4.9
					c0,0,6.2-6,5.2-11.8c0,0,1.5-5.1,0.8-7.4c-0.8-2.3,2.7-4.6,2.2-6.6c-0.8-3.9-1.3-5.2-1.3-5.2s1.9-9.2-1.5-12.7
					c-3.4-3.5-12-12-18.7-9c-6.6,2.9-10.3,2.9-14.1,9.4c-3.7,6.4-2.9,13-2,14.2c0.9,1.2-0.3,1.9,0.3,7.4c0.6,5.6,3.2,9.2,3.6,11.1
					c0.5,2.6,1.8,6.3,1.8,6.3s-8.1-0.1-8.7,1.7s-4.5,3.1-6.8,4.3s-2,2.8-2,2.8s-12-1.9-16.7,8.3s-12.5,101.1-12.5,101.1L92,679.9
					L82.3,584.8z"/>
			</g>
			<g>
				<path class="st28" d="M116.3,584.8c0,0-0.6-12,7.2-17.8c3.8-2.8,12.5-4.4,12.5-4.4s0.4-3,0.8-4.6c0.2-1,9-4,9-4.9
					c0,0-6.6-6-5.5-11.8c0,0-1.6-5.1-0.8-7.4s-2.8-4.6-2.4-6.6c0.9-3.9,1.4-5.2,1.4-5.2s-2-9.2,1.6-12.7s12.7-12,19.7-9
					c7,2.9,10.9,2.9,14.8,9.4c3.9,6.4,3.1,13,2.1,14.2c-1,1.2,0.3,1.9-0.3,7.4c-0.6,5.6-3.4,9.2-3.8,11.1c-0.5,2.6-1.9,6.3-1.9,6.3
					s8.6-0.1,9.2,1.7c0.7,1.7,4.7,3.1,7.2,4.3c2.4,1.2,2.1,2.8,2.1,2.8s12.7-1.9,17.6,8.3s4.2,100.4,4.2,100.4h-97.5L116.3,584.8z"
					/>
			</g>
		</g>
		<g>
			<g>
				<path class="st28" d="M441.9,640.2c0,0-0.6-13.5,8.1-20c4.3-3.2,14.1-5,14.1-5s0.5-3.4,0.9-5.2c0.3-1.1,10.1-4.5,10.2-5.5
					c0,0-7.4-6.8-6.2-13.2c0,0-1.8-5.8-0.9-8.3s-3.2-5.1-2.7-7.4c1-4.3,1.6-5.9,1.6-5.9s-2.2-10.3,1.8-14.2s14.3-13.5,22.2-10.1
					c7.9,3.3,12.3,3.3,16.7,10.5c4.4,7.2,3.5,14.6,2.4,16c-1.1,1.4,0.4,2.1-0.3,8.4c-0.7,6.2-3.8,10.3-4.2,12.5
					c-0.6,3-2.2,7.1-2.2,7.1s9.7-0.1,10.4,1.9s5.3,3.5,8.1,4.9c2.8,1.4,2.4,3.1,2.4,3.1s14.3-2.1,19.8,9.4
					c5.5,11.5,4.7,47.3,4.7,47.3H439.1L441.9,640.2z"/>
			</g>
			<g>
				<path class="st26" d="M358,618.9c0,0-0.6-13.5,8.1-20c4.3-3.2,14.1-5,14.1-5s0.5-3.4,0.9-5.2c0.3-1.1,10.1-4.5,10.2-5.5
					c0,0-7.4-6.8-6.2-13.2c0,0-1.8-5.8-0.9-8.3c0.9-2.5-3.2-5.1-2.7-7.4c1-4.3,1.6-5.9,1.6-5.9s-2.2-10.3,1.8-14.2
					c4-3.9,14.3-13.5,22.2-10.1c7.9,3.3,12.3,3.3,16.7,10.5c4.4,7.2,3.5,14.6,2.4,16c-1.1,1.4,0.4,2.1-0.3,8.4
					c-0.7,6.2-3.8,10.3-4.2,12.5c-0.6,3-2.2,7.1-2.2,7.1s9.7-0.1,10.4,1.9c0.7,2,5.3,3.5,8.1,4.9c2.8,1.4,2.4,3.1,2.4,3.1
					s14.3-2.1,19.8,9.4s4.7,47.3,4.7,47.3H355.2L358,618.9z"/>
			</g>
			<g>
				<path class="st27" d="M288.4,614.9c0,0-0.5-11.7,7-17.3c3.7-2.8,12.2-4.3,12.2-4.3s0.4-2.9,0.8-4.5c0.2-1,8.8-3.9,8.8-4.8
					c0,0-6.4-5.9-5.4-11.5c0,0-1.6-5-0.8-7.2c0.8-2.2-2.8-4.5-2.3-6.4c0.9-3.8,1.4-5.1,1.4-5.1s-1.9-9,1.6-12.4
					c3.5-3.4,12.4-11.7,19.3-8.8c6.8,2.9,10.7,2.9,14.5,9.1c3.8,6.3,3,12.7,2.1,13.9c-1,1.2,0.3,1.8-0.3,7.3
					c-0.6,5.4-3.3,8.9-3.7,10.8c-0.5,2.6-1.9,6.2-1.9,6.2s8.4-0.1,9,1.6c0.6,1.7,4.6,3,7,4.2c2.4,1.2,2.1,2.7,2.1,2.7
					s12.4-1.9,17.2,8.1c4.8,10,4.4,82.4,4.4,82.4l-95.4-41.5L288.4,614.9z"/>
			</g>
			<g>
				<path class="st28" d="M217.4,645.4c0,0-0.7-15.6,9.4-23.2c4.9-3.7,16.3-5.8,16.3-5.8s0.6-3.9,1.1-6c0.3-1.3,11.7-5.3,11.8-6.4
					c0,0-8.5-7.8-7.2-15.3c0,0-2.1-6.7-1.1-9.6s-3.7-6-3.1-8.6c1.2-5,1.8-6.8,1.8-6.8s-2.6-12,2.1-16.5c4.7-4.5,16.6-15.6,25.8-11.8
					c9.2,3.8,14.3,3.8,19.4,12.2s4,17,2.8,18.6c-1.3,1.6,0.4,2.5-0.4,9.7c-0.8,7.2-4.4,12-4.9,14.5c-0.7,3.4-2.5,8.3-2.5,8.3
					s11.2-0.1,12.1,2.2c0.9,2.3,6.2,4.1,9.4,5.7c3.2,1.6,2.8,3.6,2.8,3.6s16.6-2.5,23,10.9s5.5,75.1,5.5,75.1l-127.2-1.6
					L217.4,645.4z"/>
			</g>
			<g>
				<path class="st28" d="M136.1,664.3c0,0,4.2-18,14.2-25.5c4.9-3.7,16.3-5.8,16.3-5.8s0.6-3.9,1.1-6c0.3-1.3,11.7-5.3,11.8-6.4
					c0,0-8.5-7.8-7.2-15.3c0,0-2.1-6.7-1.1-9.6c1.1-2.9-3.7-6-3.1-8.6c1.2-5,1.8-6.8,1.8-6.8s-2.6-12,2.1-16.5
					c4.7-4.5,16.6-15.6,25.8-11.8c9.2,3.8,14.3,3.8,19.4,12.2c5.1,8.4,4,17,2.8,18.6c-1.3,1.6,0.4,2.5-0.4,9.7s-4.4,12-4.9,14.5
					c-0.7,3.4-2.5,8.3-2.5,8.3s11.2-0.1,12.1,2.2s6.2,4.1,9.4,5.7s2.8,3.6,2.8,3.6s16.6-2.5,23,10.9c6.4,13.4,5.5,75.1,5.5,75.1
					l-136-26.9L136.1,664.3z"/>
			</g>
			<g>
				<path class="st28" d="M337.4,684.7c0,0-0.9-20.3,12.2-30.1c6.4-4.8,21.3-7.5,21.3-7.5s0.7-5.1,1.4-7.8
					c0.4-1.7,15.3-6.8,15.4-8.3c0,0-11.1-10.2-9.3-19.9c0,0-2.8-8.7-1.4-12.5c1.4-3.8-4.8-7.7-4-11.2c1.5-6.6,2.4-8.8,2.4-8.8
					s-3.3-15.6,2.8-21.5c6.1-5.9,21.6-20.3,33.5-15.3c11.9,5,18.5,5,25.2,15.9c6.6,10.9,5.3,22.1,3.6,24.1
					c-1.7,2.1,0.6,3.2-0.5,12.6c-1.1,9.4-5.8,15.5-6.4,18.8c-0.8,4.5-3.2,10.7-3.2,10.7s14.6-0.1,15.7,2.8c1.1,2.9,8,5.3,12.2,7.4
					c4.2,2.1,3.6,4.7,3.6,4.7s34,8.5,42.3,25.8c8.3,17.4,8,59.6,8,59.6H333.2L337.4,684.7z"/>
			</g>
			<g>
				<path class="st28" d="M503.9,664.7c0,0-0.6-14.6,8.1-21.6c4.3-3.4,14.1-5.4,14.1-5.4s0.5-3.6,0.9-5.6c0.3-1.2,10.1-4.9,10.2-5.9
					c0,0-7.4-7.3-6.2-14.3c0,0-1.8-6.2-0.9-9c0.9-2.7-3.2-5.5-2.7-8c1-4.7,1.6-6.3,1.6-6.3s-2.2-11.2,1.8-15.4
					c4-4.2,14.3-14.5,22.2-11c7.9,3.6,12.3,3.6,16.7,11.4c4.4,7.8,3.5,15.8,2.4,17.3c-1.1,1.5,0.4,2.3-0.3,9s-3.8,11.1-4.2,13.5
					c-0.6,3.2-2.2,7.7-2.2,7.7s9.7-0.1,10.4,2s5.3,3.8,8.1,5.3c2.8,1.5,2.4,3.4,2.4,3.4s14.3-2.3,19.8,10.1
					c5.5,12.4,4.7,60.4,4.7,60.4H501.1L503.9,664.7z"/>
			</g>
		</g>
		<path class="st26" d="M333.4,525.4c-12.4-3.4-23.8,0.6-25.4,9c-0.2,0.8-0.2,1.7-0.2,2.5l-8.7,6.6c-2.1,1.6-1.4,5.5,1,5.9l10.1,1.8
			c1.6,0.3,3.1-1.2,3.1-3.2V548c3.5,3.4,8.4,6.3,14.1,7.8c12.4,3.4,23.8-0.6,25.4-9C354.6,538.4,345.8,528.8,333.4,525.4z"/>
		<path class="st26" d="M37.6,492.5c12.3-3.4,23.6,0.6,25.2,9c0.2,0.8,0.2,1.7,0.2,2.5l8.6,6.6c2.1,1.6,1.4,5.5-1,5.9l-10.1,1.8
			c-1.6,0.3-3.1-1.2-3.1-3.2v-0.2c-3.5,3.4-8.4,6.3-14,7.8c-12.3,3.4-23.6-0.6-25.2-9C16.6,505.5,25.3,495.9,37.6,492.5z"/>
	</g>
	<g>
		<g>
			<g>
				<path class="st27" d="M831.4,613.1c0,0-0.5-10.3,7-15.3c3.7-2.4,12.2-3.8,12.2-3.8s0.4-2.6,0.8-4c0.2-0.9,8.7-3.5,8.8-4.2
					c0,0-6.4-5.2-5.3-10.1c0,0-1.6-4.4-0.8-6.4c0.8-1.9-2.7-3.9-2.3-5.7c0.9-3.3,1.3-4.5,1.3-4.5s-1.9-7.9,1.6-10.9
					s12.3-10.3,19.1-7.8c6.8,2.5,10.6,2.5,14.4,8.1c3.8,5.5,3,11.2,2.1,12.3c-0.9,1,0.3,1.6-0.3,6.4s-3.3,7.9-3.6,9.6
					c-0.5,2.3-1.9,5.5-1.9,5.5s8.3-0.1,9,1.4c0.6,1.5,4.6,2.7,7,3.7c2.4,1,2.1,2.4,2.1,2.4s12.3-1.6,17.1,7.2
					c4.7,8.8,5.7,93.3,5.7,93.3h-94.6L831.4,613.1z"/>
			</g>
			<g>
				<path class="st26" d="M706.3,614c0,0-0.5-10.3,7-15.3c3.7-2.4,12.2-3.8,12.2-3.8s0.4-2.6,0.8-4c0.2-0.9,8.7-3.5,8.8-4.2
					c0,0-6.4-5.2-5.3-10.1c0,0-1.6-4.4-0.8-6.4s-2.7-3.9-2.3-5.7c0.9-3.3,1.3-4.5,1.3-4.5s-1.9-7.9,1.6-10.9
					c3.5-3,12.3-10.3,19.1-7.8c6.8,2.5,10.6,2.5,14.4,8.1c3.8,5.5,3,11.2,2.1,12.3s0.3,1.6-0.3,6.4c-0.6,4.8-3.3,7.9-3.6,9.6
					c-0.5,2.3-1.9,5.5-1.9,5.5s8.3-0.1,9,1.4c0.6,1.5,4.6,2.7,7,3.7s2.1,2.4,2.1,2.4s12.3-1.6,17.1,7.2c4.7,8.8-0.8,101.2-0.8,101.2
					h-94.6L706.3,614z"/>
			</g>
			<g>
				<path class="st27" d="M611.2,617.4c0,0-0.6-12,8.1-17.8c4.3-2.8,14.1-4.4,14.1-4.4s0.5-3,0.9-4.6c0.3-1,10.1-4,10.2-4.9
					c0,0-7.4-6-6.2-11.8c0,0-1.8-5.1-0.9-7.4c0.9-2.3-3.2-4.6-2.7-6.6c1-3.9,1.6-5.2,1.6-5.2s-2.2-9.2,1.8-12.7s14.3-12,22.2-9
					s12.3,2.9,16.7,9.4s3.5,13,2.4,14.2c-1.1,1.2,0.4,1.9-0.3,7.4c-0.7,5.6-3.8,9.2-4.2,11.1c-0.6,2.6-2.2,6.3-2.2,6.3
					s9.7-0.1,10.4,1.7c0.7,1.7,5.3,3.1,8.1,4.3c2.8,1.2,2.4,2.8,2.4,2.8s14.3-1.9,19.8,8.3c5.5,10.2,14.9,101.1,14.9,101.1
					l-128.6,12.7L611.2,617.4z"/>
			</g>
			<g>
				<path class="st28" d="M752.1,617.4c0,0-0.6-12,8.1-17.8c4.3-2.8,14.1-4.4,14.1-4.4s0.5-3,0.9-4.6c0.3-1,10.1-4,10.2-4.9
					c0,0-7.4-6-6.2-11.8c0,0-1.8-5.1-0.9-7.4c0.9-2.3-3.2-4.6-2.7-6.6c1-3.9,1.6-5.2,1.6-5.2s-2.2-9.2,1.8-12.7s14.3-12,22.2-9
					s12.3,2.9,16.7,9.4s3.5,13,2.4,14.2c-1.1,1.2,0.4,1.9-0.3,7.4c-0.7,5.6-3.8,9.2-4.2,11.1c-0.6,2.6-2.2,6.3-2.2,6.3
					s9.7-0.1,10.4,1.7c0.7,1.7,5.3,3.1,8.1,4.3c2.8,1.2,2.4,2.8,2.4,2.8s14.3-1.9,19.8,8.3c5.5,10.2,4.8,100.4,4.8,100.4H749.3
					L752.1,617.4z"/>
			</g>
		</g>
		<g>
			<g>
				<path class="st28" d="M1135.5,652c0,0-0.7-13.5,9.1-20c4.8-3.2,15.9-5,15.9-5s0.6-3.4,1.1-5.2c0.3-1.1,11.4-4.5,11.4-5.5
					c0,0-8.3-6.8-7-13.2c0,0-2.1-5.8-1-8.3c1-2.5-3.6-5.1-3-7.4c1.1-4.3,1.8-5.9,1.8-5.9s-2.5-10.3,2.1-14.2s16.1-13.5,25-10.1
					c8.9,3.3,13.8,3.3,18.8,10.5c5,7.2,3.9,14.6,2.7,16c-1.2,1.4,0.4,2.1-0.4,8.4s-4.3,10.3-4.8,12.5c-0.6,3-2.4,7.1-2.4,7.1
					s10.9-0.1,11.7,1.9s6,3.5,9.1,4.9c3.1,1.4,2.7,3.1,2.7,3.1s16.1-2.1,22.3,9.4c6.2,11.5,5.3,47.3,5.3,47.3h-123.4L1135.5,652z"/>
			</g>
			<g>
				<path class="st26" d="M999.6,638.8c0,0-0.7-13.5,9.1-20c4.8-3.2,15.9-5,15.9-5s0.6-3.4,1.1-5.2c0.3-1.1,11.4-4.5,11.4-5.5
					c0,0-8.3-6.8-7-13.2c0,0-2.1-5.8-1-8.3c1-2.5-3.6-5.1-3-7.4c1.1-4.3,1.8-5.9,1.8-5.9s-2.5-10.3,2.1-14.2
					c4.5-3.9,16.1-13.5,25-10.1c8.9,3.3,13.8,3.3,18.8,10.5c5,7.2,3.9,14.6,2.7,16c-1.2,1.4,0.4,2.1-0.4,8.4s-4.3,10.3-4.8,12.5
					c-0.6,3-2.4,7.1-2.4,7.1s10.9-0.1,11.7,1.9s6,3.5,9.1,4.9s2.7,3.1,2.7,3.1s16.1-2.1,22.3,9.4c6.2,11.5,5.3,47.3,5.3,47.3H996.4
					L999.6,638.8z"/>
			</g>
			<g>
				<path class="st27" d="M945.6,647.4c0,0-0.6-11.7,7.9-17.3c4.2-2.8,13.7-4.3,13.7-4.3s0.5-2.9,0.9-4.5c0.3-1,9.9-3.9,9.9-4.8
					c0,0-7.2-5.9-6-11.5c0,0-1.8-5-0.9-7.2s-3.1-4.5-2.6-6.4c1-3.8,1.5-5.1,1.5-5.1s-2.1-9,1.8-12.4c3.9-3.4,14-11.7,21.7-8.8
					c7.7,2.9,12,2.9,16.3,9.1c4.3,6.3,3.4,12.7,2.3,13.9c-1.1,1.2,0.4,1.8-0.3,7.3c-0.7,5.4-3.7,8.9-4.1,10.8
					c-0.5,2.6-2.1,6.2-2.1,6.2s9.4-0.1,10.1,1.6s5.2,3,7.9,4.2c2.7,1.2,2.3,2.7,2.3,2.7s14-1.9,19.3,8.1c5.4,10,4.9,82.4,4.9,82.4
					l-107.3-41.5L945.6,647.4z"/>
			</g>
			<g>
				<path class="st28" d="M865.8,678c0,0-0.8-15.6,10.5-23.2c5.6-3.7,18.4-5.8,18.4-5.8s0.6-3.9,1.2-6c0.4-1.3,13.2-5.3,13.3-6.4
					c0,0-9.6-7.8-8.1-15.3c0,0-2.4-6.7-1.2-9.6c1.2-2.9-4.2-6-3.5-8.6c1.3-5,2-6.8,2-6.8s-2.9-12,2.4-16.5
					c5.3-4.5,18.7-15.6,29-11.8s16,3.8,21.8,12.2s4.5,17,3.1,18.6s0.5,2.5-0.4,9.7c-0.9,7.2-5,12-5.5,14.5c-0.7,3.4-2.8,8.3-2.8,8.3
					s12.6-0.1,13.6,2.2s6.9,4.1,10.5,5.7c3.6,1.6,3.1,3.6,3.1,3.6s18.7-2.5,25.9,10.9s6.2,75.1,6.2,75.1l-143.1-1.6L865.8,678z"/>
			</g>
			<g>
				<path class="st28" d="M774.3,696.9c0,0,4.7-18,16-25.5c5.6-3.7,18.4-5.8,18.4-5.8s0.6-3.9,1.2-6c0.4-1.3,13.2-5.3,13.3-6.4
					c0,0-9.6-7.8-8.1-15.3c0,0-2.4-6.7-1.2-9.6s-4.2-6-3.5-8.6c1.3-5,2-6.8,2-6.8s-2.9-12,2.4-16.5c5.3-4.5,18.7-15.6,29-11.8
					c10.3,3.8,16,3.8,21.8,12.2c5.7,8.4,4.5,17,3.1,18.6s0.5,2.5-0.4,9.7c-0.9,7.2-5,12-5.5,14.5c-0.7,3.4-2.8,8.3-2.8,8.3
					s12.6-0.1,13.6,2.2c1,2.3,6.9,4.1,10.5,5.7c3.6,1.6,3.1,3.6,3.1,3.6s18.7-2.5,25.9,10.9c7.2,13.4,6.2,75.1,6.2,75.1l-153-26.9
					L774.3,696.9z"/>
			</g>
			<g>
				<path class="st28" d="M1000.8,717.2c0,0-1.1-20.3,13.7-30.1c7.2-4.8,23.9-7.5,23.9-7.5s0.8-5.1,1.6-7.8
					c0.5-1.7,17.2-6.8,17.3-8.3c0,0-12.5-10.2-10.5-19.9c0,0-3.1-8.7-1.6-12.5c1.6-3.8-5.4-7.7-4.5-11.2c1.7-6.6,2.6-8.8,2.6-8.8
					s-3.7-15.6,3.1-21.5s24.3-20.3,37.7-15.3c13.4,5,20.9,5,28.3,15.9s5.9,22.1,4,24.1c-1.9,2.1,0.6,3.2-0.6,12.6
					c-1.2,9.4-6.5,15.5-7.2,18.8c-1,4.5-3.7,10.7-3.7,10.7s16.4-0.1,17.6,2.8c1.2,2.9,9,5.3,13.7,7.4c4.7,2.1,4,4.7,4,4.7
					s38.2,8.5,47.6,25.8c9.3,17.4,9,59.6,9,59.6H996L1000.8,717.2z"/>
			</g>
			<g>
				<path class="st28" d="M1188.1,697.2c0,0-0.7-14.6,9.1-21.6c4.8-3.4,15.9-5.4,15.9-5.4s0.6-3.6,1.1-5.6
					c0.3-1.2,11.4-4.9,11.4-5.9c0,0-8.3-7.3-7-14.3c0,0-2.1-6.2-1-9c1-2.7-3.6-5.5-3-8c1.1-4.7,1.8-6.3,1.8-6.3s-2.5-11.2,2.1-15.4
					c4.5-4.2,16.1-14.5,25-11s13.8,3.6,18.8,11.4c5,7.8,3.9,15.8,2.7,17.3s0.4,2.3-0.4,9c-0.8,6.7-4.3,11.1-4.8,13.5
					c-0.6,3.2-2.4,7.7-2.4,7.7s10.9-0.1,11.7,2s6,3.8,9.1,5.3s2.7,3.4,2.7,3.4s16.1-2.3,22.3,10.1c6.2,12.4,5.3,60.4,5.3,60.4
					h-123.4L1188.1,697.2z"/>
			</g>
		</g>
		<path class="st26" d="M1059.4,541.3c-14-3.4-26.7,0.6-28.5,9c-0.2,0.8-0.2,1.7-0.2,2.5l-9.7,6.6c-2.4,1.6-1.6,5.5,1.2,5.9
			l11.4,1.8c1.8,0.3,3.5-1.2,3.5-3.2v-0.2c4,3.4,9.5,6.3,15.9,7.8c14,3.4,26.7-0.6,28.5-9C1083.2,554.3,1073.4,544.7,1059.4,541.3z"
			/>
		<path class="st26" d="M1193.7,548c-14-3.4-26.7,0.6-28.5,9c-0.2,0.8-0.2,1.7-0.2,2.5l-9.7,6.6c-2.4,1.6-1.6,5.5,1.2,5.9l21,1.1
			c1.8,0.3-6.1-0.5-6.1-2.4v-0.2c4,3.4,9.5,6.3,15.9,7.8c14,3.4,26.7-0.6,28.5-9C1217.6,561,1207.7,551.4,1193.7,548z"/>
		<path class="st26" d="M877,535c-9.7-2.5-18.5,0.5-19.7,6.6c-0.1,0.6-0.2,1.2-0.1,1.8l-6.7,4.8c-1.6,1.2-1.1,4,0.8,4.3l14.5,0.8
			c1.3,0.2-4.2-0.3-4.2-1.8v-0.1c2.7,2.5,6.6,4.6,11,5.7c9.7,2.5,18.5-0.5,19.7-6.6C893.5,544.5,886.6,537.5,877,535z"/>
	</g>
	<g>
		<g>
			<g>
				<path class="st27" d="M1316.1,612c0,0-0.5-9,6-13.3c3.2-2.1,10.5-3.3,10.5-3.3s0.4-2.2,0.7-3.4c0.2-0.7,7.6-3,7.6-3.7
					c0,0-5.5-4.5-4.6-8.8c0,0-1.4-3.8-0.7-5.5c0.7-1.7-2.4-3.4-2-4.9c0.7-2.9,1.2-3.9,1.2-3.9s-1.6-6.9,1.4-9.5
					c3-2.6,10.7-9,16.6-6.7c5.9,2.2,9.2,2.2,12.5,7c3.3,4.8,2.6,9.7,1.8,10.6c-0.8,0.9,0.3,1.4-0.3,5.6c-0.5,4.2-2.9,6.9-3.2,8.3
					c-0.4,2-1.6,4.7-1.6,4.7s7.2,0,7.8,1.3s4,2.3,6,3.2c2.1,0.9,1.8,2.1,1.8,2.1s10.7-1.4,14.8,6.2c4.1,7.7,3.6,89.6,3.6,89.6h-82
					L1316.1,612z"/>
			</g>
			<g>
				<path class="st27" d="M1241.4,619.8c0,0-0.6-12,8.1-17.8c4.3-2.8,14.1-4.4,14.1-4.4s0.5-3,0.9-4.6c0.3-1,10.1-4,10.2-4.9
					c0,0-7.4-6-6.2-11.8c0,0-1.8-5.1-0.9-7.4c0.9-2.3-3.2-4.6-2.7-6.6c1-3.9,1.6-5.2,1.6-5.2s-2.2-9.2,1.8-12.7
					c4-3.5,14.3-12,22.2-9c7.9,2.9,12.3,2.9,16.7,9.4c4.4,6.4,3.5,13,2.4,14.2s0.4,1.9-0.3,7.4c-0.7,5.6-3.8,9.2-4.2,11.1
					c-0.6,2.6-2.2,6.3-2.2,6.3s9.7-0.1,10.4,1.7c0.7,1.7,5.3,3.1,8.1,4.3s2.4,2.8,2.4,2.8s14.3-1.9,19.8,8.3
					c5.5,10.2,14.9,101.1,14.9,101.1l-128.6,12.7L1241.4,619.8z"/>
			</g>
		</g>
	</g>
</g>
</svg>
