<?xml version="1.0" encoding="utf-8"?>
<!-- Generator: Adobe Illustrator 28.0.0, SVG Export Plug-In . SVG Version: 6.00 Build 0)  -->
<svg version="1.1" id="Layer_1" xmlns="http://www.w3.org/2000/svg" xmlns:xlink="http://www.w3.org/1999/xlink" x="0px" y="0px"
	 viewBox="0 0 2033.6 759.7" style="enable-background:new 0 0 2033.6 759.7;" xml:space="preserve">
<style type="text/css">
	.st0{display:none;}
	.st1{display:inline;fill:#8C191B;}
	.st2{fill:#8C191B;}
	.st3{fill:#FEDFB2;}
	.st4{fill:#2D1B16;}
	.st5{fill:#FEDFB3;}
	.st6{fill:#525252;}
	.st7{fill:#BAAE8D;}
	.st8{fill:#C9C4B9;}
	.st9{fill:#FFD591;}
	.st10{fill:#F68D56;}
	.st11{fill:#391513;}
	.st12{stroke:#686767;stroke-width:2;stroke-miterlimit:10;}
	.st13{fill:#CE6B44;}
	.st14{fill:none;stroke:#686767;stroke-width:2;stroke-miterlimit:10;}
	.st15{fill:#E2AA96;}
	.st16{fill:#E29D84;}
	.st17{fill:#6F6F6F;stroke:#686767;stroke-width:2;stroke-miterlimit:10;}
	.st18{fill:#423540;}
	.st19{fill:#DA7648;}
	.st20{fill:#3A1514;}
	.st21{fill:#471817;}
	.st22{fill:#2C1212;}
	.st23{fill:#522121;}
	.st24{fill:#B08564;}
	.st25{fill:#CA6E49;}
	.st26{fill:#050505;}
	.st27{fill:#391513;stroke:#58595B;stroke-miterlimit:10;}
	.st28{fill:#C0755F;}
	.st29{fill:#6F6F6F;}
	.st30{fill:#B21F24;}
	.st31{fill:#A11D21;}
	.st32{display:inline;}
	.st33{fill:#75161C;}
	.st34{fill:#BE2026;}
	.st35{enable-background:new    ;}
	.st36{fill:#EBEAF1;}
</style>
<g id="Layer_2_00000178922672239374516610000002176968668571427472_">
</g>
<g id="Layer_7" class="st0">
	<rect x="331.6" y="-37.4" class="st1" width="1357.2" height="787.2"/>
</g>
<g id="Layer_6">
	<path class="st2" d="M1574.7,578c0,0-24.7-216.6-25.6-225.3c-3.1-32.1-10.6-71.1-21.9-90.9c-21.2-37-76.4-21.1-76.4-21.1
		s1.4-5.7-9.2-10c-10.6-4.4-28.3-9.4-31.1-15.6c-2.8-6.3-10.2-11.3-10.2-11.3l-8.2-15.4l-15.6-4.4c0,0,5.7-4.7,13.5-6.5
		c7.8-1.9,7.1-10,9.9-30.1c2.8-20.1-7.8-23.8-3.5-28.2c4.3-4.4,7.8-28.2-9.2-51.4s-33.9-23.2-64.3-33.8
		c-30.4-10.7-70,20.1-85.6,32.6s-7.1,45.7-7.1,45.7s-1.4,5-6,18.8c-4.6,13.8,13.8,15.6,10.3,23.8c-3.5,8.2,3.7,32.9,3.7,32.9
		c-8.4,3.4-14.8,13.3-11.8,29.3c0.4,2.2,7.6-7.9,7.2-6.1c-0.9,3.3-4.1,7.8-3.4,11.8c0.2,0.9,5.4-1.2,5.8,0.2
		c0.9,2.5,1.4,0.9,1.4,0.9c-20,26.8,0,26.3,0,26.3s-4.6,9.1-12.7,16.4c-3.2-3.6-9.9-15.4-14-17.9c-41-25.1-95.5-19.4-91.3-23.8
		c4.3-4.4-13.5-17.6-9-21.3c4.4-3.7-1.6-15-0.2-19.8c1.3-4.7-2.7-7.8-0.5-15.9c2.3-8.2-5.1-12.5-1.6-17.6c3.5-5,0-17,0-17
		s-6.4-20.7-23.3-42c-17-21.3,0,0-26.1-30.1c-26.1-30.1-55.9-19.4-55.9-19.4s-16.3-11.9-71.4,24.4s-52.4,83.3-55.9,95.9
		c-3.5,12.5,14.2,11.9,16.7,21.6c2.6,9.6,17.2,13.5,27.1,20.5c9.9,6.9,17.7,4.4,17.7,4.4l-3.5,13.1c0,0-19.9-0.8-23.3,0.1
		c-11.3,3.1-17.3,22.3-17.3,22.3s-59.2,20.8-86.1,25.2c-5.4,0.9-9.6,4.1-12.6,8.8l-32.8-9.8l-2.1-9.7c0,0,1.8-2.8,7.1-5.3
		c5.3-2.5,11.3-20.7,18.4-35.4s0-42.9,3.9-46.1c3.9-3.1,2.8-17.6,2.8-17.6l6.4-9.1l-3.5-6.6c5.7-10.7,3.2-25.4,3.2-25.4l5-7.2
		c-33.2-88.7-107.1-48.2-107.1-48.2c-21.6-3.7-46,24.7-46,24.7s-4.7,17-4.3,29.5s4.3,21.9,4.3,21.9c-5.4-2.8-9.2-2.2-9.2-2.2
		c-5.1,1.8-3.5,7.9-2.1,17.9c1.6,10.8,4.3,21.8,6.6,25c2.3,3.2,18.8,17.2,18.8,17.2l-7.7,19c-8.7,2.3-20.1,0.9-30,2.3
		c-2.8,0.4-5.5,8.3-8.4,8.7c-25.5,3.7-53.6,8-80.1,23.5c-51,30.1-50.8,104.2-50.8,104.2l1.5,208.5l269.1,1.8l326.4-5.4l203,3
		L1574.7,578z"/>
	<path class="st3" d="M1336.7,201.3c-6.8-20.4-27.7-20.2-27.7-20.2l-22.2,1.6l-0.5,0.1l1.6,3.1c0,0,35.2-10.5,41.9,9.8
		c6.8,20.3-10.5-3.4-10.5-3.4s10.3,20.5,4.9,19c-5.4-1.5-10.9-7.4-10.9-7.4s3.4,12.4-3,10.3c-6.4-1.9-10.9-5.4-10.9-5.4
		s3.7,7.3-2.6,5.6c-6.3-1.7-13.2,0.2-13.2,0.2s0.1,6.8-5.1,4.9s-8.6-3.4-8.6-3.4s-1.6,8.2-6.8,4.7c0.7,2.3,1.6,4.2,2.6,5.1
		c6.1,5.4,7.9-3.9,7.9-3.9s3.3,1.5,8.6,3.4c5.2,1.9,5.1-4.9,5.1-4.9s6.9-1.9,13.2-0.2s2.6-5.6,2.6-5.6s4.4,3.4,10.9,5.4
		c6.4,1.9,3-10.3,3-10.3s5.4,5.9,10.9,7.4c5.4,1.5-5-18.9-5-18.9S1343.5,221.6,1336.7,201.3z"/>
	<g>
		<path class="st3" d="M1102.9,203.7c-5.4-15.9-19.3-22.8-24.6-23.8s-6.7-0.2-6.7-0.2s15.2-0.3,25.1,17.4c10.5,18.7-5.8,4.1-5.8,4.1
			s1.5,7.6-3.7,5.4c-5.2-2.2-7.9-3.7-7.9-3.7s1.7,12.7-4.4,9.9c-6.1-2.9-10-6.8-10-6.8s3.1,11.5-2.9,8.9s-8.3-3.3-8.3-3.3
			s-4.6,7.8-9.6,5.1c-4.9-2.6-8.6-4.6-8.6-4.6s-3.6,5-8.3,0.8c0.3,2.4,0.5,4.8,1.9,5.4c4.8,2.4,8.3-2.8,8.3-2.8s3.1,1.9,8,4.5
			c4.9,2.6,5.8-4.1,5.8-4.1s7.1-0.9,13.1,1.6c6,2.6,3.3-5.2,3.3-5.2s3.9,4,10,6.8c6.1,2.9,4.4-9.9,4.4-9.9s2.6,1.5,7.9,3.7
			c5.1,2.3,3-6.4,3-6.4S1112.7,232.5,1102.9,203.7z"/>
		<path class="st3" d="M1115.2,249c5.3-4.1,7.2-10.8,4-15.5c-0.7-1.1-1.6-1.9-2.7-2.6c0.2,3.9-1.7,8.2-5.3,11.1
			c0.3,0.4,0.6,0.7,0.9,1.2c3.1,5.1,0.9,12.4-5,16.6c-3.3,2.3-7,3.1-10.2,2.5c-1.2,5.6-5.1,9.7-9.8,9.7c-2.6,0-5-1.3-6.8-3.4
			c-0.2,7.3,6.6,23.8-10.2,13.2c-1.8-1.2-4.1-0.9-5.8-2.4c-1.4,5.2-5.2,8.9-9.6,8.9c-3.8,0-7.1-2.7-8.9-6.8
			c-0.7,0.2-1.5,0.2-2.3,0.2c-3.9,0-7.3-1.9-9.6-4.7c-2.1,4.4-6.4,7.4-11.4,7.4c-5.4,0-10-3.6-11.8-8.6c-2.3,2.2-5.3,3.6-8.6,3.6
			c-6.8,0-12.4-5.7-12.7-12.9c-4.3,1.9-10.5,10.4-15.5,7.3c-5.4-3.3-0.3-5.8-21.6-36.7c-0.9-1.3-9.5-9.3-9.5-14.9
			c0-2.9,1.1-5.5,2.9-7.4c-1.8-1.9-2.9-4.4-2.9-7.4c0-0.2,0-0.5,0-0.7c-2.6,1.9-4.3,4.8-4.3,8.2c0,2.8,1.2,5.4,3,7.2
			c-1.9,1.9-3,4.4-3,7.2c0,5.6,1.6,8.6,7.2,8.6c0.2,0,3.3,1.5,3.5,1.5c-0.4,1,1.5,14.2,4,22.3c0.5,1.6,2.3,2.6,3.7,1.6
			c1.3-0.9,2.7,0.5,4.7-5.9c0.1-0.2-3,6.5,10.3,23.7c3.7,4.7,17-4.4,15.2-8.1c0.4,7.1,6.1,12.7,13.3,12.7c3.4,0,6.6-1.3,8.9-3.5
			c1.9,4.9,6.8,8.4,12.4,8.4c5.2,0,9.6-3,11.9-7.3c2.4,2.9,6.1,4.7,10.1,4.7c0.8,0,1.6-0.1,2.3-0.2c1.9,4,5.3,6.7,9.3,6.7
			c4.7,0,8.6-3.7,10-8.8c1.7,1.5,3.8,2.3,6.1,2.3c5.8,0,22.3,6.5,10.7-13c1.9,2.1,4.4,3.3,7.1,3.3c4.8,0,8.9-4,10.3-9.6
			c3.3,0.6,7.2-0.2,10.7-2.4c6.1-4,8.5-11.4,5.2-16.3C1115.8,249.7,1115.5,249.3,1115.2,249z"/>
	</g>
	<path class="st3" d="M650.4,96c-0.2,1.8-1.6,5.6,3.8,10.7c1.8,1.6,5.1,1.8,5.1,1.8s-1.2,4.8,1.8,8.1c3,3.3,10.2-4.3,11.1-1.6
		c0.9,2.7,0,5.3,0,5.3s0.8,7.1,7.2,8.4s11.5-25.2,9.4-14.3c-2.1,10.9,3.8,16.3,3.8,16.3s-5.6-34.1,19.7-38
		c25.2-4-24.1-8.2-27.1,22.3s-12.9-10.5-12.9-10.5s-18.3,5.9-19.8-10.2C651.9,89.2,650.8,92.9,650.4,96z"/>
</g>
<g id="Layer_1_00000023262506149448593530000003297572640908992394_">
	<g>
		<polygon class="st4" points="-35.9,453.3 39.4,411.2 161.2,465.8 156.1,534.6 -35.9,531.9 		"/>
		<g>
			<path class="st5" d="M568.6,440.7l0.7,0c1.1-3.2,1.8-6.7,1.8-10.4c0-4.4-0.9-8.6-2.5-12.3V440.7z"/>
			<path class="st5" d="M718.3,297.5c-4.6-6.1-15.2-6.9-22.5-6.2c2.6-2.4,4-5.9,4-6.7c0-5.6-4-10.1-9-10.1c-0.8,0-1.5,0.1-2.2,0.3
				c-1-13-6.2-23-12.4-23c-2.3,0-4.5,1.4-6.3,3.8c-2.3-5.4-5.5-8.8-9.2-8.8c-0.4,0-0.7,0-1,0.1c-2.3-5.7-5.6-9.2-9.4-9.2
				c-4.1,0-7.8,4.4-10.1,11.2c-1.9-1.3-3.9-2-6-2c-7.5,0-13.9,8.9-15.6,20.9c-1.6-1.5-3.4-2.4-5.3-2.4c-3.2,0-6,2.3-8,6.1
				c-0.9-0.5-1.8-0.7-2.8-0.7c-4.5,0-8.1,5.5-8.4,12.4c-2.4-0.5-4.9-0.8-7.6-0.8c-6.8,0-10.5,9.2-15.4,27.5l-2.5,4.6h68.9
				c-1.7,4.9-3,10.9-3.6,17.5c-1.4-2.2-3.3-3.5-5.2-3.5c-3.2,0-6,3.5-8,9.1c-0.9-0.7-1.8-1.1-2.8-1.1c-4.5,0-8.1,8.2-8.4,18.6
				c-2.4-0.8-4.9-1.2-7.6-1.2c-13,0-23.9,10.4-27,24.6c-1.9-1.3-4-2.2-6.3-2.6v26.7h145.1c0.7-1.4,1.1-2.8,1.1-4.4
				c0.4-6.7-6.6-12-15.1-12c-1.3,0-2.6,0.1-3.8,0.4c-1.2-10.5-5.7-19.2-11.9-23.7h30.5c0.4-1.7,0.6-3.6,0.6-5.6c0-8.3-4-15.1-9-15.1
				c-0.8,0-1.5,0.2-2.2,0.5c-0.6-11.8-2.7-21.8-5.7-28h0.5c0.7-0.9,1.1-1.9,1.1-2.9c0-4.4-6.9-7.9-15.5-7.9c-1.2,0-2.3,0.1-3.4,0.2
				c-0.2-0.2-0.8-0.6-0.5-0.7c12.7-6.6,28.7,3.8,30.6,6.1C714.2,309,725.3,306.8,718.3,297.5z M648.4,289c-0.2-0.3-0.5-0.5-0.8-0.8
				h2.3C649.4,288.3,648.9,288.6,648.4,289z M663.6,363.9c-0.2-0.4-0.5-0.8-0.8-1.2h2.2C664.6,363.1,664.1,363.6,663.6,363.9z"/>
			<path class="st5" d="M711,309.5c-0.5,0.1-0.8,0.1-0.8,0.1C711.2,310.1,711.4,309.9,711,309.5z"/>
		</g>
		<g>
			<path class="st5" d="M1379.6,517.8l0.7,0c1.1-3.2,1.8-6.7,1.8-10.4c0-4.4-0.9-8.6-2.5-12.3V517.8z"/>
			<path class="st5" d="M1529.3,374.6c-4.6-6.1-15.2-6.9-22.5-6.2c2.6-2.4,4-5.9,4-6.7c0-5.6-4-10.1-9-10.1c-0.8,0-1.5,0.1-2.2,0.3
				c-1-13-6.2-23-12.4-23c-2.3,0-4.5,1.4-6.3,3.8c-2.3-5.4-5.5-8.8-9.2-8.8c-0.4,0-0.7,0-1,0.1c-2.3-5.7-5.6-9.2-9.4-9.2
				c-4.1,0-7.8,4.4-10.1,11.2c-1.9-1.3-3.9-2-6-2c-7.5,0-13.9,8.9-15.6,20.9c-1.6-1.5-3.4-2.4-5.3-2.4c-3.2,0-6,2.3-8,6.1
				c-0.9-0.5-1.8-0.7-2.8-0.7c-4.5,0-8.1,5.5-8.4,12.4c-2.4-0.5-4.9-0.8-7.6-0.8c-6.8,0-10.5,9.2-15.4,27.5l-2.5,4.6h68.9
				c-1.7,4.9-3,10.9-3.6,17.5c-1.4-2.2-3.3-3.5-5.2-3.5c-3.2,0-6,3.5-8,9.1c-0.9-0.7-1.8-1.1-2.8-1.1c-4.5,0-8.1,8.2-8.4,18.6
				c-2.4-0.8-4.9-1.2-7.6-1.2c-13,0-23.9,10.4-27,24.6c-1.9-1.3-4-2.2-6.3-2.6v26.7h145.1c0.7-1.4,1.1-2.8,1.1-4.4
				c0.4-6.7-6.6-12-15.1-12c-1.3,0-2.6,0.1-3.8,0.4c-1.2-10.5-5.7-19.2-11.9-23.7h30.5c0.4-1.7,0.6-3.6,0.6-5.6c0-8.3-4-15.1-9-15.1
				c-0.8,0-1.5,0.2-2.2,0.5c-0.6-11.8-2.7-21.8-5.7-28h0.5c0.7-0.9,1.1-1.9,1.1-2.9c0-4.4-6.9-7.9-15.5-7.9c-1.2,0-2.3,0.1-3.4,0.2
				c-0.2-0.2-0.8-0.6-0.5-0.7c12.7-6.6,28.7,3.8,30.6,6.1C1525.2,386.1,1536.3,383.9,1529.3,374.6z M1459.4,366.1
				c-0.2-0.3-0.5-0.5-0.8-0.8h2.3C1460.4,365.4,1459.9,365.7,1459.4,366.1z M1474.6,441c-0.2-0.4-0.5-0.8-0.8-1.2h2.2
				C1475.6,440.2,1475.1,440.6,1474.6,441z"/>
			<path class="st5" d="M1522,386.6c-0.5,0.1-0.8,0.1-0.8,0.1C1522.2,387.2,1522.4,387,1522,386.6z"/>
		</g>
		<g>
			<g>
				<polygon points="1251.4,400.9 1243.8,400.9 1243.8,303.2 1249.3,303.2 				"/>
				<rect x="1238.6" y="303.2" class="st6" width="5.4" height="97.6"/>
				<polygon class="st7" points="1239,400.9 1234.4,400.9 1237.3,303.2 1239,303.2 				"/>
				<rect x="1239" y="303.2" class="st8" width="1.7" height="97.6"/>
				<rect x="1235.5" y="301.5" width="14.8" height="1.7"/>
				<rect x="1235.5" y="298.4" class="st8" width="14.8" height="3.1"/>
			</g>
			<rect x="1236.9" y="319" class="st8" width="12.7" height="0.7"/>
			<rect x="1236.9" y="333.5" class="st8" width="12.7" height="0.7"/>
			<rect x="1236.9" y="348" class="st8" width="12.7" height="0.7"/>
			<rect x="1236.9" y="362.5" class="st8" width="12.7" height="0.7"/>
		</g>
		<g>
			<g>
				<polygon points="1221.1,396.7 1213.5,396.7 1213.5,229.1 1218.9,229.1 				"/>
				<rect x="1208.3" y="229.1" class="st6" width="5.4" height="167.6"/>
				<polygon class="st7" points="1208.7,396.7 1204.1,396.7 1207,229.1 1208.7,229.1 				"/>
				<rect x="1208.7" y="229.1" class="st8" width="1.7" height="167.6"/>
				<rect x="1205.1" y="227.3" width="14.8" height="1.7"/>
				<rect x="1205.1" y="224.2" class="st8" width="14.8" height="3.1"/>
			</g>
			<rect x="1206.6" y="244.9" class="st8" width="12.7" height="0.7"/>
			<rect x="1206.6" y="259.3" class="st8" width="12.7" height="0.7"/>
			<rect x="1206.6" y="273.8" class="st8" width="12.7" height="0.7"/>
			<rect x="1206.6" y="288.3" class="st8" width="12.7" height="0.7"/>
		</g>
		<polygon class="st9" points="-35.9,468.6 2033.6,449.2 2033.6,582.1 -19.2,584.5 		"/>
		<polygon class="st4" points="1124.7,413.6 1191.3,381.3 1299,423.2 1294.5,481.4 1124.7,479.3 		"/>
		<polygon class="st4" points="161.2,397.6 236.5,355.5 358.3,410.1 353.2,478.9 161.2,476.2 		"/>
		<polygon class="st4" points="1518,432.5 1608,396.3 1696.9,451.6 1696.9,497.1 1518,498.2 		"/>
		<polygon class="st4" points="1696.9,419.5 1731.7,438.5 1732.6,418.7 1782.1,443.4 1875.8,447.7 1875.8,484.1 1696.9,485.2 		"/>
		<polygon class="st10" points="589,503.2 692.3,497 660.5,507.2 827.6,509.2 1189.8,529.8 1391,540.8 1455.4,505.4 1476.7,504 
			1515.1,564.9 1683.9,647.1 1049.7,584.5 820.6,553.1 877.5,536.1 697.2,518.1 		"/>
		<path class="st5" d="M740.9,499.2c-1.3,0-2.6,0.1-3.8,0.4c-1.2-10.5-5.7-19.2-11.9-23.7h30.5c0.4-1.7,0.6-3.6,0.6-5.6
			c0-8.3-4-15.1-9-15.1c-0.8,0-1.5,0.2-2.2,0.5c-0.6-11.8-2.7-21.8-5.7-28h0.5c0.7-0.9,1.1-1.9,1.1-2.9c0-4.4-6.9-7.9-15.5-7.9
			c-1.2,0-2.3,0.1-3.4,0.2c-0.2-0.2-0.8-0.6-0.5-0.7c15.4-8,35.7,9.1,29.8,6.2c0,0,16.3-1.3,8.1-12.1c-8.2-10.8-35.6-4.9-28.9-4
			s10.4-7.6,10.4-8.9c0-5.6-4-10.1-9-10.1c-0.8,0-1.5,0.1-2.2,0.3c-1-13-6.2-23-12.4-23c-2.3,0-4.5,1.4-6.3,3.8
			c-2.3-5.4-5.5-8.8-9.2-8.8c-0.4,0-0.7,0-1,0.1c-2.3-5.7-5.6-9.2-9.4-9.2c-4.1,0-7.8,4.4-10.1,11.2c-1.9-1.3-3.9-2-6-2
			c-7.5,0-13.9,8.9-15.6,20.9c-1.6-1.5-3.4-2.4-5.3-2.4c-3.2,0-6,2.3-8,6.1c-0.9-0.5-1.8-0.7-2.8-0.7c-4.5,0-8.1,5.5-8.4,12.4
			c-2.4-0.5-4.9-0.8-7.6-0.8c-13,0-23.9,7-27,16.4c-2.7-1.2-5.8-1.9-9.2-1.9c-4.1,0-7.8,1-10.9,2.7c-0.1,0-0.1,0-0.2,0
			c-1.8-14.4-10.7-25.3-21.4-25.3c-4,0-7.7,1.5-10.9,4.2c-3.9-6-9.6-9.7-15.8-9.7c-0.6,0-1.2,0-1.8,0.1c-2.3-3.7-5.3-6.5-8.6-8.3
			c-1.6-3.5-7.7-6.1-15.1-6.1c-1.3,0-2.6,0.1-3.8,0.2c-1.8-10.2-10.7-18-21.4-18c-4,0-7.7,1.1-10.9,3c-3.9-4.2-9.6-6.9-15.8-6.9
			c-0.6,0-1.2,0-1.8,0.1c-4-4.4-9.7-7.2-16.2-7.2c-7.2,0-13.5,3.5-17.5,8.8c-3.2-1-6.7-1.6-10.4-1.6c-13,0-23.9,7-27,16.4
			c-2.7-1.2-5.8-1.9-9.2-1.9c-5.4,0-10.3,1.8-13.7,4.7c-1.5-0.4-3.1-0.6-4.8-0.6c-7.5,0-10,2.9-10.8,8l0.3,125.3l0.1,54.4l266.6,1.6
			c1.1-3.2,1.8-6.7,1.8-10.4c0-13.8-8.8-25.3-20.5-27.8h163.1c0.7-1.4,1.1-2.8,1.1-4.4C756.4,504.5,749.4,499.2,740.9,499.2z
			 M691.1,401.2c-0.5,0.2-1,0.5-1.5,0.8c-0.2-0.3-0.5-0.5-0.8-0.8H691.1z M567.5,427.6c-0.5,0.1-0.9,0.1-1.4,0.2c0-0.1,0-0.2,0-0.2
			H567.5z M581.3,515.7c0-0.1,0-0.2,0-0.3h1.4C582.2,515.5,581.8,515.6,581.3,515.7z M669.9,441.5c-3.2,0-6,3.5-8,9.1
			c-0.9-0.7-1.8-1.1-2.8-1.1c-4.5,0-8.1,8.2-8.4,18.6c-2.4-0.8-4.9-1.2-7.6-1.2c-13,0-23.9,10.4-27,24.6c-2.7-1.8-5.8-2.9-9.2-2.9
			c-4.1,0-7.8,1.5-10.9,4.1c-0.1,0-0.1,0-0.2,0c-1.8-21.6-10.7-38-21.4-38c-4,0-7.7,2.3-10.9,6.2c-1.3-3-2.8-5.6-4.5-7.8h36.6
			c1.1-2.2,1.8-4.5,1.8-7c0-9.2-8.8-16.9-20.5-18.6h101.8c-1.7,4.9-3,10.9-3.6,17.5C673.7,442.8,671.8,441.5,669.9,441.5z
			 M704.8,477c-0.2-0.4-0.5-0.8-0.8-1.2h2.2C705.8,476.2,705.3,476.6,704.8,477z"/>
		<polygon class="st11" points="338.9,391.1 364.2,374.6 364.2,391 395.1,376.9 395.1,392.1 419.6,377.4 419.6,391.1 440,377.4 
			440,392.1 464.6,392.1 464.6,479.3 338.9,479.3 		"/>
		<polygon class="st12" points="803.8,310.6 825.9,291.9 825.9,310.5 852.8,294.5 852.8,311.7 874.3,295.1 874.3,310.6 892.1,295.1 
			892.1,311.7 913.6,311.7 913.6,410.3 803.8,410.3 		"/>
		<g>
			<polygon class="st12" points="447.1,286 447.1,483 504.6,483 504.6,286.5 478.5,277.7 			"/>
			<path class="st13" d="M504.6,282.9l-22.6-6.1l-3.5-0.1l-28,6.2l-3.5,0.8V483h3.5v-21.2l28-1v24.8h3.5v-24.8l22.6,1V483h2.9V284
				L504.6,282.9z M450.6,311.5l28-5.7v21.9l-28,5.2V311.5z M450.6,336.6l28-5.2v22.5l-28,4.3V336.6z M450.6,361.6l28-4.3v22.5
				l-28,3.4V361.6z M450.6,386.7l28-3.4v22.5l-28,2.4V386.7z M450.6,411.7l28-2.4v23l-28,1V411.7z M482,409.3l22.6,2.4v21.6l-22.6-1
				V409.3z M482,405.9v-22.5l22.6,3.3v21.6L482,405.9z M482,379.9v-22.5l22.6,4.2v21.6L482,379.9z M482,353.9v-22.4l22.6,5.2v21.5
				L482,353.9z M482,327.9V306l22.6,5.6V333L482,327.9z M504.6,286.5V308l-22.6-5.6v-21.9L504.6,286.5z M478.5,280.3v21.9l-28,5.7
				v-21.5L478.5,280.3z M450.6,458.4v-21.6l28-1v21.6L450.6,458.4z M482,457.4v-21.6l22.6,1v21.6L482,457.4z"/>
			<line class="st14" x1="450.6" y1="308" x2="478.5" y2="280.3"/>
			<line class="st14" x1="478.5" y1="302.3" x2="450.6" y2="286.5"/>
			<line class="st14" x1="478.5" y1="327.3" x2="450.6" y2="311.6"/>
			<line class="st14" x1="478.5" y1="352.6" x2="450.6" y2="336.8"/>
			<line class="st14" x1="478.5" y1="379.4" x2="450.6" y2="362.1"/>
			<line class="st14" x1="478.5" y1="405.5" x2="450.6" y2="387.1"/>
			<line class="st14" x1="478.5" y1="432.1" x2="450.6" y2="412.1"/>
			<line class="st14" x1="450.6" y1="333.2" x2="478.5" y2="305.6"/>
			<line class="st14" x1="450.6" y1="358.5" x2="478.5" y2="330.9"/>
			<line class="st14" x1="450.6" y1="383.8" x2="478.5" y2="356.1"/>
			<line class="st14" x1="450.6" y1="409" x2="478.5" y2="382.5"/>
			<line class="st14" x1="450.6" y1="434.3" x2="478.5" y2="408.8"/>
			<line class="st14" x1="450.6" y1="459.4" x2="478.5" y2="434.9"/>
			<polygon class="st15" points="479.9,276.8 480,482.3 482,482.3 482,276.9 			"/>
		</g>
		<g>
			<polygon class="st13" points="505.2,315.4 629.4,273 772.6,292.9 772.6,407.3 634.4,407.3 506.5,395 			"/>
			<polygon class="st11" points="629.4,272.6 629.4,407.3 772.6,407.3 772.6,292.9 			"/>
		</g>
		<g>
			<polygon class="st13" points="481.1,365.6 534.3,351.4 577.9,360.3 577.9,490.5 527.9,490.5 481.6,477.1 			"/>
			<polygon class="st11" points="534.3,351.4 536.6,488.2 577.9,490.5 577.9,359.5 			"/>
		</g>
		<g>
			<polygon class="st16" points="563.6,333.6 608.6,317.2 660.5,326.7 660.5,495 610.4,495 564.1,480.6 			"/>
			<polygon class="st11" points="608.6,316.5 608.6,495.6 660.5,495 660.5,325.7 			"/>
		</g>
		<g>
			<polygon class="st13" points="476.3,406.3 623.9,377.4 794.3,395.1 794.3,497.1 623.6,497.1 477.8,486.2 			"/>
			<polygon class="st11" points="623.9,377 623.9,497.1 794.3,497.1 794.3,395.1 			"/>
		</g>
		<polygon class="st11" points="477.3,409 625.9,380.4 625.3,383.7 477.3,412 		"/>
		<polygon class="st15" points="480,420.2 620.1,398.6 619.4,402 480,423.2 		"/>
		<polygon class="st4" points="842.1,366.1 923.2,320.4 911.3,320.7 831.7,364 		"/>
		<rect x="846.2" y="379.5" class="st4" width="96.6" height="117.7"/>
		<polygon class="st11" points="481.1,422.2 618.5,402 618.5,414.7 480.7,429 		"/>
		<polygon class="st17" points="483.5,427.1 483.5,423.3 502.8,420.7 502.8,425 		"/>
		<polygon class="st17" points="505.7,424.6 505.7,419.9 525,417.2 525,422.9 		"/>
		<polygon class="st17" points="527.9,422.7 527.9,416.7 547.2,414.1 547.2,420.7 		"/>
		<polygon class="st11" points="527.9,490.5 527.9,456.8 558.1,453.7 558.1,492.1 		"/>
		<polygon class="st17" points="530.3,489.9 530.3,459.6 556.1,456.1 556.1,491.6 		"/>
		<g>
			<g>
				<polygon points="807.1,344.3 799.5,344.3 799.5,226.6 805,226.6 				"/>
				<rect x="794.3" y="226.6" class="st6" width="5.4" height="117.6"/>
				<polygon class="st7" points="794.7,344.3 790.1,344.3 793,226.6 794.7,226.6 				"/>
				<rect x="794.7" y="226.6" class="st8" width="1.7" height="117.6"/>
				<rect x="791.2" y="224.9" width="14.8" height="1.7"/>
				<rect x="791.2" y="221.8" class="st8" width="14.8" height="3.1"/>
			</g>
			<rect x="792.6" y="242.5" class="st8" width="12.7" height="0.7"/>
			<rect x="792.6" y="256.9" class="st8" width="12.7" height="0.7"/>
			<rect x="792.6" y="271.4" class="st8" width="12.7" height="0.7"/>
			<rect x="792.6" y="285.9" class="st8" width="12.7" height="0.7"/>
		</g>
		<polygon class="st12" points="721,294.1 721,321.7 729.7,322.3 729.7,295.2 		"/>
		<polygon class="st12" points="739.1,296.5 739.1,323.6 747.7,324.1 747.7,297.6 		"/>
		<polygon class="st12" points="756.2,298.8 756.2,325.9 764.9,326.4 764.9,299.9 		"/>
		<polygon class="st4" points="905.2,307.4 897.4,329.7 909,321.2 917.8,319.5 924.6,321.3 924.6,308.7 		"/>
		<g>
			<polygon class="st4" points="905.2,278.2 926,284 926,308.7 905.2,307.4 			"/>
			<polygon class="st18" points="905.2,278.2 896.4,279.8 896.4,307.6 905.2,307.4 			"/>
			<polygon class="st7" points="900.2,280.3 897.4,280.7 897.4,306.5 900.2,306.3 			"/>
			<polygon class="st7" points="904.4,279.4 901.5,279.9 901.5,306.3 904.4,306.1 			"/>
		</g>
		<g>
			<polygon class="st4" points="903.8,349.7 938.2,349.8 938.2,379.2 903.8,379.5 			"/>
			<polygon class="st18" points="903.8,349.2 889.2,349.8 889.2,379.7 903.8,379.5 			"/>
		</g>
		<polygon class="st7" points="927.8,308.7 894.8,308.7 894.8,307.4 907.5,306.9 927.8,307.4 		"/>
		<polygon class="st7" points="900.2,308.7 893,329.7 898.8,326.4 905.2,307.4 		"/>
		<rect x="932.4" y="320.4" class="st4" width="2.8" height="28.9"/>
		<rect x="932.4" y="348.5" class="st4" width="2.8" height="28.9"/>
		<rect x="908.2" y="348.5" class="st4" width="2.8" height="28.9"/>
		<rect x="893.4" y="348.5" class="st4" width="2.8" height="28.9"/>
		<rect x="887.1" y="347.1" class="st4" width="53" height="2.8"/>
		<rect x="923.2" y="320.4" class="st4" width="2.8" height="28.9"/>
		<path class="st7" d="M940.1,319.5h-22.3c0,0-6-0.5-14.1,4.2s-76,42.6-76,42.6l1.3,1.3l76.3-42.1c0,0,6.1-4,12.5-4.3l22.2,0.3
			L940.1,319.5z"/>
		<polygon class="st19" points="759.7,417.2 759.7,340.9 794,325.5 794,419.5 		"/>
		<polygon class="st20" points="794,414.7 794,325.2 815.6,313.2 844.2,323.1 847.2,411.4 		"/>
		<polygon class="st19" points="750.1,342.1 768.9,329.7 815.7,310.8 848.3,321.9 848.3,324.4 815.8,314.2 794,328.3 759.7,340.9 		
			"/>
		<polygon class="st21" points="844.2,323.1 815.8,314.2 794,328.3 759.7,340.9 759.7,344.3 794.5,332.7 815.8,318.7 844.2,327.5 		
			"/>
		<polyline class="st20" points="759.7,362.9 794,354.4 794,357.4 759.7,366.1 759.7,362.9 		"/>
		<polyline class="st20" points="759.7,389 794,383.3 794,386.3 759.7,392.1 759.7,389 		"/>
		<polygon class="st22" points="942.7,437 851.6,410.3 790,445.3 790,503.2 902.5,503.2 902.5,456.8 		"/>
		<polygon class="st13" points="680,497.1 680,457 735.4,455.9 735.4,419 851.6,410.3 848.1,414.2 784.3,434 778.4,496.2 		"/>
		<g>
			<polygon class="st13" points="711.6,386.3 690.6,384.2 694.2,187 701.9,180.7 707.4,186 			"/>
			<polygon class="st21" points="711.6,386.3 701.9,385.2 701.9,180.7 707.4,184.9 			"/>
		</g>
		<polygon class="st23" points="563.6,359 566.8,361 567.3,362.7 570.4,363.3 573.7,365.3 574.4,367.3 578.7,368.4 581.5,370.1 
			582.2,372.1 586.4,373.2 588.9,374.7 589.4,376.7 593.3,377.5 595.1,378.6 596.1,380.8 600.9,382.2 563.6,389.1 		"/>
		<polygon class="st24" points="739.1,424.6 772.4,452.9 797.3,452.9 851.6,413.7 942.7,437 941.4,433.3 851.6,410.3 842.9,414.7 		
			"/>
		<rect x="771" y="452.9" class="st25" width="26.6" height="50.2"/>
		<polygon class="st22" points="772.6,503.2 772.4,452.9 739.1,424.6 739.1,501.2 		"/>
		<polygon class="st21" points="711.6,391 685.8,391 689.5,180.7 707.4,180.7 		"/>
		<polygon class="st21" points="711.6,416.3 685.8,416.3 690,178 707.4,178 		"/>
		<polygon class="st13" points="698.7,391.1 685.8,391.1 689.5,180.8 698.7,180.8 		"/>
		<polygon class="st26" points="297.6,444 280.6,444 285.5,271 297.6,271 		"/>
		<polygon class="st26" points="1833.8,525 1816.9,525 1821.7,352 1833.8,352 		"/>
		<polygon class="st26" points="1677.1,563.5 1660.2,563.5 1665,390.4 1677.1,390.4 		"/>
		<g>
			<polygon class="st12" points="1070.9,330.4 1070.9,463.6 1023.6,463.6 1023.6,330.9 1045,323.6 			"/>
			<path class="st13" d="M1023.6,327.9l18.5-5l2.9-0.1l23,5.1l2.9,0.7v134.9h-2.9v3.6l-23-0.8v-0.6h-2.9v0.6l-18.5,0.8v-3.6h-2.4
				V328.9L1023.6,327.9z M1068,351.4l-23-4.7v18.1l23,4.3V351.4z M1068,372l-23-4.3v18.5l23,3.5V372z M1068,392.6l-23-3.5v18.5
				l23,2.8V392.6z M1068,413.2l-23-2.8V429l23,2V413.2z M1068,433.9l-23-2v19l23,0.8V433.9z M1042.2,431.9l-18.5,2v17.8l18.5-0.8
				V431.9z M1042.2,429v-18.5l-18.5,2.7V431L1042.2,429z M1042.2,407.6v-18.5l-18.5,3.5v17.7L1042.2,407.6z M1042.2,386.2v-18.5
				l-18.5,4.2v17.7L1042.2,386.2z M1042.2,364.9v-18l-18.5,4.6v17.7L1042.2,364.9z M1023.6,330.9v17.7l18.5-4.6v-18L1023.6,330.9z
				 M1045,325.8v18l23,4.7v-17.7L1045,325.8z M1068,464.2v-9.7l-23-0.8v9.7L1068,464.2z M1042.2,463.4v-9.7l-18.5,0.8v9.7
				L1042.2,463.4z"/>
			<line class="st14" x1="1068" y1="348.5" x2="1045" y2="325.8"/>
			<line class="st14" x1="1045" y1="343.9" x2="1068" y2="330.9"/>
			<line class="st14" x1="1045" y1="364.4" x2="1068" y2="351.4"/>
			<line class="st14" x1="1045" y1="385.2" x2="1068" y2="372.2"/>
			<line class="st14" x1="1045" y1="407.2" x2="1068" y2="393"/>
			<line class="st14" x1="1045" y1="428.8" x2="1068" y2="413.5"/>
			<line class="st14" x1="1045" y1="450.6" x2="1068" y2="434.2"/>
			<line class="st14" x1="1068" y1="369.2" x2="1045" y2="346.5"/>
			<line class="st14" x1="1068" y1="390" x2="1045" y2="367.4"/>
			<line class="st14" x1="1068" y1="410.9" x2="1045" y2="388.1"/>
			<line class="st14" x1="1068" y1="431.6" x2="1045" y2="409.8"/>
			<line class="st14" x1="1068" y1="452.4" x2="1045" y2="431.4"/>
			<line class="st14" x1="1068" y1="465.1" x2="1045" y2="452.9"/>
			<polygon class="st15" points="1044,322.9 1043.8,462.9 1042.2,462.9 1042.2,322.9 			"/>
		</g>
		<g>
			<polygon class="st13" points="1497.2,360.4 1395.2,325.5 1277.5,341.9 1277.5,436.1 1391.1,436.1 1496.2,425.9 			"/>
			<polygon class="st11" points="1395.2,325.2 1395.2,436.1 1277.5,436.1 1277.5,341.9 			"/>
		</g>
		<g>
			<polygon class="st13" points="1517.1,401.7 1473.3,390.1 1437.5,397.4 1437.5,504.5 1478.6,504.5 1516.7,493.5 			"/>
			<polygon class="st11" points="1473.3,390.1 1471.5,502.6 1437.5,504.5 1437.5,396.7 			"/>
		</g>
		<g>
			<polygon class="st16" points="1345.5,292.8 1308.6,279.3 1266,287.2 1266,405.7 1307.1,405.7 1345.2,393.8 			"/>
			<polygon class="st11" points="1308.6,278.8 1308.6,421.1 1266,431.3 1266,286.3 			"/>
		</g>
		<g>
			<polygon class="st13" points="1521,435.2 1399.7,411.4 1259.7,426 1259.7,509.9 1399.9,509.9 1519.8,500.9 			"/>
			<polygon class="st11" points="1399.7,411.1 1399.7,509.9 1259.7,509.9 1259.7,426 			"/>
		</g>
		<polygon class="st11" points="1520.2,437.4 1398,413.9 1398.6,416.6 1520.2,439.9 		"/>
		<polygon class="st15" points="1518,446.6 1402.9,428.9 1403.4,431.6 1518,449.1 		"/>
		<polygon class="st17" points="1515.1,452.9 1515.1,449.8 1499.2,447.7 1499.2,451.2 		"/>
		<polygon class="st11" points="1515.1,452.9 1515.1,449.8 1499.2,447.7 1499.2,451.2 		"/>
		<polygon class="st17" points="1461.9,447.7 1461.9,443 1441.8,440.4 1441.8,445.9 		"/>
		<polygon class="st11" points="1461.9,447.7 1461.9,443 1441.8,440.4 1441.8,445.9 		"/>
		<polygon class="st17" points="1489.2,450.3 1489.2,446.3 1473.3,444.2 1473.3,448.8 		"/>
		<polygon class="st11" points="1489.2,450.3 1489.2,446.3 1473.3,444.2 1473.3,448.8 		"/>
		<polygon class="st27" points="1432.6,445.5 1432.6,439.2 1410.7,436.3 1410.7,443.5 		"/>
		<polygon class="st11" points="1478.6,504.5 1478.6,476.7 1453.8,474.2 1453.8,505.8 		"/>
		<polygon class="st17" points="1476.7,504 1476.7,479.1 1455.4,476.2 1455.4,505.4 		"/>
		<polygon class="st13" points="1353.6,509.9 1353.6,476.9 1308,476 1308,445.6 1212.6,438.5 1215.5,441.7 1267.8,457.9 
			1272.8,509.1 		"/>
		<g>
			<polygon class="st13" points="1327.6,418.7 1344.9,417 1341.9,254.4 1335.6,249.2 1331.1,253.5 			"/>
			<polygon class="st21" points="1327.6,418.7 1335.6,417.9 1335.6,249.2 1331.1,252.7 			"/>
		</g>
		<polygon class="st23" points="1449.2,396.3 1446.6,397.9 1446.3,399.3 1443.6,399.8 1441,401.4 1440.4,403.1 1436.9,404 
			1434.6,405.4 1434,407.1 1430.5,407.9 1428.5,409.2 1428,410.8 1424.9,411.5 1423.4,412.4 1422.6,414.2 1418.6,415.4 1449.2,421 
					"/>
		<polygon class="st21" points="1327.6,422.6 1348.8,422.6 1345.8,249.2 1331.1,249.2 		"/>
		<polygon class="st21" points="1327.6,443.4 1348.8,443.4 1346.2,281 1331.1,281 		"/>
		<polygon class="st13" points="1338.2,422.7 1348.8,422.7 1345.8,249.3 1338.2,249.3 		"/>
		<rect x="685.8" y="176.8" class="st21" width="25.8" height="4"/>
		<rect x="1324.7" y="247.2" class="st21" width="25.8" height="4"/>
		<polygon class="st28" points="885.3,521.1 934.4,496.9 961.2,512.7 976.8,519.1 982.4,530.7 924.2,534.2 		"/>
		<polygon class="st28" points="941.8,462.2 1006.4,437.4 1045.8,452.4 1068.8,458.6 1077.1,469.6 977.2,469.6 941.8,474.9 		"/>
		<polygon class="st28" points="1519.8,500.9 1874.6,459.8 1875.8,447.7 2059,479.6 2033.6,511.6 1833.8,525 1596.4,520.7 		"/>
		<polygon class="st28" points="799.9,509.6 841.3,495.7 863.8,504.8 876.9,508.5 881.6,515.2 832.6,517.2 		"/>
		<polygon class="st29" points="1191.3,381.3 1266,381.3 1266,408.7 		"/>
		<polygon class="st16" points="1191.3,381.3 1195.4,380.8 1266,406.8 1266,410.5 		"/>
		<polyline class="st10" points="1041.1,469.6 1096.5,477.6 1081.7,481.4 1189.2,487.7 1251.4,497 1244,506.3 1251.4,513.9 
			1437.7,515.1 1459.1,505.7 1259.7,509.9 1259.7,481.4 1124.7,479.3 1124.7,471.7 1077.1,469.6 		"/>
	</g>
	<g>
		<g>
			<g>
				<path class="st30" d="M397.4,538.2c0,0-0.5-10.3,6.2-15.3c3.3-2.4,10.8-3.8,10.8-3.8s0.4-2.6,0.7-4c0.2-0.9,7.8-3.5,7.8-4.2
					c0,0-5.6-5.2-4.8-10.1c0,0-1.4-4.4-0.7-6.4s-2.4-3.9-2-5.7c0.8-3.3,1.2-4.5,1.2-4.5s-1.7-7.9,1.4-10.9c3.1-3,11-10.3,17-7.8
					s9.4,2.5,12.8,8.1c3.4,5.5,2.7,11.2,1.8,12.3s0.3,1.6-0.3,6.4c-0.6,4.8-2.9,7.9-3.2,9.6c-0.4,2.3-1.7,5.5-1.7,5.5s7.4-0.1,8,1.4
					s4.1,2.7,6.2,3.7c2.1,1,1.8,2.4,1.8,2.4s11-1.6,15.2,7.2c4.2,8.8,1.2,163,1.2,163h-84L397.4,538.2z"/>
			</g>
			<g>
				<path class="st30" d="M522.7,515.3c0,0-0.4-8,4.8-11.9c2.5-1.9,8.4-3,8.4-3s0.3-2,0.6-3.1c0.2-0.7,6-2.7,6-3.3
					c0,0-4.4-4-3.7-7.8c0,0-1.1-3.4-0.5-4.9c0.5-1.5-1.9-3-1.6-4.4c0.6-2.6,0.9-3.5,0.9-3.5s-1.3-6.1,1.1-8.5c2.4-2.3,8.5-8,13.2-6
					s7.3,2,9.9,6.3c2.6,4.3,2.1,8.7,1.4,9.5s0.2,1.3-0.2,5c-0.4,3.7-2.3,6.1-2.5,7.4c-0.3,1.8-1.3,4.2-1.3,4.2s5.7,0,6.2,1.1
					c0.4,1.2,3.2,2.1,4.8,2.9c1.6,0.8,1.4,1.9,1.4,1.9s8.5-1.3,11.8,5.6c3.3,6.8-3.9,123.7-3.9,123.7l-57.3-4.3L522.7,515.3z"/>
			</g>
			<g>
				<path class="st31" d="M410.3,529.2c0,0,0.5-12-6.8-17.8c-3.6-2.8-11.9-4.4-11.9-4.4s-0.4-3-0.8-4.6c-0.2-1-8.5-4-8.6-4.9
					c0,0,6.2-6,5.2-11.8c0,0,1.5-5.1,0.8-7.4c-0.8-2.3,2.7-4.6,2.2-6.6c-0.8-3.9-1.3-5.2-1.3-5.2s1.9-9.2-1.5-12.7
					c-3.4-3.5-12-12-18.7-9c-6.7,3-10.3,2.9-14.1,9.4c-3.8,6.5-2.9,13-2,14.2s-0.3,1.9,0.3,7.4s3.2,9.2,3.6,11.1
					c0.5,2.6,1.8,6.3,1.8,6.3s-8.1-0.1-8.7,1.7c-0.6,1.7-4.5,3.1-6.8,4.3c-2.3,1.2-2,2.8-2,2.8s-12-1.9-16.7,8.3
					c-4.7,10.2-12.5,172.8-12.5,172.8L420,696L410.3,529.2z"/>
			</g>
			<g>
				<path class="st31" d="M345.5,487.8c0,0,0.7-12-8.9-17.8c-4.7-2.8-15.7-4.4-15.7-4.4s-0.5-3-1.1-4.6c-0.3-1-11.2-4-11.3-4.9
					c0,0,8.2-6,6.8-11.8c0,0,2-5.1,1.1-7.4c-1.1-2.3,3.6-4.6,2.9-6.6c-1.1-3.9-1.7-5.2-1.7-5.2s2.5-9.2-2-12.7
					c-4.5-3.5-15.8-12-24.6-9s-13.5,2.9-18.5,9.4s-3.8,13-2.6,14.2s-0.4,1.9,0.4,7.4c0.8,5.5,4.2,9.2,4.7,11.1
					c0.7,2.6,2.4,6.3,2.4,6.3s-10.7-0.1-11.4,1.7c-0.8,1.7-5.9,3.1-8.9,4.3c-3,1.2-2.6,2.8-2.6,2.8s-15.8-1.9-22,8.3
					c-6.2,10.2-16.4,172.8-16.4,172.8l142.3,12.9L345.5,487.8z"/>
			</g>
			<g>
				<path class="st2" d="M444.3,529.2c0,0-0.6-12,7.2-17.8c3.8-2.8,12.5-4.4,12.5-4.4s0.4-3,0.8-4.6c0.2-1,9-4,9-4.9
					c0,0-6.6-6-5.5-11.8c0,0-1.6-5.1-0.8-7.4c0.8-2.3-2.8-4.6-2.4-6.6c0.9-3.9,1.4-5.2,1.4-5.2s-2-9.2,1.6-12.7s12.7-12,19.7-9
					s10.9,2.9,14.8,9.4c3.9,6.5,3.1,13,2.1,14.2s0.3,1.9-0.3,7.4s-3.4,9.2-3.8,11.1c-0.5,2.6-1.9,6.3-1.9,6.3s8.6-0.1,9.2,1.7
					c0.7,1.7,4.7,3.1,7.2,4.3c2.4,1.2,2.1,2.8,2.1,2.8s12.7-1.9,17.6,8.3c5.2,10.5,4.5,174.7,4.5,174.7h-97.5L444.3,529.2z"/>
			</g>
		</g>
		<g>
			<g>
				<path class="st2" d="M769.9,584.6c0,0-0.6-13.5,8.1-20c4.3-3.2,14.1-5,14.1-5s0.5-3.4,0.9-5.2c0.3-1.1,10.1-4.5,10.2-5.5
					c0,0-7.4-6.8-6.2-13.2c0,0-1.8-5.8-0.9-8.3c0.9-2.5-3.2-5.1-2.7-7.4c1-4.3,1.6-5.9,1.6-5.9s-2.2-10.3,1.8-14.2
					s14.3-13.5,22.2-10.1c7.9,3.3,12.3,3.3,16.7,10.5c4.4,7.2,3.5,14.6,2.4,16c-1.1,1.4,0.4,2.1-0.3,8.4c-0.7,6.3-3.8,10.3-4.2,12.5
					c-0.6,3-2.2,7.1-2.2,7.1s9.7-0.1,10.4,1.9s5.3,3.5,8.1,4.9s2.4,3.1,2.4,3.1s14.3-2.1,19.8,9.4s4.7,47.3,4.7,47.3H767
					L769.9,584.6z"/>
			</g>
			<g>
				<path class="st30" d="M685.9,563.3c0,0-0.6-13.5,8.1-20c4.3-3.2,14.1-5,14.1-5s0.5-3.4,0.9-5.2c0.3-1.1,10.1-4.5,10.2-5.5
					c0,0-7.4-6.8-6.2-13.2c0,0-1.8-5.8-0.9-8.3c0.9-2.5-3.2-5.1-2.7-7.4c1-4.3,1.6-5.9,1.6-5.9s-2.2-10.3,1.8-14.2
					s14.3-13.5,22.2-10.1c7.9,3.3,12.3,3.3,16.7,10.5c4.4,7.2,3.5,14.6,2.4,16c-1.1,1.4,0.4,2.1-0.3,8.4c-0.7,6.3-3.8,10.3-4.2,12.5
					c-0.6,3-2.2,7.1-2.2,7.1s9.7-0.1,10.4,1.9s5.3,3.5,8.1,4.9c2.8,1.4,2.4,3.1,2.4,3.1s14.3-2.1,19.8,9.4s4.7,47.3,4.7,47.3H683.1
					L685.9,563.3z"/>
			</g>
			<g>
				<path class="st31" d="M616.3,559.3c0,0-0.5-11.7,7-17.3c3.7-2.8,12.2-4.3,12.2-4.3s0.4-2.9,0.8-4.5c0.2-1,8.8-3.9,8.8-4.8
					c0,0-6.4-5.9-5.4-11.5c0,0-1.6-5-0.8-7.2s-2.8-4.5-2.3-6.4c0.9-3.8,1.4-5.1,1.4-5.1s-1.9-9,1.6-12.4s12.4-11.7,19.3-8.8
					c6.8,2.9,10.7,2.9,14.5,9.1c3.8,6.3,3,12.7,2.1,13.9c-1,1.2,0.3,1.8-0.3,7.3c-0.6,5.4-3.3,8.9-3.7,10.8
					c-0.5,2.6-1.9,6.2-1.9,6.2s8.4-0.1,9,1.6c0.6,1.7,4.6,3,7,4.2c2.4,1.2,2.1,2.7,2.1,2.7s12.4-1.9,17.2,8.1
					c4.8,10,4.4,82.4,4.4,82.4l-95.4-1.3L616.3,559.3z"/>
			</g>
			<g>
				<path class="st2" d="M545.3,589.8c0,0-0.7-15.6,9.4-23.2c4.9-3.7,16.3-5.8,16.3-5.8s0.6-3.9,1.1-6c0.3-1.3,11.7-5.3,11.8-6.4
					c0,0-8.5-7.8-7.2-15.3c0,0-2.1-6.7-1.1-9.6s-3.7-6-3.1-8.6c1.2-5,1.8-6.8,1.8-6.8s-2.6-12,2.1-16.5s16.6-15.6,25.8-11.8
					c9.2,3.8,14.3,3.8,19.4,12.2c5.1,8.4,4,17,2.8,18.6s0.4,2.5-0.4,9.7s-4.4,12-4.9,14.5c-0.7,3.4-2.5,8.3-2.5,8.3
					s11.2-0.1,12.1,2.2c0.9,2.3,6.2,4.1,9.4,5.7c3.2,1.6,2.8,3.6,2.8,3.6s16.6-2.5,23,10.9c6.4,13.4,5.5,214.8,5.5,214.8l-127.2-1.6
					L545.3,589.8z"/>
			</g>
			<g>
				<path class="st2" d="M464,608.7c0,0,4.2-18,14.2-25.5c4.9-3.7,16.3-5.8,16.3-5.8s0.6-3.9,1.1-6c0.3-1.3,11.7-5.3,11.8-6.4
					c0,0-8.5-7.8-7.2-15.3c0,0-2.1-6.7-1.1-9.6s-3.7-6-3.1-8.6c1.2-5,1.8-6.8,1.8-6.8s-2.6-12,2.1-16.5s16.6-15.6,25.8-11.8
					c9.2,3.8,14.3,3.8,19.4,12.2s4,17,2.8,18.6s0.4,2.5-0.4,9.7s-4.4,12-4.9,14.5c-0.7,3.4-2.5,8.3-2.5,8.3s11.2-0.1,12.1,2.2
					c0.9,2.3,6.2,4.1,9.4,5.7c3.2,1.6,2.8,3.6,2.8,3.6s16.6-2.5,23,10.9c6.4,13.4,2.8,197.5,2.8,197.5l-136,3.1L464,608.7z"/>
			</g>
			<g>
				<path class="st2" d="M665.4,629.1c0,0-0.9-20.3,12.2-30.1c6.4-4.8,21.3-7.5,21.3-7.5s0.7-5.1,1.4-7.8c0.4-1.7,15.3-6.8,15.4-8.3
					c0,0-11.1-10.2-9.3-19.9c0,0-2.8-8.7-1.4-12.5c1.4-3.8-4.8-7.7-4-11.2c1.5-6.6,2.4-8.8,2.4-8.8s-3.3-15.6,2.8-21.5
					s21.6-20.3,33.5-15.3c11.9,5,18.5,5,25.2,15.9s5.3,22.1,3.6,24.1c-1.7,2.1,0.6,3.2-0.5,12.6c-1.1,9.4-5.8,15.5-6.4,18.8
					c-0.8,4.5-3.2,10.7-3.2,10.7s14.6-0.1,15.7,2.8c1.1,2.9,8,5.3,12.2,7.4c4.2,2.1,3.6,4.7,3.6,4.7s34,8.5,42.3,25.8
					c8.3,17.4,8,170.6,8,170.6H661.1L665.4,629.1z"/>
			</g>
			<g>
				<path class="st2" d="M478.8,644.3c0,0,1-20.3-13.4-30.1c-7-4.8-23.4-7.5-23.4-7.5s-0.8-5.1-1.5-7.8c-0.4-1.7-16.8-6.8-16.9-8.3
					c0,0,12.2-10.2,10.2-19.9c0,0,3.1-8.7,1.5-12.5c-1.5-3.8,5.3-7.7,4.4-11.2c-1.6-6.6-2.6-8.8-2.6-8.8s3.6-15.6-3.1-21.5
					s-23.7-20.3-36.7-15.3s-20.3,5-27.6,15.9s-5.8,22.1-3.9,24.1c1.9,2.1-0.7,3.2,0.5,12.6c1.2,9.4,6.4,15.5,7,18.8
					c0.9,4.5,3.5,10.7,3.5,10.7s-16-0.1-17.2,2.8c-1.2,2.9-8.8,5.3-13.4,7.4c-4.6,2.1-3.9,4.7-3.9,4.7s-37.3,8.5-46.4,25.8
					c-9.1,17.4-8.8,160.6-8.8,160.6h196.4L478.8,644.3z"/>
			</g>
			<g>
				<path class="st2" d="M385.7,654.3c0,0,1.2-24.4-16.1-36.2c-8.4-5.8-28.1-9-28.1-9s-0.9-6.1-1.8-9.4c-0.5-2-20.2-8.2-20.3-10
					c0,0,14.6-12.3,12.3-24c0,0,3.7-10.5,1.8-15c-1.8-4.6,6.3-9.3,5.3-13.5c-2-7.9-3.2-10.6-3.2-10.6s4.4-18.8-3.7-25.9
					c-8-7.1-28.5-24.4-44.2-18.4c-15.7,6-24.4,6-33.3,19.1c-8.8,13.1-7,26.6-4.8,29c2.2,2.5-0.8,3.9,0.7,15.2
					c1.5,11.3,7.7,18.7,8.4,22.6c1.1,5.4,4.2,12.9,4.2,12.9s-19.3-0.1-20.7,3.4c-1.5,3.5-10.6,6.4-16.1,8.9
					c-5.5,2.5-4.8,5.7-4.8,5.7s-44.9,10.2-55.8,31.1c-11,20.9-10.6,193.3-10.6,193.3h236.3L385.7,654.3z"/>
			</g>
			<g>
				<path class="st2" d="M242.2,566.6c0,0,1.3-23.5-17.4-34.9c-9.2-5.6-30.5-8.7-30.5-8.7s-1-5.9-2-9c-0.6-2-21.9-7.9-22-9.6
					c0,0,15.9-11.8,13.3-23c0,0,4-10.1,2-14.5c-2-4.4,6.9-8.9,5.7-13c-2.1-7.6-3.4-10.2-3.4-10.2s4.7-18.1-4-24.9
					c-8.7-6.8-30.9-23.5-47.9-17.7s-26.5,5.8-36,18.4c-9.6,12.6-7.6,25.6-5.1,27.9c2.4,2.4-0.9,3.7,0.7,14.6
					c1.6,10.9,8.3,17.9,9.2,21.8c1.1,5.2,4.6,12.4,4.6,12.4s-20.9-0.1-22.4,3.2c-1.6,3.4-11.4,6.1-17.4,8.6c-6,2.4-5.1,5.4-5.1,5.4
					s-48.6,9.8-60.5,29.9c-11.9,20.1-11.4,186-11.4,186h256.1L242.2,566.6z"/>
			</g>
			<g>
				<path class="st2" d="M831.9,609.1c0,0-0.6-14.6,8.1-21.6c4.3-3.4,14.1-5.4,14.1-5.4s0.5-3.6,0.9-5.6c0.3-1.2,10.1-4.9,10.2-5.9
					c0,0-7.4-7.3-6.2-14.3c0,0-1.8-6.2-0.9-9c0.9-2.7-3.2-5.5-2.7-8c1-4.7,1.6-6.3,1.6-6.3s-2.2-11.2,1.8-15.4s14.3-14.5,22.2-11
					c7.9,3.6,12.3,3.6,16.7,11.4c4.4,7.8,3.5,15.8,2.4,17.3s0.4,2.3-0.3,9s-3.8,11.1-4.2,13.5c-0.6,3.2-2.2,7.7-2.2,7.7
					s9.7-0.1,10.4,2s5.3,3.8,8.1,5.3s2.4,3.4,2.4,3.4s14.3-2.3,19.8,10.1c5.5,12.4,6.1,193.3,6.1,193.3H830.4L831.9,609.1z"/>
			</g>
		</g>
		<path class="st30" d="M661.3,469.8c-12.4-3.4-23.8,0.6-25.4,9c-0.2,0.8-0.2,1.7-0.2,2.5l-8.7,6.6c-2.1,1.6-1.4,5.5,1,5.9l10.1,1.8
			c1.6,0.3,3.1-1.2,3.1-3.2v-0.2c3.5,3.4,8.4,6.3,14.1,7.8c12.4,3.4,23.8-0.6,25.4-9C682.5,482.8,673.8,473.2,661.3,469.8z"/>
		<path class="st30" d="M365.6,436.9c12.3-3.4,23.6,0.6,25.2,9c0.2,0.8,0.2,1.7,0.2,2.5l8.6,6.6c2.1,1.6,1.4,5.5-1,5.9l-10.1,1.8
			c-1.6,0.3-3.1-1.2-3.1-3.2v-0.2c-3.5,3.4-8.4,6.3-14,7.8c-12.3,3.4-23.6-0.6-25.2-9C344.5,449.9,353.2,440.3,365.6,436.9z"/>
		<path class="st30" d="M131.4,369.2c29.5-8.1,56.6,1.4,60.4,21.6c0.5,1.9,0.5,4.1,0.5,6l20.6,15.8c5,3.8,3.4,13.2-2.4,14.1
			l-24.2,4.3c-3.8,0.7-7.4-2.9-7.4-7.7v-0.5c-8.4,8.1-20.1,15.1-33.6,18.7c-29.5,8.1-56.6-1.4-60.4-21.6
			C80.9,400.4,101.7,377.4,131.4,369.2z"/>
	</g>
	<g>
		<g>
			<g>
				<path class="st31" d="M1159.4,557.5c0,0-0.5-10.3,7-15.3c3.7-2.4,12.2-3.8,12.2-3.8s0.4-2.6,0.8-4c0.2-0.9,8.7-3.5,8.8-4.2
					c0,0-6.4-5.2-5.3-10.1c0,0-1.6-4.4-0.8-6.4c0.8-2-2.7-3.9-2.3-5.7c0.9-3.3,1.3-4.5,1.3-4.5s-1.9-7.9,1.6-10.9
					s12.3-10.3,19.1-7.8c6.8,2.5,10.6,2.5,14.4,8.1c3.8,5.5,3,11.2,2.1,12.3c-0.9,1,0.3,1.6-0.3,6.4s-3.3,7.9-3.6,9.6
					c-0.5,2.3-1.9,5.5-1.9,5.5s8.3-0.1,9,1.4c0.6,1.5,4.6,2.7,7,3.7s2.1,2.4,2.1,2.4s12.3-1.6,17.1,7.2c4.7,8.8,5.7,93.3,5.7,93.3
					h-94.6L1159.4,557.5z"/>
			</g>
			<g>
				<path class="st30" d="M1034.3,558.4c0,0-0.5-10.3,7-15.3c3.7-2.4,12.2-3.8,12.2-3.8s0.4-2.6,0.8-4c0.2-0.9,8.7-3.5,8.8-4.2
					c0,0-6.4-5.2-5.3-10.1c0,0-1.6-4.4-0.8-6.4c0.8-1.9-2.7-3.9-2.3-5.7c0.9-3.3,1.3-4.5,1.3-4.5s-1.9-7.9,1.6-10.9
					s12.3-10.3,19.1-7.8c6.8,2.5,10.6,2.5,14.4,8.1c3.8,5.5,3,11.2,2.1,12.3s0.3,1.6-0.3,6.4c-0.6,4.8-3.3,7.9-3.6,9.6
					c-0.5,2.3-1.9,5.5-1.9,5.5s8.3-0.1,9,1.4c0.6,1.5,4.6,2.7,7,3.7s2.1,2.4,2.1,2.4s12.3-1.6,17.1,7.2c4.7,8.8,2.2,137,2.2,137
					h-94.6L1034.3,558.4z"/>
			</g>
			<g>
				<path class="st31" d="M939.1,561.8c0,0-0.6-12,8.1-17.8c4.3-2.8,14.1-4.4,14.1-4.4s0.5-3,0.9-4.6c0.3-1,10.1-4,10.2-4.9
					c0,0-7.4-6-6.2-11.8c0,0-1.8-5.1-0.9-7.4c0.9-2.3-3.2-4.6-2.7-6.6c1-3.9,1.6-5.2,1.6-5.2s-2.2-9.2,1.8-12.7s14.3-12,22.2-9
					c7.9,2.9,12.3,2.9,16.7,9.4c4.4,6.4,3.5,13,2.4,14.2s0.4,1.9-0.3,7.4c-0.7,5.6-3.8,9.2-4.2,11.1c-0.6,2.6-2.2,6.3-2.2,6.3
					s9.7-0.1,10.4,1.7s5.3,3.1,8.1,4.3s2.4,2.8,2.4,2.8s14.3-1.9,19.8,8.3s14.9,140.2,14.9,140.2L927.6,696L939.1,561.8z"/>
			</g>
			<g>
				<path class="st2" d="M1080,561.8c0,0-0.6-12,8.1-17.8c4.3-2.8,14.1-4.4,14.1-4.4s0.5-3,0.9-4.6c0.3-1,10.1-4,10.2-4.9
					c0,0-7.4-6-6.2-11.8c0,0-1.8-5.1-0.9-7.4c0.9-2.3-3.2-4.6-2.7-6.6c1-3.9,1.6-5.2,1.6-5.2s-2.2-9.2,1.8-12.7s14.3-12,22.2-9
					c7.9,2.9,12.3,2.9,16.7,9.4c4.4,6.4,3.5,13,2.4,14.2s0.4,1.9-0.3,7.4c-0.7,5.6-3.8,9.2-4.2,11.1c-0.6,2.6-2.2,6.3-2.2,6.3
					s9.7-0.1,10.4,1.7c0.7,1.7,5.3,3.1,8.1,4.3c2.8,1.2,2.4,2.8,2.4,2.8s14.3-1.9,19.8,8.3s4.8,100.4,4.8,100.4L1079.8,701
					L1080,561.8z"/>
			</g>
		</g>
		<g>
			<g>
				<path class="st2" d="M1463.5,596.4c0,0-0.7-13.5,9.1-20c4.8-3.2,15.9-5,15.9-5s0.6-3.4,1.1-5.2c0.3-1.1,11.4-4.5,11.4-5.5
					c0,0-8.3-6.8-7-13.2c0,0-2.1-5.8-1-8.3s-3.6-5.1-3-7.4c1.1-4.3,1.8-5.9,1.8-5.9s-2.5-10.3,2.1-14.2c4.5-3.9,16.1-13.5,25-10.1
					c8.9,3.3,13.8,3.3,18.8,10.5s3.9,14.6,2.7,16s0.4,2.1-0.4,8.4s-4.3,10.3-4.8,12.5c-0.6,3-2.4,7.1-2.4,7.1s10.9-0.1,11.7,1.9
					c0.8,2,6,3.5,9.1,4.9s2.7,3.1,2.7,3.1s16.1-2.1,22.3,9.4c6.2,11.5,0.4,214.3,0.4,214.3h-123.4L1463.5,596.4z"/>
			</g>
			<g>
				<path class="st30" d="M1327.5,583.2c0,0-0.7-13.5,9.1-20c4.8-3.2,15.9-5,15.9-5s0.6-3.4,1.1-5.2c0.3-1.1,11.4-4.5,11.4-5.5
					c0,0-8.3-6.8-7-13.2c0,0-2.1-5.8-1-8.3c1-2.5-3.6-5.1-3-7.4c1.1-4.3,1.8-5.9,1.8-5.9s-2.5-10.3,2.1-14.2
					c4.5-3.9,16.1-13.5,25-10.1c8.9,3.3,13.8,3.3,18.8,10.5s3.9,14.6,2.7,16s0.4,2.1-0.4,8.4s-4.3,10.3-4.8,12.5
					c-0.6,3-2.4,7.1-2.4,7.1s10.9-0.1,11.7,1.9c0.8,2,6,3.5,9.1,4.9s2.7,3.1,2.7,3.1s16.1-2.1,22.3,9.4c6.2,11.5,9.3,72.5,9.3,72.5
					l-125.5-7.5L1327.5,583.2z"/>
			</g>
			<g>
				<path class="st31" d="M1273.6,591.8c0,0-0.6-11.7,7.9-17.3c4.2-2.8,13.7-4.3,13.7-4.3s0.5-2.9,0.9-4.5c0.3-1,9.9-3.9,9.9-4.8
					c0,0-7.2-5.9-6-11.5c0,0-1.8-5-0.9-7.2s-3.1-4.5-2.6-6.4c1-3.8,1.5-5.1,1.5-5.1s-2.1-9,1.8-12.4c3.9-3.4,14-11.7,21.7-8.8
					c7.7,2.9,12,2.9,16.3,9.1c4.3,6.3,3.4,12.7,2.3,13.9s0.4,1.8-0.3,7.3c-0.7,5.5-3.7,8.9-4.1,10.8c-0.5,2.6-2.1,6.2-2.1,6.2
					s9.4-0.1,10.1,1.6c0.7,1.7,5.2,3,7.9,4.2c2.7,1.2,2.3,2.7,2.3,2.7s14-1.9,19.3,8.1c5.4,10,1.3,116.1,1.3,116.1h-103.7
					L1273.6,591.8z"/>
			</g>
			<g>
				<path class="st2" d="M1193.7,622.4c0,0-0.8-15.6,10.5-23.2c5.6-3.7,18.4-5.8,18.4-5.8s0.6-3.9,1.2-6c0.4-1.3,13.2-5.3,13.3-6.4
					c0,0-9.6-7.8-8.1-15.3c0,0-2.4-6.7-1.2-9.6c1.2-2.9-4.2-6-3.5-8.6c1.3-5,2-6.8,2-6.8s-2.9-12,2.4-16.5s18.7-15.6,29-11.8
					c10.3,3.8,16,3.8,21.8,12.2c5.7,8.4,4.5,17,3.1,18.6s0.5,2.5-0.4,9.7s-5,12-5.5,14.5c-0.7,3.4-2.8,8.3-2.8,8.3
					s12.6-0.1,13.6,2.2s6.9,4.1,10.5,5.7s3.1,3.6,3.1,3.6s18.7-2.5,25.9,10.9c7.2,13.4,4.2,184.6,4.2,184.6l-143.1-1.6L1193.7,622.4
					z"/>
			</g>
			<g>
				<path class="st2" d="M1102.3,621.9c0,0,4.7-18,16-25.5c5.6-3.7,18.4-5.8,18.4-5.8s0.6-3.9,1.2-6c0.4-1.3,13.2-5.3,13.3-6.4
					c0,0-9.6-7.8-8.1-15.3c0,0-2.4-6.7-1.2-9.6c1.2-2.9-4.2-6-3.5-8.6c1.3-5,2-6.8,2-6.8s-2.9-12,2.4-16.5s18.7-15.6,29-11.8
					c10.3,3.8,16,3.8,21.8,12.2c5.8,8.4,4.5,17,3.1,18.6s0.5,2.5-0.4,9.7s-5,12-5.5,14.5c-0.7,3.4-2.8,8.3-2.8,8.3
					s12.6-0.1,13.6,2.2s6.9,4.1,10.5,5.7c3.6,1.6,3.1,3.6,3.1,3.6s18.7-2.5,25.9,10.9c7.2,13.4,6.2,175.1,6.2,175.1l-167.4,11.5
					L1102.3,621.9z"/>
			</g>
			<g>
				<path class="st2" d="M895.3,680.6c0,0,6.7-25.6,22.7-36.2c8-5.3,26.1-8.2,26.1-8.2s0.9-5.5,1.7-8.5c0.6-1.8,18.7-7.5,18.9-9.1
					c0,0-13.6-11.1-11.5-21.7c0,0-3.4-9.5-1.7-13.6c1.7-4.1-6-8.5-5-12.2c1.8-7.1,2.8-9.7,2.8-9.7s-4.1-17,3.4-23.4
					c7.5-6.4,26.6-22.2,41.2-16.8s22.7,5.4,31,17.3c8.2,11.9,6.4,24.1,4.4,26.4c-2,2.3,0.7,3.5-0.6,13.8c-1.3,10.2-7.1,17-7.8,20.6
					c-1,4.8-4,11.8-4,11.8s17.9-0.1,19.3,3.1c1.4,3.3,9.8,5.8,14.9,8.1c5.1,2.3,4.4,5.1,4.4,5.1s26.6-3.5,36.8,15.5
					c10.2,19,8.8,179.4,8.8,179.4l-237.7,16.3L895.3,680.6z"/>
			</g>
			<g>
				<path class="st2" d="M1328.8,661.6c0,0-1.1-20.3,13.7-30.1c7.2-4.8,23.9-7.5,23.9-7.5s0.8-5.1,1.6-7.8
					c0.5-1.7,17.2-6.8,17.3-8.3c0,0-12.5-10.2-10.5-19.9c0,0-3.1-8.7-1.6-12.5c1.6-3.8-5.4-7.7-4.5-11.2c1.7-6.6,2.6-8.8,2.6-8.8
					s-3.7-15.6,3.1-21.5c6.9-5.9,24.3-20.3,37.7-15.3c13.4,5,20.9,5,28.3,15.9s5.9,22.1,4,24.1c-1.9,2.1,0.6,3.2-0.6,12.6
					c-1.2,9.4-6.5,15.5-7.2,18.8c-1,4.5-3.7,10.7-3.7,10.7s16.4-0.1,17.6,2.8s9,5.3,13.7,7.4c4.7,2.1,4,4.7,4,4.7
					s38.2,8.5,47.6,25.8c9.3,17.4,9,139.6,9,139.6h-201L1328.8,661.6z"/>
			</g>
			<g>
				<path class="st2" d="M1516,641.6c0,0-0.7-14.6,9.1-21.6c4.8-3.4,15.9-5.4,15.9-5.4s0.6-3.6,1.1-5.6c0.3-1.2,11.4-4.9,11.4-5.9
					c0,0-8.3-7.3-7-14.3c0,0-2.1-6.2-1-9c1-2.7-3.6-5.5-3-8c1.1-4.7,1.8-6.3,1.8-6.3s-2.5-11.2,2.1-15.4c4.5-4.2,16.1-14.5,25-11
					s13.8,3.6,18.8,11.4c5,7.8,3.9,15.8,2.7,17.3c-1.2,1.5,0.4,2.3-0.4,9s-4.3,11.1-4.8,13.5c-0.6,3.2-2.4,7.7-2.4,7.7
					s10.9-0.1,11.7,2c0.8,2.1,6,3.8,9.1,5.3s2.7,3.4,2.7,3.4s16.1-2.3,22.3,10.1c6.2,12.4,5.3,60.4,5.3,60.4H1513L1516,641.6z"/>
			</g>
		</g>
		<path class="st30" d="M1387.3,485.7c-14-3.4-26.7,0.6-28.5,9c-0.2,0.8-0.2,1.7-0.2,2.5l-9.7,6.6c-2.4,1.6-1.6,5.5,1.2,5.9
			l11.4,1.8c1.8,0.3,3.5-1.2,3.5-3.2v-0.2c4,3.4,9.5,6.3,15.9,7.8c14,3.4,26.7-0.6,28.5-9C1411.2,498.7,1401.3,489.1,1387.3,485.7z"
			/>
		<path class="st30" d="M1521.7,492.4c-14-3.4-26.7,0.6-28.5,9c-0.2,0.8-0.2,1.7-0.2,2.5l-9.7,6.6c-2.4,1.6-1.6,5.5,1.2,5.9l21,1.1
			c1.8,0.3-6.1-0.5-6.1-2.4V515c4,3.4,9.5,6.3,15.9,7.8c14,3.4,26.7-0.6,28.5-9C1545.5,505.4,1535.6,495.8,1521.7,492.4z"/>
		<path class="st30" d="M1204.9,479.5c-9.7-2.5-18.5,0.5-19.7,6.6c-0.1,0.6-0.2,1.2-0.1,1.8l-6.7,4.8c-1.6,1.2-1.1,4,0.8,4.3
			l14.5,0.8c1.3,0.2-4.2-0.3-4.2-1.8v-0.1c2.7,2.5,6.6,4.6,11,5.7c9.7,2.5,18.5-0.5,19.7-6.6
			C1221.4,488.9,1214.6,481.9,1204.9,479.5z"/>
	</g>
	<g>
		<g>
			<g>
				<path class="st31" d="M1644,526.4c0,0-0.5-9,6-13.3c3.2-2.1,10.5-3.3,10.5-3.3s0.4-2.2,0.7-3.4c0.2-0.7,7.6-3,7.6-3.7
					c0,0-5.5-4.5-4.6-8.8c0,0-1.4-3.8-0.7-5.5c0.7-1.7-2.4-3.4-2-4.9c0.7-2.9,1.2-3.9,1.2-3.9s-1.6-6.9,1.4-9.5s10.7-9,16.6-6.7
					c5.9,2.2,9.2,2.2,12.5,7s2.6,9.7,1.8,10.6c-0.8,0.9,0.3,1.4-0.3,5.6c-0.5,4.2-2.9,6.9-3.2,8.3c-0.4,2-1.6,4.7-1.6,4.7
					s7.2,0,7.8,1.3c0.5,1.3,4,2.3,6,3.2c2.1,0.9,1.8,2.1,1.8,2.1s10.7-1.4,14.8,6.2c4.1,7.7,17,158.7,17,158.7h-82L1644,526.4z"/>
			</g>
			<g>
				<path class="st31" d="M1569.3,534.2c0,0-0.6-12,8.1-17.8c4.3-2.8,14.1-4.4,14.1-4.4s0.5-3,0.9-4.6c0.3-1,10.1-4,10.2-4.9
					c0,0-7.4-6-6.2-11.8c0,0-1.8-5.1-0.9-7.4c0.9-2.3-3.2-4.6-2.7-6.6c1-3.9,1.6-5.2,1.6-5.2s-2.2-9.2,1.8-12.7s14.3-12,22.2-9
					c7.9,2.9,12.3,2.9,16.7,9.4c4.4,6.4,3.5,13,2.4,14.2s0.4,1.9-0.3,7.4c-0.7,5.6-3.8,9.2-4.2,11.1c-0.6,2.6-2.2,6.3-2.2,6.3
					s9.7-0.1,10.4,1.7s5.3,3.1,8.1,4.3c2.8,1.2,2.4,2.8,2.4,2.8s14.3-1.9,19.8,8.3s14.9,149.3,14.9,149.3l-111.7,72.7L1569.3,534.2z
					"/>
			</g>
		</g>
	</g>
	<g>
		<g>
			<g>
				<path class="st31" d="M1762.1,522.1c0,0-0.5-9,6-13.3c3.2-2.1,10.5-3.3,10.5-3.3s0.4-2.2,0.7-3.4c0.2-0.7,7.6-3,7.6-3.7
					c0,0-5.5-4.5-4.6-8.8c0,0-1.4-3.8-0.7-5.5c0.7-1.7-2.4-3.4-2-4.9c0.7-2.9,1.2-3.9,1.2-3.9s-1.6-6.9,1.4-9.5s10.7-9,16.6-6.7
					c5.9,2.2,9.2,2.2,12.5,7s2.6,9.7,1.8,10.6c-0.8,0.9,0.3,1.4-0.3,5.6c-0.5,4.2-2.9,6.9-3.2,8.3c-0.4,2-1.6,4.7-1.6,4.7
					s7.2,0,7.8,1.3c0.5,1.3,4,2.3,6,3.2c2.1,0.9,1.8,2.1,1.8,2.1s10.7-1.4,14.8,6.2c4.1,7.7,17,158.7,17,158.7h-82L1762.1,522.1z"/>
			</g>
			<g>
				<path class="st31" d="M1660.2,529.8c0,0-0.6-12,8.1-17.8c4.3-2.8,14.1-4.4,14.1-4.4s0.5-3,0.9-4.6c0.3-1,10.1-4,10.2-4.9
					c0,0-7.4-6-6.2-11.8c0,0-1.8-5.1-0.9-7.4c0.9-2.3-3.2-4.6-2.7-6.6c1-3.9,1.6-5.2,1.6-5.2s-2.2-9.2,1.8-12.7s14.3-12,22.2-9
					c7.9,2.9,12.3,2.9,16.7,9.4c4.4,6.4,3.5,13,2.4,14.2s0.4,1.9-0.3,7.4c-0.7,5.6-3.8,9.2-4.2,11.1c-0.6,2.6-2.2,6.3-2.2,6.3
					s9.7-0.1,10.4,1.7s5.3,3.1,8.1,4.3c2.8,1.2,2.4,2.8,2.4,2.8s14.3-1.9,19.8,8.3c5.5,10.2,14.9,149.3,14.9,149.3l-111.7,72.7
					L1660.2,529.8z"/>
			</g>
		</g>
	</g>
	<g>
		<path class="st2" d="M1562.6,672.1c0,0-1.5-27.2,18.4-40.4c9.7-6.4,32-10.1,32-10.1s1.1-6.8,2.1-10.5c0.7-2.3,23.1-9.1,23.2-11.1
			c0,0-16.8-13.7-14.1-26.7c0,0-4.2-11.7-2.1-16.8c2.1-5.1-7.2-10.3-6-15c2.3-8.8,3.5-11.8,3.5-11.8s-5-20.9,4.2-28.8
			c9.3-7.9,32.6-27.2,50.5-20.5s28,6.7,37.9,21.3c9.9,14.6,7.9,29.6,5.4,32.3c-2.5,2.8,0.8,4.3-0.8,16.9
			c-1.6,12.6-8.7,20.8-9.7,25.2c-1.3,6-5,14.3-5,14.3s22-0.1,23.6,3.8c1.6,3.9,12.1,7.1,18.4,9.9c6.3,2.8,5.4,6.3,5.4,6.3
			s51.2,11.4,63.8,34.6c12.5,23.3,12.1,193.4,12.1,193.4h-269.5L1562.6,672.1z"/>
	</g>
	<g>
		<path class="st2" d="M1815,548.2c0,0-1.4-24,17.4-35.7c9.1-5.7,30.3-8.9,30.3-8.9s1-6,2-9.2c0.6-2,21.8-8.1,21.9-9.8
			c0,0-15.8-12.1-13.3-23.6c0,0-3.9-10.3-2-14.8c2-4.5-6.8-9.1-5.7-13.3c2.2-7.8,3.3-10.4,3.3-10.4s-4.7-18.5,3.9-25.5
			c8.7-7,30.8-24,47.8-18.1c17,5.9,26.5,5.9,35.9,18.8c9.4,12.9,7.5,26.2,5.1,28.6c-2.4,2.5,0.8,3.8-0.8,14.9
			c-1.5,11.1-8.2,18.4-9.1,22.3c-1.3,5.3-4.7,12.7-4.7,12.7s20.8-0.1,22.3,3.3c1.5,3.4,11.4,6.3,17.4,8.8c6,2.5,5.1,5.6,5.1,5.6
			s48.4,10.1,60.3,30.6c11.8,20.6,11.4,242,11.4,242h-254.8L1815,548.2z"/>
	</g>
</g>
<g id="Layer_8" class="st0">
	<g class="st32">
		<path class="st33" d="M1572.4,533.9c0,0,0.4-8.5-5.4-12.6c-2.9-2-9.4-3.1-9.4-3.1s-0.3-2.1-0.6-3.2c-0.2-0.7-11.6-3.9-11.6-4.5
			c0,0-1.2-4.9-1.5-3.9c0,0,1.9-2.7,2.1-4.5c0.2-1.7,2.5-5,2.2-6.4c-0.7-2.7,0.2-6.5,0.2-6.5s0.2-6-2.5-8.4
			c-2.7-2.5-9.6-8.5-14.8-6.4c-5.3,2.1-8.2,2.1-11.2,6.6c-2.9,4.5-2.3,9.2-1.6,10.1c0,0,0.6,3.1,1.1,7l2.6,4.9
			c-0.9-1.2,2.9,4,3.2,4.8c0,0,0.4,3.8-1.2,3.6c-1.4-0.2-3.2,0.7-5,1.5c-1.8,0.9-1.6,2-1.6,2s-15.1,3.5-18.7,10.8
			c-3.7,7.2-3.5,24.9-3.5,24.9l-16.6,1.4v10.6h10.1l0.6,145.4h95.3l-1.3-145.6h8.5v-11.8l-17.4-0.2L1572.4,533.9z"/>
	</g>
</g>
<g id="Layer_3">
</g>
<g id="Layer_5" class="st0">
	<g class="st32">
		<path class="st3" d="M401.5,346.2c51.4-30.1,107.5-27.5,149.9-38.5l12.3-30.3c0,0-21.2-18-24.2-22.1s-6.6-18.3-8.5-32.1
			c-1.8-12.8-3.8-20.6,2.7-23c0,0,4.9-0.8,11.8,2.8c0,0-4.9-12.2-5.5-28.2c-0.5-16,5.5-37.9,5.5-37.9s31.4-36.7,59.1-31.8
			c0,0,95-52,137.7,62l-6.4,9.3c0,0,3.2,18.9-4.1,32.6l4.5,8.5l-8.2,11.7c0,0,1.4,18.5-3.6,22.6c-5,4,4.1,40.3-5,59.2
			c-9.1,18.9-16.8,42.3-23.6,45.5s-9.1,6.8-9.1,6.8l2.7,12.5l42.2,12.6c3.9-5.9,9.2-10.1,16.2-11.3c34.5-5.6,125.5-40.3,125.5-40.3
			l37.3-20.9l4.5-16.9c0,0-10,3.2-22.7-5.6c-12.7-8.9-31.5-13.9-34.8-26.3c-3.4-12.4-26.1-11.6-21.5-27.7
			c4.5-16.1,0.9-76.5,71.8-123.3s91.8-31.4,91.8-31.4s38.2-13.7,71.8,25s11.8,11.3,33.6,38.7c21.8,27.4,30,54,30,54s4.5,15.3,0,21.8
			c-4.5,6.4,4.9,12.1,2,22.6s2.3,14.3,0.6,20.5c-1.7,6.1,6,20.6,0.3,25.5c-5.7,4.8,17.1,21.8,11.6,27.4s64.5-1.6,117.3,30.6
			c4.4,2.7,8.2,7.8,11.4,14.7c14.3-15.4,22.9-24.4,22.9-24.4s-30-1.6,0-33.8c0,0-6.1-3.2-6.9-5.8c-0.9-3,1.7-8.2,1.7-8.2
			c-1.5-2.3-8.1,6.1-8.9,2.6c-2-8.8,0-30.5,15.9-35.3c0,0-10-31.5-5.4-41.9c4.5-10.5-19.1-12.9-13.2-30.6s7.7-24.2,7.7-24.2
			s-10.9-42.7,9.1-58.8s70.9-55.6,110-41.9s60.9,13.7,82.7,43.5c21.8,29.8,17.3,60.4,11.8,66.1c-5.5,5.6,8.1,10.5,4.5,36.3
			s-2.7,36.3-12.7,38.7s-17.3,8.4-17.3,8.4l20,5.7l10.6,19.8c0,0,9.4,6.4,13.1,14.5c3.6,8.1,26.4,14.5,40,20.1s11.8,12.9,11.8,12.9
			s70.9-8.9,98.2,38.7c9.1,15.9,16.3,41.6,21.4,68.6V-43.9H338.8v496.1C343.8,421.1,358.5,371.4,401.5,346.2z"/>
		<polygon class="st3" points="338.8,747.7 338.8,748.2 411.9,748.2 		"/>
		<polygon class="st3" points="1280.2,748.1 1241.3,748.2 1695.4,748.2 1695.4,743.1 		"/>
	</g>
</g>
<g id="Layer_4" class="st0">
	<g class="st32">
		<path class="st34" d="M472.2,506.7l-16.5,130.5c0,0,20,42.6-22.8,189.7h1160.7l-1.9-175.6L1562.8,538l-89.6-65.7l-751.9,41.2
			l-195.1-10.6L472.2,506.7"/>
		<g>
			<g>
				<path class="st30" d="M1173,521c0.5-2.1,0.8-4.2,0.8-6.4c0-12.7-8.6-23.4-20.6-27.3c-6.6-18.3-27.3-31.7-52-31.7
					c-4.6,0-9,0.5-13.3,1.4c-13.2-17.4-37.9-29.2-66.3-29.2c-30.1,0-56.1,13.2-68.6,32.4c-5.7-2.9-12.1-4.6-18.9-4.6
					c-18.9,0-34.9,12.6-40.5,30.2c-0.7,0-1.4-0.1-2.2-0.1c-16.9,0-30.5,13-30.5,28.9c0,2.2,0.3,4.4,0.8,6.4H1173z"/>
				<path class="st31" d="M1140.9,552.3c0.4-1.4,0.6-3,0.6-4.5c0-8.8-6.9-16.3-16.5-19.1c-5.3-12.8-21.9-22.1-41.7-22.1
					c-3.7,0-7.2,0.4-10.6,1c-10.5-12.2-30.4-20.4-53.2-20.4c-24.1,0-45,9.2-55,22.6c-4.6-2-9.7-3.2-15.1-3.2
					c-15.1,0-28,8.8-32.5,21.1c-0.6,0-1.2-0.1-1.7-0.1c-13.5,0-24.5,9-24.5,20.2c0,1.5,0.2,3,0.6,4.5L1140.9,552.3L1140.9,552.3z"/>
				<path class="st31" d="M1299.9,552.3c0.4-2.3,0.6-4.7,0.6-7.2c0-14.1-6.9-26-16.5-30.4c-5.3-20.3-21.9-35.2-41.7-35.2
					c-3.7,0-7.2,0.6-10.6,1.5c-10.5-19.4-30.4-32.5-53.2-32.5c-24.1,0-45,14.7-55,36c-4.6-3.2-9.7-5.1-15.1-5.1
					c-15.1,0-28,14.1-32.5,33.5c-0.6-0.1-1.2-0.1-1.7-0.1c-13.5,0-24.5,14.4-24.5,32.2c0,2.5,0.2,4.9,0.6,7.2h249.6V552.3z"/>
				<path class="st31" d="M1425.2,599.2c0.4-2.3,0.6-4.7,0.6-7.2c0-14.1-6.9-26-16.5-30.4c-5.3-20.3-21.9-35.2-41.7-35.2
					c-3.7,0-7.2,0.6-10.6,1.5c-10.5-19.4-30.4-32.5-53.2-32.5c-24.1,0-45,14.7-55,36c-4.6-3.2-9.7-5.1-15.1-5.1
					c-15.1,0-28,14.1-32.5,33.5c-0.6-0.1-1.2-0.1-1.7-0.1c-13.5,0-24.5,14.4-24.5,32.2c0,2.5,0.2,4.9,0.6,7.2L1425.2,599.2
					L1425.2,599.2z"/>
				<path class="st31" d="M953.6,573c0.4-2.1,0.6-4.2,0.6-6.4c0-12.6-6.9-23.3-16.5-27.2c-5.3-18.2-21.9-31.5-41.7-31.5
					c-3.7,0-7.2,0.5-10.6,1.4c-10.5-17.3-30.4-29-53.2-29c-24.1,0-45,13.1-55,32.2c-4.6-2.9-9.7-4.5-15.1-4.5
					c-15.1,0-28,12.6-32.5,30c-0.6,0-1.2-0.1-1.7-0.1c-13.5,0-24.5,12.9-24.5,28.8c0,2.2,0.2,4.3,0.6,6.4L953.6,573L953.6,573z"/>
			</g>
			<g>
				<polygon class="st2" points="1147.5,546.5 1147.5,486.2 1091,536.2 1085.4,432.7 1091.2,431.8 1091.2,422.9 1089.4,422.8 
					1050.7,422.8 1049,422.9 1049,431.8 1054.9,432.7 1049.8,512.5 1011.4,546.5 1011.4,486.2 943.3,546.5 943.3,486.2 875.3,546.5 
					875.3,486.2 775.9,574.9 801.5,708.3 869.6,708.3 875.3,708.3 937.6,708.3 943.3,708.3 1005.7,708.3 1011.4,708.3 1073.8,708.3 
					1079.4,708.3 1141.8,708.3 1147.5,708.3 1215.6,708.3 1215.6,486.2 				"/>
				<ellipse class="st2" cx="1071.9" cy="417.6" rx="13.9" ry="10.2"/>
				<ellipse class="st2" cx="1132.6" cy="389.4" rx="10.6" ry="9.4"/>
				<ellipse class="st2" cx="1089.5" cy="401.2" rx="24.5" ry="16.2"/>
				<ellipse class="st2" cx="1114.1" cy="392.7" rx="18.6" ry="13.1"/>
			</g>
			<g>
				<g>
					<g>
						<path class="st31" d="M622.5,495.8c0,0-0.5-8.3,5.9-12.3c3.1-2,10.4-3.1,10.4-3.1s0.4-2.1,0.7-3.2c0.2-0.7,7.5-2.8,7.5-3.4
							c0,0-5.4-4.1-4.6-8.1c0,0-1.4-3.5-0.7-5.1c0.7-1.6-2.3-3.2-2-4.6c0.7-2.7,1.1-3.6,1.1-3.6s-1.6-6.4,1.4-8.7
							c3-2.4,10.5-8.3,16.4-6.2c5.8,2,9.1,2,12.3,6.5c3.2,4.4,2.6,9,1.8,9.8c-0.8,0.8,0.3,1.3-0.3,5.1c-0.5,3.8-2.8,6.3-3.1,7.7
							c-0.4,1.8-1.6,4.4-1.6,4.4s7.1,0,7.7,1.2c0.5,1.2,3.9,2.2,5.9,3s1.8,1.9,1.8,1.9s10.5-1.3,14.6,5.8c4.1,7.1,4.9,74.7,4.9,74.7
							h-80.8L622.5,495.8z"/>
					</g>
					<g>
						<path class="st30" d="M533.5,487.7c0,0-0.5-8.3,5.9-12.3c3.1-2,10.4-3.1,10.4-3.1s0.4-2.1,0.7-3.2c0.2-0.7,7.5-2.8,7.5-3.4
							c0,0-5.4-4.1-4.6-8.1c0,0-1.4-3.5-0.7-5.1s-2.3-3.2-2-4.6c0.7-2.7,1.1-3.6,1.1-3.6s-1.6-6.4,1.4-8.7c3-2.4,10.5-8.3,16.4-6.2
							c5.8,2,9.1,2,12.3,6.5c3.2,4.4,2.6,9,1.8,9.8s0.3,1.3-0.3,5.1c-0.5,3.8-2.8,6.3-3.1,7.7c-0.4,1.8-1.6,4.4-1.6,4.4
							s7.1,0,7.7,1.2c0.5,1.2,3.9,2.2,5.9,3s1.8,1.9,1.8,1.9s10.5-1.3,14.6,5.8c4.1,7.1,3.5,29,3.5,29h-80.8L533.5,487.7z"/>
					</g>
					<g>
						<path class="st30" d="M600.8,488.1c0,0-0.4-6.4,4.6-9.5c2.4-1.5,8-2.4,8-2.4s0.3-1.6,0.5-2.5c0.2-0.5,5.8-2.2,5.8-2.6
							c0,0-4.2-3.2-3.5-6.3c0,0-1-2.7-0.5-3.9c0.5-1.2-1.8-2.4-1.5-3.5c0.6-2.1,0.9-2.8,0.9-2.8s-1.3-4.9,1-6.8s8.2-6.4,12.7-4.8
							s7,1.6,9.5,5s2,7,1.4,7.6c-0.6,0.6,0.2,1-0.2,4s-2.2,4.9-2.4,5.9c-0.3,1.4-1.2,3.4-1.2,3.4s5.5,0,5.9,0.9
							c0.4,0.9,3,1.7,4.6,2.3c1.6,0.6,1.4,1.5,1.4,1.5s8.2-1,11.3,4.5c3.1,5.5,0.6,70.9,0.6,70.9l-55.1-3.5L600.8,488.1z"/>
					</g>
					<g>
						<path class="st31" d="M498.1,493c0,0-0.4-7.2,5.2-10.6c2.7-1.7,9-2.7,9-2.7s0.3-1.8,0.6-2.7c0.2-0.6,6.5-2.4,6.5-2.9
							c0,0-4.7-3.6-4-7c0,0-1.2-3.1-0.6-4.4c0.6-1.4-2-2.7-1.7-3.9c0.6-2.3,1-3.1,1-3.1s-1.4-5.5,1.2-7.6c2.6-2.1,9.1-7.2,14.2-5.4
							c5,1.8,7.9,1.8,10.7,5.6s2.2,7.8,1.5,8.5s0.2,1.1-0.2,4.5c-0.5,3.3-2.4,5.5-2.7,6.6c-0.4,1.6-1.4,3.8-1.4,3.8s6.2,0,6.6,1
							c0.4,1,3.4,1.9,5.2,2.6c1.8,0.7,1.5,1.7,1.5,1.7s9.1-1.1,12.7,5s3,71.8,3,71.8h-70.1L498.1,493z"/>
					</g>
					<g>
						<path class="st31" d="M434.3,499.2c0,0-0.5-9.6,6.9-14.2c3.6-2.3,12-3.6,12-3.6s0.4-2.4,0.8-3.7c0.2-0.8,8.6-3.2,8.7-3.9
							c0,0-6.3-4.8-5.3-9.4c0,0-1.6-4.1-0.8-5.9c0.8-1.8-2.7-3.7-2.3-5.3c0.8-3.1,1.3-4.2,1.3-4.2s-1.9-7.4,1.6-10.1
							s12.2-9.6,19-7.2c6.7,2.4,10.5,2.4,14.3,7.5c3.8,5.1,3,10.4,2,11.4c-0.9,1,0.3,1.5-0.3,6c-0.6,4.4-3.3,7.3-3.6,8.9
							c-0.5,2.1-1.8,5.1-1.8,5.1s8.3,0,8.9,1.3c0.6,1.4,4.5,2.5,6.9,3.5s2,2.2,2,2.2s12.2-1.5,16.9,6.7s12.7,81,12.7,81l-109.7,10.1
							L434.3,499.2z"/>
					</g>
					<g>
						<path class="st2" d="M554.7,499.2c0,0-0.5-9.6,6.9-14.2c3.6-2.3,12-3.6,12-3.6s0.4-2.4,0.8-3.7c0.2-0.8,8.6-3.2,8.7-3.9
							c0,0-6.3-4.8-5.3-9.4c0,0-1.6-4.1-0.8-5.9s-2.7-3.7-2.3-5.3c0.8-3.1,1.3-4.2,1.3-4.2s-1.9-7.4,1.6-10.1s12.2-9.6,19-7.2
							c6.7,2.4,10.5,2.4,14.3,7.5s3,10.4,2,11.4c-0.9,1,0.3,1.5-0.3,6c-0.6,4.4-3.3,7.3-3.6,8.9c-0.5,2.1-1.8,5.1-1.8,5.1
							s8.3,0,8.9,1.3c0.6,1.3,4.5,2.5,6.9,3.5c2.4,1,2,2.2,2,2.2s12.2-1.5,16.9,6.7c4.7,8.2,4.1,80.4,4.1,80.4h-93.7L554.7,499.2z"
							/>
					</g>
				</g>
				<g>
					<g>
						<path class="st2" d="M651.9,565c0,0-0.6-10.8,7.8-16c4.1-2.6,13.5-4,13.5-4s0.5-2.7,0.9-4.1c0.3-0.9,9.7-3.6,9.8-4.4
							c0,0-7.1-5.4-6-10.6c0,0-1.8-4.6-0.9-6.6c0.9-2-3.1-4.1-2.6-5.9c1-3.5,1.5-4.7,1.5-4.7s-2.1-8.3,1.8-11.4
							c3.9-3.1,13.8-10.8,21.3-8.1s11.8,2.7,16,8.4c4.2,5.8,3.4,11.7,2.3,12.8c-1.1,1.1,0.4,1.7-0.3,6.7c-0.7,5-3.7,8.3-4.1,10
							c-0.5,2.4-2.1,5.7-2.1,5.7s9.3-0.1,10,1.5s5.1,2.8,7.8,3.9c2.6,1.1,2.3,2.5,2.3,2.5s13.8-1.7,19,7.5
							c5.3,9.2,4.6,37.9,4.6,37.9H649.2L651.9,565z"/>
					</g>
					<g>
						<path class="st30" d="M535.7,554.4c0,0-0.6-10.8,7.8-16c4.1-2.6,13.5-4,13.5-4s0.5-2.7,0.9-4.1c0.3-0.9,9.7-3.6,9.8-4.4
							c0,0-7.1-5.4-6-10.6c0,0-1.8-4.6-0.9-6.6c0.9-2-3.1-4.1-2.6-5.9c1-3.5,1.5-4.7,1.5-4.7s-2.1-8.3,1.8-11.4
							c3.9-3.1,13.8-10.8,21.3-8.1s11.8,2.7,16,8.4c4.2,5.8,3.4,11.7,2.3,12.8c-1.1,1.1,0.4,1.7-0.3,6.7c-0.7,5-3.7,8.3-4.1,10
							c-0.5,2.4-2.1,5.7-2.1,5.7s9.3-0.1,10,1.5s5.1,2.8,7.8,3.9c2.6,1.1,2.3,2.5,2.3,2.5s13.8-1.7,19,7.5
							c5.3,9.2,4.6,37.9,4.6,37.9H533L535.7,554.4z"/>
					</g>
					<g>
						<path class="st30" d="M623.6,554.9c0,0-0.5-8.4,6-12.4c3.2-2,10.5-3.1,10.5-3.1s0.4-2.1,0.7-3.2c0.2-0.7,7.5-2.8,7.6-3.4
							c0,0-5.5-4.2-4.6-8.2c0,0-1.4-3.6-0.7-5.1c0.7-1.6-2.4-3.2-2-4.6c0.7-2.7,1.2-3.6,1.2-3.6s-1.6-6.4,1.4-8.8s10.6-8.3,16.5-6.3
							c5.9,2.1,9.1,2.1,12.4,6.5c3.3,4.5,2.6,9.1,1.8,9.9s0.3,1.3-0.3,5.2c-0.5,3.9-2.8,6.4-3.1,7.7c-0.4,1.8-1.6,4.4-1.6,4.4
							s7.2,0,7.7,1.2s4,2.2,6,3s1.8,1.9,1.8,1.9s10.6-1.3,14.7,5.8c4.1,7.1,7.6,70.9,7.6,70.9l-85.7-41.6L623.6,554.9z"/>
					</g>
					<g>
						<path class="st31" d="M489.6,561.3c0,0-0.5-9.4,6.7-13.9c3.6-2.2,11.7-3.5,11.7-3.5s0.4-2.3,0.8-3.6c0.2-0.8,8.4-3.1,8.5-3.8
							c0,0-6.1-4.7-5.2-9.2c0,0-1.5-4-0.8-5.8c0.8-1.8-2.7-3.6-2.2-5.2c0.8-3,1.3-4.1,1.3-4.1s-1.8-7.2,1.5-9.9
							c3.4-2.7,11.9-9.4,18.5-7c6.6,2.3,10.2,2.3,13.9,7.3c3.7,5,2.9,10.2,2,11.1c-0.9,0.9,0.3,1.5-0.3,5.8
							c-0.6,4.3-3.2,7.2-3.5,8.7c-0.5,2.1-1.8,4.9-1.8,4.9s8.1,0,8.7,1.3c0.6,1.4,4.4,2.4,6.7,3.4c2.3,1,2,2.2,2,2.2
							s11.9-1.5,16.5,6.5c4.6,8,4.2,66,4.2,66l-91.5-33L489.6,561.3z"/>
					</g>
					<g>
						<path class="st2" d="M421.4,585.8c0,0-0.7-12.5,9-18.6c4.8-3,15.7-4.6,15.7-4.6s0.5-3.1,1-4.8c0.3-1,11.3-4.2,11.3-5.1
							c0,0-8.2-6.3-6.9-12.3c0,0-2-5.3-1-7.7s-3.5-4.8-3-6.9c1.1-4,1.7-5.4,1.7-5.4s-2.5-9.6,2-13.2s16-12.5,24.7-9.4
							c8.8,3.1,13.7,3.1,18.6,9.8c4.9,6.7,3.9,13.6,2.7,14.9c-1.2,1.3,0.4,2-0.4,7.8s-4.3,9.6-4.7,11.6c-0.6,2.8-2.4,6.6-2.4,6.6
							s10.8-0.1,11.6,1.8c0.8,1.9,5.9,3.3,9,4.5c3.1,1.3,2.7,2.9,2.7,2.9s16-2,22.1,8.7c6.1,10.7,5.3,60.2,5.3,60.2l-122.1-1.4
							L421.4,585.8z"/>
					</g>
					<g>
						<path class="st2" d="M343.3,600.9c0,0,4-14.4,13.7-20.5c4.8-3,15.7-4.6,15.7-4.6s0.5-3.1,1-4.8c0.3-1,11.3-4.2,11.3-5.1
							c0,0-8.2-6.3-6.9-12.3c0,0-2-5.3-1-7.7s-3.5-4.8-3-6.9c1.1-4,1.7-5.4,1.7-5.4s-2.5-9.6,2-13.2c4.5-3.6,16-12.5,24.7-9.4
							c8.8,3.1,13.7,3.1,18.6,9.8c4.9,6.7,3.9,13.6,2.7,14.9c-1.2,1.3,0.4,2-0.4,7.8c-0.8,5.8-4.3,9.6-4.7,11.6
							c-0.6,2.8-2.4,6.6-2.4,6.6s10.8-0.1,11.6,1.8c0.8,1.8,5.9,3.3,9,4.5c3.1,1.3,2.7,2.9,2.7,2.9s16-2,22.1,8.7s5.3,60.2,5.3,60.2
							l-130.6-21.7L343.3,600.9z"/>
					</g>
					<g>
						<path class="st2" d="M536.8,617.2c0,0-0.9-16.3,11.7-24.1c6.2-3.9,20.4-6,20.4-6s0.7-4.1,1.4-6.2c0.4-1.4,14.7-5.5,14.8-6.6
							c0,0-10.7-8.2-9-16c0,0-2.7-7-1.3-10c1.3-3.1-4.6-6.2-3.9-9c1.4-5.3,2.3-7.1,2.3-7.1s-3.2-12.5,2.7-17.2
							c5.9-4.7,20.8-16.3,32.2-12.3c11.4,4,17.8,4,24.2,12.7c6.4,8.7,5.1,17.7,3.5,19.3c-1.6,1.6,0.6,2.6-0.5,10.1
							c-1.1,7.5-5.5,12.5-6.1,15.1c-0.8,3.6-3.1,8.6-3.1,8.6s14-0.1,15.1,2.3c1.1,2.4,7.7,4.2,11.7,5.9s3.5,3.8,3.5,3.8
							s32.7,6.8,40.7,20.7s7.7,47.7,7.7,47.7H532.7L536.8,617.2z"/>
					</g>
					<g>
						<path class="st2" d="M696.8,601.2c0,0-0.6-11.7,7.8-17.3c4.1-2.8,13.5-4.3,13.5-4.3s0.5-2.9,0.9-4.5c0.3-1,9.7-3.9,9.8-4.8
							c0,0-7.1-5.8-6-11.4c0,0-1.8-5-0.9-7.2c0.9-2.2-3.1-4.4-2.6-6.4c1-3.8,1.5-5.1,1.5-5.1s-2.1-8.9,1.8-12.3
							c3.9-3.4,13.8-11.6,21.3-8.8c7.6,2.9,11.8,2.9,16,9.1c4.2,6.2,3.4,12.7,2.3,13.8c-1.1,1.2,0.4,1.8-0.3,7.2s-3.7,8.9-4.1,10.8
							c-0.5,2.6-2.1,6.2-2.1,6.2s9.3-0.1,10,1.6s5.1,3,7.8,4.2c2.6,1.2,2.3,2.7,2.3,2.7s13.8-1.9,19,8.1c5.3,10,4.6,48.4,4.6,48.4
							H694.1L696.8,601.2z"/>
					</g>
				</g>
			</g>
			<g>
				<g>
					<g>
						<path class="st31" d="M1501.7,536.2c0,0-0.5-8.3,5.9-12.3c3.1-2,10.4-3.1,10.4-3.1s0.4-2.1,0.7-3.2c0.2-0.7,7.5-2.8,7.5-3.4
							c0,0-5.4-4.1-4.6-8.1c0,0-1.4-3.5-0.7-5.1s-2.3-3.2-2-4.6c0.7-2.7,1.1-3.6,1.1-3.6s-1.6-6.4,1.4-8.7c3-2.4,10.5-8.3,16.4-6.2
							c5.8,2,9.1,2,12.3,6.5c3.2,4.4,2.6,9,1.8,9.8s0.3,1.3-0.3,5.1c-0.5,3.8-2.8,6.3-3.1,7.7c-0.4,1.8-1.6,4.4-1.6,4.4
							s7.1,0,7.7,1.2c0.5,1.2,3.9,2.2,5.9,3s1.8,1.9,1.8,1.9s10.5-1.3,14.6,5.8s4.9,74.7,4.9,74.7H1501L1501.7,536.2z"/>
					</g>
					<g>
						<path class="st30" d="M1412.6,528.1c0,0-0.5-8.3,5.9-12.3c3.1-2,10.4-3.1,10.4-3.1s0.4-2.1,0.7-3.2c0.2-0.7,7.5-2.8,7.5-3.4
							c0,0-5.4-4.1-4.6-8.1c0,0-1.4-3.5-0.7-5.1s-2.3-3.2-2-4.6c0.7-2.7,1.1-3.6,1.1-3.6s-1.6-6.4,1.4-8.7c3-2.4,10.5-8.3,16.4-6.2
							c5.8,2,9.1,2,12.3,6.5c3.2,4.4,2.6,9,1.8,9.8c-0.8,0.8,0.3,1.3-0.3,5.1c-0.5,3.8-2.8,6.3-3.1,7.7c-0.4,1.8-1.6,4.4-1.6,4.4
							s7.1,0,7.7,1.2c0.5,1.2,3.9,2.2,5.9,3s1.8,1.9,1.8,1.9s10.5-1.3,14.6,5.8s3.5,29,3.5,29h-80.8L1412.6,528.1z"/>
					</g>
					<g>
						<path class="st30" d="M1480,528.5c0,0-0.4-6.4,4.6-9.5c2.4-1.5,8-2.4,8-2.4s0.3-1.6,0.5-2.5c0.2-0.5,5.8-2.2,5.8-2.6
							c0,0-4.2-3.2-3.5-6.3c0,0-1-2.7-0.5-3.9c0.5-1.2-1.8-2.4-1.5-3.5c0.6-2.1,0.9-2.8,0.9-2.8s-1.3-4.9,1-6.8s8.2-6.4,12.7-4.8
							s7,1.6,9.5,5s2,7,1.4,7.6s0.2,1-0.2,4c-0.4,3-2.2,4.9-2.4,5.9c-0.3,1.4-1.2,3.4-1.2,3.4s5.5,0,5.9,0.9s3,1.7,4.6,2.3
							s1.4,1.5,1.4,1.5s8.2-1,11.3,4.5c3.1,5.5,0.6,70.9,0.6,70.9l-55.1-3.5L1480,528.5z"/>
					</g>
					<g>
						<path class="st31" d="M1377.3,533.4c0,0-0.4-7.2,5.2-10.6c2.7-1.7,9-2.7,9-2.7s0.3-1.8,0.6-2.7c0.2-0.6,6.5-2.4,6.5-2.9
							c0,0-4.7-3.6-4-7c0,0-1.2-3.1-0.6-4.4s-2-2.7-1.7-3.9c0.6-2.3,1-3.1,1-3.1s-1.4-5.5,1.2-7.6s9.1-7.2,14.2-5.4
							c5,1.8,7.9,1.8,10.7,5.6s2.2,7.8,1.5,8.5s0.2,1.1-0.2,4.5c-0.5,3.3-2.4,5.5-2.7,6.6c-0.4,1.6-1.4,3.8-1.4,3.8s6.2,0,6.6,1
							c0.5,1,3.4,1.9,5.2,2.6s1.5,1.7,1.5,1.7s9.1-1.1,12.7,5c3.5,6.1,3,71.8,3,71.8h-70.1L1377.3,533.4z"/>
					</g>
					<g>
						<path class="st31" d="M1313.5,539.6c0,0-0.5-9.6,6.9-14.2c3.6-2.3,12-3.6,12-3.6s0.4-2.4,0.8-3.7c0.2-0.8,8.6-3.2,8.7-3.9
							c0,0-6.3-4.8-5.3-9.4c0,0-1.6-4.1-0.8-5.9c0.8-1.8-2.7-3.7-2.3-5.3c0.8-3.1,1.3-4.2,1.3-4.2s-1.9-7.4,1.6-10.1
							s12.2-9.6,19-7.2c6.7,2.4,10.5,2.4,14.3,7.5c3.8,5.1,3,10.4,2,11.4s0.3,1.5-0.3,6c-0.6,4.4-3.3,7.3-3.6,8.9
							c-0.5,2.1-1.8,5.1-1.8,5.1s8.3,0,8.9,1.3c0.6,1.4,4.5,2.5,6.9,3.5s2,2.2,2,2.2s12.2-1.5,16.9,6.7c4.7,8.2,12.7,81,12.7,81
							l-109.8,10.2L1313.5,539.6z"/>
					</g>
					<g>
						<path class="st2" d="M1433.9,539.6c0,0-0.5-9.6,6.9-14.2c3.6-2.3,12-3.6,12-3.6s0.4-2.4,0.8-3.7c0.2-0.8,8.6-3.2,8.7-3.9
							c0,0-6.3-4.8-5.3-9.4c0,0-1.6-4.1-0.8-5.9c0.8-1.8-2.7-3.7-2.3-5.3c0.8-3.1,1.3-4.2,1.3-4.2s-1.9-7.4,1.6-10.1
							c3.4-2.8,12.2-9.6,19-7.2c6.7,2.4,10.5,2.4,14.3,7.5s3,10.4,2,11.4c-0.9,1,0.3,1.5-0.3,6s-3.3,7.3-3.6,8.9
							c-0.5,2.1-1.8,5.1-1.8,5.1s8.3,0,8.9,1.3c0.6,1.4,4.5,2.5,6.9,3.5s2,2.2,2,2.2s12.2-1.5,16.9,6.7c4.7,8.2,4.1,80.4,4.1,80.4
							h-93.7L1433.9,539.6z"/>
					</g>
				</g>
				<g>
					<g>
						<path class="st2" d="M1554.1,570.4c0,0-0.6-10.8,7.8-16c4.1-2.6,13.5-4,13.5-4s0.5-2.7,0.9-4.1c0.3-0.9,9.7-3.6,9.8-4.4
							c0,0-7.1-5.4-6-10.6c0,0-1.8-4.6-0.9-6.6s-3.1-4.1-2.6-5.9c1-3.5,1.5-4.7,1.5-4.7s-2.1-8.3,1.8-11.4s13.8-10.8,21.3-8.1
							c7.6,2.7,11.8,2.7,16,8.4s3.4,11.7,2.3,12.8c-1.1,1.1,0.4,1.7-0.3,6.7s-3.7,8.3-4.1,10c-0.5,2.4-2.1,5.7-2.1,5.7
							s9.3-0.1,10,1.5s5.1,2.8,7.8,3.9c2.6,1.1,2.3,2.5,2.3,2.5s13.8-1.7,19,7.5c5.3,9.2,4.6,37.9,4.6,37.9h-105.4L1554.1,570.4z"/>
					</g>
					<g>
						<path class="st30" d="M1437.9,559.8c0,0-0.6-10.8,7.8-16c4.1-2.6,13.5-4,13.5-4s0.5-2.7,0.9-4.1c0.3-0.9,9.7-3.6,9.8-4.4
							c0,0-7.1-5.4-6-10.6c0,0-1.8-4.6-0.9-6.6s-3.1-4.1-2.6-5.9c1-3.5,1.5-4.7,1.5-4.7s-2.1-8.3,1.8-11.4s13.8-10.8,21.3-8.1
							c7.6,2.7,11.8,2.7,16,8.4s3.4,11.7,2.3,12.8c-1.1,1.1,0.4,1.7-0.3,6.7c-0.7,5-3.7,8.3-4.1,10c-0.5,2.4-2.1,5.7-2.1,5.7
							s9.3-0.1,10,1.5s5.1,2.8,7.8,3.9s2.3,2.5,2.3,2.5s13.8-1.7,19,7.5c5.3,9.2,4.6,37.9,4.6,37.9h-105.4L1437.9,559.8z"/>
					</g>
					<g>
						<path class="st30" d="M1525.7,560.3c0,0-0.5-8.4,6-12.4c3.2-2,10.5-3.1,10.5-3.1s0.4-2.1,0.7-3.2c0.2-0.7,7.5-2.8,7.6-3.4
							c0,0-5.5-4.2-4.6-8.2c0,0-1.4-3.6-0.7-5.1s-2.4-3.2-2-4.6c0.7-2.7,1.2-3.6,1.2-3.6s-1.6-6.4,1.4-8.8s10.6-8.3,16.5-6.3
							s9.1,2.1,12.4,6.5c3.3,4.5,2.6,9.1,1.8,9.9c-0.8,0.8,0.3,1.3-0.3,5.2s-2.8,6.4-3.1,7.7c-0.4,1.8-1.6,4.4-1.6,4.4
							s7.2,0,7.7,1.2s4,2.2,6,3s1.8,1.9,1.8,1.9s10.6-1.3,14.7,5.8s7.6,70.9,7.6,70.9l-85.7-41.6L1525.7,560.3z"/>
					</g>
					<g>
						<path class="st31" d="M1391.8,566.7c0,0-0.5-9.4,6.7-13.9c3.6-2.2,11.7-3.5,11.7-3.5s0.4-2.3,0.8-3.6c0.2-0.8,8.4-3.1,8.5-3.8
							c0,0-6.1-4.7-5.2-9.2c0,0-1.5-4-0.8-5.8c0.8-1.8-2.7-3.6-2.2-5.2c0.8-3,1.3-4.1,1.3-4.1s-1.8-7.2,1.5-9.9s11.9-9.4,18.5-7
							c6.6,2.3,10.2,2.3,13.9,7.3c3.7,5,2.9,10.2,2,11.1s0.3,1.5-0.3,5.8c-0.6,4.3-3.2,7.2-3.5,8.7c-0.5,2.1-1.8,4.9-1.8,4.9
							s8.1,0,8.7,1.3c0.6,1.4,4.4,2.4,6.7,3.4c2.3,0.9,2,2.2,2,2.2s11.9-1.5,16.5,6.5s4.2,66,4.2,66l-91.7-33.2L1391.8,566.7z"/>
					</g>
					<g>
						<path class="st2" d="M1323.6,591.1c0,0-0.7-12.5,9-18.6c4.8-3,15.7-4.6,15.7-4.6s0.5-3.1,1-4.8c0.3-1,11.3-4.2,11.3-5.1
							c0,0-8.2-6.3-6.9-12.3c0,0-2-5.3-1-7.7s-3.5-4.8-3-6.9c1.1-4,1.7-5.4,1.7-5.4s-2.5-9.6,2-13.2c4.5-3.6,16-12.5,24.7-9.4
							c8.8,3.1,13.7,3.1,18.6,9.8s3.9,13.6,2.7,14.9c-1.2,1.3,0.4,2-0.4,7.8s-4.3,9.6-4.7,11.6c-0.6,2.8-2.4,6.6-2.4,6.6
							s10.8-0.1,11.6,1.8s5.9,3.3,9,4.5s2.7,2.9,2.7,2.9s16-2,22.1,8.7s5.3,60.2,5.3,60.2l-122.3-1.3L1323.6,591.1z"/>
					</g>
					<g>
						<path class="st2" d="M1250.1,604.4c0,0-0.7-12.5,9-18.6c4.8-3,15.7-4.6,15.7-4.6s0.5-3.1,1-4.8c0.3-1,11.3-4.2,11.3-5.1
							c0,0-8.2-6.3-6.9-12.3c0,0-2-5.3-1-7.7s-3.5-4.8-3-6.9c1.1-4,1.7-5.4,1.7-5.4s-2.5-9.6,2-13.2c4.5-3.6,16-12.5,24.7-9.4
							c8.8,3.1,13.7,3.1,18.6,9.8c4.9,6.7,3.9,13.6,2.7,14.9c-1.2,1.3,0.4,2-0.4,7.8s-4.3,9.6-4.7,11.6c-0.6,2.8-2.4,6.6-2.4,6.6
							s10.8-0.1,11.6,1.8c0.8,1.8,5.9,3.3,9,4.5c3.1,1.3,2.7,2.9,2.7,2.9s16-2,22.1,8.7s5.3,60.2,5.3,60.2l-122.3-1.3L1250.1,604.4z
							"/>
					</g>
					<g>
						<path class="st2" d="M1176.7,617.6c0,0-0.7-12.5,9-18.6c4.8-3,15.7-4.6,15.7-4.6s0.5-3.1,1-4.8c0.3-1,11.3-4.2,11.3-5.1
							c0,0-8.2-6.3-6.9-12.3c0,0-2-5.3-1-7.7s-3.5-4.8-3-6.9c1.1-4,1.7-5.4,1.7-5.4s-2.5-9.6,2-13.2s16-12.5,24.7-9.4
							c8.8,3.1,13.7,3.1,18.6,9.8s3.9,13.6,2.7,14.9c-1.2,1.3,0.4,2-0.4,7.8c-0.8,5.8-4.3,9.6-4.7,11.6c-0.6,2.8-2.4,6.6-2.4,6.6
							s10.8-0.1,11.6,1.8c0.8,1.9,5.9,3.3,9,4.5c3.1,1.3,2.7,2.9,2.7,2.9s16-2,22.1,8.7s5.3,60.2,5.3,60.2l-122.1-1.4L1176.7,617.6z
							"/>
					</g>
					<g>
						<path class="st2" d="M1439,622.6c0,0-0.9-16.3,11.7-24.1c6.2-3.9,20.4-6,20.4-6s0.7-4.1,1.4-6.2c0.4-1.4,14.7-5.5,14.8-6.6
							c0,0-10.7-8.2-9-16c0,0-2.7-7-1.3-10c1.3-3.1-4.6-6.2-3.9-9c1.4-5.3,2.3-7.1,2.3-7.1s-3.2-12.5,2.7-17.2
							c5.9-4.7,20.8-16.3,32.2-12.3s17.8,4,24.2,12.7c6.4,8.7,5.1,17.7,3.5,19.3c-1.6,1.7,0.6,2.6-0.5,10.1s-5.5,12.5-6.1,15.1
							c-0.8,3.6-3.1,8.6-3.1,8.6s14-0.1,15.1,2.3c1.1,2.4,7.7,4.2,11.7,5.9s3.5,3.8,3.5,3.8s32.7,6.8,40.7,20.7s7.7,47.7,7.7,47.7
							h-171.8L1439,622.6z"/>
					</g>
					<g>
						<path class="st2" d="M1598.9,606.6c0,0-0.6-11.7,7.8-17.3c4.1-2.8,13.5-4.3,13.5-4.3s0.5-2.9,0.9-4.5c0.3-1,9.7-3.9,9.8-4.8
							c0,0-7.1-5.8-6-11.4c0,0-1.8-5-0.9-7.2s-3.1-4.4-2.6-6.4c1-3.8,1.5-5.1,1.5-5.1s-2.1-8.9,1.8-12.3c3.9-3.4,13.8-11.6,21.3-8.8
							c7.6,2.9,11.8,2.9,16,9.1s3.4,12.7,2.3,13.8c-1.1,1.2,0.4,1.8-0.3,7.2s-3.7,8.9-4.1,10.8c-0.5,2.6-2.1,6.2-2.1,6.2
							s9.3-0.1,10,1.6s5.1,3,7.8,4.2c2.6,1.2,2.3,2.7,2.3,2.7s13.8-1.9,19,8.1c5.3,10,4.6,48.4,4.6,48.4h-105.4L1598.9,606.6z"/>
					</g>
				</g>
			</g>
			<polygon class="st2" points="1701.7,828.1 337.9,828.1 336.5,736.6 336.4,618.1 1701.7,618.1 			"/>
		</g>
	</g>
</g>
<g id="Layer_9">
	<g>
		<g class="st35">
			<path class="st36" d="M1243.3,113.3V94.7h3.9c1.5,0,2.7,0.4,3.5,1.3c0.8,0.8,1.2,2,1.2,3.5v8.7c0,1.7-0.4,3-1.3,3.8
				c-0.8,0.8-2.1,1.2-3.6,1.2H1243.3z M1246,97.2v13.6h1.2c0.7,0,1.3-0.2,1.6-0.6c0.3-0.4,0.5-1,0.5-1.8v-8.9c0-0.7-0.1-1.3-0.4-1.7
				c-0.3-0.4-0.8-0.6-1.6-0.6H1246z"/>
			<path class="st36" d="M1263,94.7v14.4c0,0.6-0.1,1.2-0.3,1.7c-0.2,0.5-0.5,1-0.9,1.4c-0.4,0.4-0.9,0.7-1.4,0.9
				c-0.5,0.2-1.1,0.3-1.7,0.3s-1.1-0.1-1.7-0.3c-0.5-0.2-1-0.5-1.4-0.9c-0.4-0.4-0.7-0.9-0.9-1.4c-0.2-0.5-0.3-1.1-0.3-1.7V94.7h2.7
				v14.1c0,0.7,0.2,1.1,0.5,1.5c0.3,0.3,0.7,0.5,1.2,0.5c0.5,0,0.9-0.2,1.2-0.5c0.3-0.3,0.5-0.8,0.5-1.5V94.7H1263z"/>
			<path class="st36" d="M1265.5,113.3V94.7h4.3c3.1,0,4.7,1.8,4.7,5.5c0,1.1-0.2,2-0.5,2.8c-0.3,0.8-0.9,1.4-1.8,1.9l2.9,8.5h-2.8
				l-2.5-7.9h-1.6v7.9H1265.5z M1268.2,97.2v5.8h1.5c0.5,0,0.8-0.1,1.1-0.2c0.3-0.1,0.5-0.3,0.7-0.6c0.1-0.2,0.2-0.5,0.3-0.9
				c0.1-0.4,0.1-0.8,0.1-1.2c0-0.5,0-0.9-0.1-1.2c-0.1-0.4-0.2-0.7-0.3-0.9c-0.3-0.5-1-0.7-1.9-0.7H1268.2z"/>
			<path class="st36" d="M1276.6,113.3V94.7h2.7v8.5h0.1l3.9-8.5h2.7l-3.6,7.4l4.3,11.1h-2.8l-3-8.2l-1.4,2.7v5.6H1276.6z"/>
			<path class="st36" d="M1287.7,113.3V94.7h2.7v8h3.3v-8h2.7v18.6h-2.7V105h-3.3v8.3H1287.7z"/>
			<path class="st36" d="M1298.9,113.3V94.7h7.9v2.5h-5.3v5.5h4.6v2.5h-4.6v5.5h5.3v2.7H1298.9z"/>
			<path class="st36" d="M1308.6,113.3V94.7h2.7v18.6H1308.6z"/>
			<path class="st36" d="M1313.8,113.3V94.7h2.6l3.4,9.8h0.1l3.4-9.8h2.6v18.6h-2.7V102h-0.1l-2.6,8h-1.3l-2.6-8h-0.1v11.3H1313.8z"
				/>
		</g>
		<g class="st35">
			<path class="st36" d="M1248.3,89.2V74.4h6.4v2h-4.2v4.4h3.7v2h-3.7v4.4h4.2v2.1H1248.3z M1250,73.7l1.9-2.9h2.3l-2.8,2.9H1250z"
				/>
			<path class="st36" d="M1255.9,89.2V78.6h2.1v1h0c0.2-0.3,0.5-0.6,0.8-0.8c0.3-0.2,0.7-0.3,1.2-0.3c0.5,0,0.8,0.1,1.2,0.3
				c0.3,0.2,0.6,0.5,0.8,0.7c0.3-0.3,0.6-0.5,0.9-0.8c0.3-0.2,0.8-0.3,1.3-0.3c0.3,0,0.5,0,0.8,0.1c0.3,0.1,0.5,0.2,0.8,0.4
				c0.2,0.2,0.4,0.5,0.5,0.8c0.1,0.3,0.2,0.7,0.2,1.2v8.1h-2.1v-7.3c0-0.4-0.1-0.7-0.3-0.9c-0.2-0.2-0.4-0.3-0.8-0.3
				c-0.4,0-0.7,0.1-0.8,0.4s-0.2,0.6-0.2,1.1v7.1h-2.1v-7.3c0-0.4-0.1-0.7-0.3-0.9c-0.2-0.2-0.4-0.3-0.8-0.3c-0.4,0-0.7,0.1-0.8,0.4
				c-0.2,0.3-0.2,0.6-0.2,1.1v7.1H1255.9z"/>
			<path class="st36" d="M1268.3,76.5v-2.1h2.1v2.1H1268.3z M1268.3,89.2V78.6h2.1v10.6H1268.3z"/>
			<path class="st36" d="M1272.1,74.4h2.1v11.9c0,0.4,0.1,0.7,0.2,0.8c0.1,0.1,0.4,0.2,0.8,0.3v2c-0.5,0-0.9,0-1.3-0.1
				c-0.4-0.1-0.7-0.2-1-0.4c-0.3-0.2-0.5-0.5-0.6-0.9c-0.1-0.4-0.2-0.9-0.2-1.5V74.4z"/>
			<path class="st36" d="M1282.2,84.8h-4.2v1.4c0,0.3,0.1,0.6,0.3,0.8c0.2,0.2,0.4,0.3,0.8,0.3c0.4,0,0.7-0.1,0.8-0.4
				c0.1-0.2,0.2-0.5,0.2-0.7h2.1c0,0.9-0.3,1.7-0.9,2.3c-0.3,0.3-0.6,0.5-1,0.7c-0.4,0.2-0.8,0.3-1.3,0.3c-0.7,0-1.2-0.1-1.7-0.4
				c-0.5-0.3-0.8-0.6-1.1-1.1c-0.2-0.3-0.3-0.6-0.3-1c-0.1-0.4-0.1-0.8-0.1-1.2v-3.5c0-0.4,0-0.8,0.1-1.2c0.1-0.4,0.2-0.7,0.3-1
				c0.3-0.5,0.6-0.8,1.1-1.1c0.5-0.3,1-0.4,1.7-0.4c0.5,0,0.9,0.1,1.3,0.3c0.4,0.2,0.7,0.4,1,0.7c0.6,0.6,0.8,1.4,0.8,2.4V84.8z
				 M1278,83.1h2.1v-1.2c0-0.4-0.1-0.7-0.3-0.9c-0.2-0.2-0.4-0.3-0.8-0.3c-0.3,0-0.6,0.1-0.8,0.3c-0.2,0.2-0.3,0.5-0.3,0.9V83.1z"/>
		</g>
	</g>
	<g>
		<g class="st35">
			<path class="st36" d="M987.7,103.1V84.5h2.6l3.4,9.8h0.1l3.4-9.8h2.6v18.6H997V91.8H997l-2.6,8H993l-2.6-8h-0.1v11.3H987.7z"/>
			<path class="st36" d="M1001,103.1l4.1-18.6h2.2l4.1,18.6h-2.7l-0.8-4h-3.6l-0.8,4H1001z M1007.6,96.6l-1.3-6.7h-0.1l-1.3,6.7
				H1007.6z"/>
			<path class="st36" d="M1012.8,103.1V84.5h4.3c3.1,0,4.7,1.8,4.7,5.5c0,1.1-0.2,2-0.5,2.8c-0.3,0.8-0.9,1.4-1.8,1.9l2.9,8.5h-2.8
				l-2.5-7.9h-1.6v7.9H1012.8z M1015.5,87v5.8h1.5c0.5,0,0.8-0.1,1.1-0.2c0.3-0.1,0.5-0.3,0.7-0.6c0.1-0.2,0.2-0.5,0.3-0.9
				c0.1-0.4,0.1-0.8,0.1-1.2s0-0.9-0.1-1.2c-0.1-0.4-0.2-0.7-0.3-0.9c-0.3-0.5-1-0.7-1.9-0.7H1015.5z"/>
			<path class="st36" d="M1022.6,103.1l3.8-9.7l-3.5-8.8h2.8l2,5.5l2-5.5h2.8l-3.5,8.8l3.8,9.7h-2.8l-2.3-6.3l-2.3,6.3H1022.6z"/>
		</g>
		<g class="st35">
			<path class="st36" d="M992.7,79.1V64.2h2.1V71h0l3.1-6.8h2.1l-2.9,6l3.4,8.9h-2.3l-2.4-6.6l-1.1,2.2v4.5H992.7z"/>
			<path class="st36" d="M1005.5,79.1V78h0c-0.3,0.4-0.6,0.7-0.8,0.9c-0.3,0.2-0.7,0.3-1.2,0.3c-0.3,0-0.5,0-0.8-0.1
				c-0.3-0.1-0.5-0.2-0.7-0.4c-0.2-0.2-0.4-0.5-0.6-0.8c-0.1-0.4-0.2-0.8-0.2-1.4c0-0.6,0-1.1,0.1-1.6c0.1-0.5,0.3-0.8,0.5-1.1
				c0.3-0.3,0.6-0.5,1-0.7c0.4-0.1,1-0.2,1.7-0.2c0.1,0,0.1,0,0.2,0c0.1,0,0.2,0,0.2,0c0.1,0,0.2,0,0.3,0c0.1,0,0.2,0,0.3,0v-1.1
				c0-0.4-0.1-0.7-0.2-0.9c-0.2-0.2-0.4-0.4-0.8-0.4c-0.3,0-0.5,0.1-0.8,0.3c-0.2,0.2-0.4,0.4-0.4,0.8h-2.1c0.1-0.9,0.4-1.7,1-2.3
				c0.3-0.3,0.6-0.5,1-0.7c0.4-0.2,0.8-0.2,1.3-0.2c0.4,0,0.9,0.1,1.3,0.2c0.4,0.1,0.7,0.3,1,0.6c0.3,0.3,0.5,0.6,0.7,1
				c0.2,0.4,0.3,0.9,0.3,1.5v7.4H1005.5z M1005.5,74.5c-0.2,0-0.4-0.1-0.6-0.1c-0.5,0-0.9,0.1-1.2,0.3s-0.5,0.6-0.5,1.2
				c0,0.4,0.1,0.7,0.3,1s0.5,0.4,0.8,0.4c0.4,0,0.6-0.1,0.8-0.4c0.2-0.2,0.3-0.6,0.3-1V74.5z"/>
			<path class="st36" d="M1009.2,79.1V68.5h2.1v1.1c0.4-0.4,0.9-0.7,1.3-0.9c0.4-0.2,0.9-0.3,1.5-0.3v2.3c-0.2-0.1-0.4-0.1-0.6-0.1
				c-0.2,0-0.5,0-0.7,0.1c-0.3,0.1-0.5,0.2-0.7,0.4c-0.2,0.2-0.4,0.4-0.5,0.7c-0.1,0.3-0.2,0.7-0.2,1.1v6.3H1009.2z"/>
			<path class="st36" d="M1014.9,64.2h2.1v11.9c0,0.4,0.1,0.7,0.2,0.8c0.1,0.1,0.4,0.2,0.8,0.3v2c-0.5,0-0.9,0-1.3-0.1
				c-0.4-0.1-0.7-0.2-1-0.4c-0.3-0.2-0.5-0.5-0.6-0.9c-0.1-0.4-0.2-0.9-0.2-1.5V64.2z"/>
		</g>
	</g>
	<g>
		<g class="st35">
			<path class="st36" d="M740.8,83.4l-2.8,18.6h-2.5l-2-12.1h-0.1l-2,12.1h-2.5l-2.8-18.6h2.8l1.3,11.8h0.1l2.1-11.8h2l2.2,12.1h0.1
				l1.3-12.1H740.8z"/>
			<path class="st36" d="M742.5,101.9V83.4h7.9v2.5h-5.3v5.5h4.6v2.5h-4.6v5.5h5.3v2.7H742.5z"/>
			<path class="st36" d="M752.1,101.9V83.4h3.9c0.9,0,1.6,0.1,2.2,0.4c0.6,0.3,1.1,0.6,1.5,1c0.4,0.4,0.7,0.9,0.8,1.5
				c0.2,0.6,0.2,1.2,0.2,1.8v0.7c0,0.5,0,0.9-0.1,1.3c-0.1,0.3-0.2,0.7-0.4,0.9c-0.3,0.5-0.7,0.9-1.4,1.3c0.6,0.3,1.1,0.7,1.4,1.3
				c0.3,0.6,0.4,1.4,0.4,2.3v1c0,1.6-0.4,2.9-1.2,3.8c-0.8,0.9-2.1,1.3-3.8,1.3H752.1z M754.8,85.9V91h1.2c0.9,0,1.5-0.2,1.8-0.7
				c0.3-0.4,0.5-1.1,0.5-1.9c0-0.8-0.2-1.5-0.5-1.9c-0.3-0.4-1-0.6-1.8-0.6H754.8z M754.8,93.3v5.9h1.1c0.5,0,1-0.1,1.3-0.2
				c0.3-0.2,0.5-0.4,0.7-0.7s0.3-0.6,0.3-1c0-0.4,0.1-0.8,0.1-1.3c0-0.5,0-0.9-0.1-1.2c-0.1-0.3-0.2-0.6-0.3-0.9
				c-0.2-0.2-0.4-0.4-0.7-0.5c-0.3-0.1-0.7-0.2-1.2-0.2H754.8z"/>
			<path class="st36" d="M763.2,101.9V83.4h7.9v2.5h-5.3v5.5h4.6v2.5h-4.6v5.5h5.3v2.7H763.2z"/>
			<path class="st36" d="M772.9,101.9V83.4h4.3c3.1,0,4.7,1.8,4.7,5.5c0,1.1-0.2,2-0.5,2.8c-0.3,0.8-0.9,1.4-1.8,1.9l2.9,8.5h-2.8
				l-2.5-7.9h-1.6v7.9H772.9z M775.5,85.9v5.8h1.5c0.5,0,0.8-0.1,1.1-0.2c0.3-0.1,0.5-0.3,0.7-0.6c0.1-0.2,0.2-0.5,0.3-0.9
				s0.1-0.8,0.1-1.2c0-0.5,0-0.9-0.1-1.2c-0.1-0.4-0.2-0.7-0.3-0.9c-0.3-0.5-1-0.7-1.9-0.7H775.5z"/>
		</g>
		<g class="st35">
			<path class="st36" d="M732,77.9V63h2l2.7,7.9h0l2.7-7.9h2.1v14.9h-2.1v-9.1h0l-2.1,6.4h-1.1l-2.1-6.4h0v9.1H732z"/>
			<path class="st36" d="M747.6,77.9v-1.1h0c-0.3,0.4-0.6,0.7-0.8,0.9c-0.3,0.2-0.7,0.3-1.2,0.3c-0.3,0-0.5,0-0.8-0.1
				c-0.3-0.1-0.5-0.2-0.7-0.4c-0.2-0.2-0.4-0.5-0.6-0.8s-0.2-0.8-0.2-1.4c0-0.6,0-1.1,0.1-1.6c0.1-0.5,0.3-0.8,0.5-1.1
				c0.3-0.3,0.6-0.5,1-0.7c0.4-0.1,1-0.2,1.7-0.2c0.1,0,0.1,0,0.2,0c0.1,0,0.2,0,0.2,0c0.1,0,0.2,0,0.3,0c0.1,0,0.2,0,0.3,0v-1.1
				c0-0.4-0.1-0.7-0.2-0.9c-0.2-0.2-0.4-0.4-0.8-0.4c-0.3,0-0.5,0.1-0.8,0.3c-0.2,0.2-0.4,0.4-0.4,0.8h-2.1c0.1-0.9,0.4-1.7,1-2.3
				c0.3-0.3,0.6-0.5,1-0.7c0.4-0.2,0.8-0.2,1.3-0.2c0.4,0,0.9,0.1,1.3,0.2c0.4,0.1,0.7,0.3,1,0.6c0.3,0.3,0.5,0.6,0.7,1
				c0.2,0.4,0.3,0.9,0.3,1.5v7.4H747.6z M747.6,73.4c-0.2,0-0.4-0.1-0.6-0.1c-0.5,0-0.9,0.1-1.2,0.3c-0.3,0.2-0.5,0.6-0.5,1.2
				c0,0.4,0.1,0.7,0.3,1c0.2,0.3,0.5,0.4,0.8,0.4c0.4,0,0.6-0.1,0.8-0.4c0.2-0.2,0.3-0.6,0.3-1V73.4z"/>
			<path class="st36" d="M750.1,77.9l2.6-5.4l-2.5-5.2h2.3l1.3,3l1.3-3h2.3l-2.5,5.2l2.7,5.4h-2.3l-1.4-3.2l-1.4,3.2H750.1z"/>
		</g>
	</g>
</g>
<path class="st2" d="M873.5,276.3"/>
<rect x="-24.2" y="686.4" class="st2" width="2123.8" height="142.1"/>
</svg>
